<ttFont>
    <TTGlyph name="ampersand" xMin="82" yMin="-20" xMax="1475" yMax="1483">
      <contour>
        <pt x="1475" y="0" on="1"/>
        <pt x="1098" y="0" on="1"/>
        <pt x="1001" y="100" on="1"/>
        <pt x="921" y="45" on="0"/>
        <pt x="728" y="-20" on="0"/>
        <pt x="612" y="-20" on="1"/>
        <pt x="492" y="-20" on="0"/>
        <pt x="297" y="40" on="0"/>
        <pt x="158" y="149" on="0"/>
        <pt x="82" y="302" on="0"/>
        <pt x="82" y="395" on="1"/>
        <pt x="82" y="472" on="0"/>
        <pt x="119" y="593" on="0"/>
        <pt x="187" y="691" on="0"/>
        <pt x="284" y="771" on="0"/>
        <pt x="344" y="807" on="1"/>
        <pt x="306" y="853" on="0"/>
        <pt x="253" y="938" on="0"/>
        <pt x="221" y="1021" on="0"/>
        <pt x="207" y="1104" on="0"/>
        <pt x="207" y="1149" on="1"/>
        <pt x="207" y="1227" on="0"/>
        <pt x="268" y="1350" on="0"/>
        <pt x="377" y="1437" on="0"/>
        <pt x="528" y="1483" on="0"/>
        <pt x="618" y="1483" on="1"/>
        <pt x="704" y="1483" on="0"/>
        <pt x="849" y="1441" on="0"/>
        <pt x="954" y="1360" on="0"/>
        <pt x="1014" y="1241" on="0"/>
        <pt x="1014" y="1165" on="1"/>
        <pt x="1014" y="1096" on="0"/>
        <pt x="969" y="981" on="0"/>
        <pt x="893" y="883" on="0"/>
        <pt x="790" y="801" on="0"/>
        <pt x="731" y="766" on="1"/>
        <pt x="991" y="498" on="1"/>
        <pt x="1026" y="564" on="0"/>
        <pt x="1079" y="710" on="0"/>
        <pt x="1098" y="784" on="1"/>
        <pt x="1415" y="784" on="1"/>
        <pt x="1400" y="727" on="0"/>
        <pt x="1359" y="601" on="0"/>
        <pt x="1305" y="474" on="0"/>
        <pt x="1235" y="348" on="0"/>
        <pt x="1192" y="291" on="1"/>
      </contour>
      <contour>
        <pt x="403" y="424" on="1"/>
        <pt x="403" y="380" on="0"/>
        <pt x="435" y="310" on="0"/>
        <pt x="492" y="262" on="0"/>
        <pt x="569" y="236" on="0"/>
        <pt x="614" y="236" on="1"/>
        <pt x="674" y="236" on="0"/>
        <pt x="776" y="267" on="0"/>
        <pt x="819" y="295" on="1"/>
        <pt x="510" y="625" on="1"/>
        <pt x="459" y="583" on="0"/>
        <pt x="403" y="487" on="0"/>
      </contour>
      <contour>
        <pt x="731" y="1124" on="1"/>
        <pt x="731" y="1155" on="0"/>
        <pt x="711" y="1198" on="0"/>
        <pt x="678" y="1226" on="0"/>
        <pt x="637" y="1239" on="0"/>
        <pt x="616" y="1239" on="1"/>
        <pt x="594" y="1239" on="0"/>
        <pt x="549" y="1227" on="0"/>
        <pt x="512" y="1200" on="0"/>
        <pt x="489" y="1155" on="0"/>
        <pt x="489" y="1122" on="1"/>
        <pt x="489" y="1070" on="0"/>
        <pt x="535" y="978" on="0"/>
        <pt x="575" y="932" on="1"/>
        <pt x="652" y="976" on="0"/>
        <pt x="731" y="1064" on="0"/>
      </contour>
    </TTGlyph>
    <TTGlyph name="asciitilde" xMin="88" yMin="551" xMax="1040" yMax="893">
      <contour>
        <pt x="528" y="616" on="1"/>
        <pt x="491" y="632" on="0"/>
        <pt x="434" y="654" on="0"/>
        <pt x="387" y="667" on="0"/>
        <pt x="345" y="672" on="0"/>
        <pt x="322" y="672" on="1"/>
        <pt x="293" y="672" on="0"/>
        <pt x="231" y="653" on="0"/>
        <pt x="171" y="620" on="0"/>
        <pt x="114" y="576" on="0"/>
        <pt x="88" y="551" on="1"/>
        <pt x="88" y="782" on="1"/>
        <pt x="139" y="836" on="0"/>
        <pt x="266" y="891" on="0"/>
        <pt x="344" y="891" on="1"/>
        <pt x="374" y="891" on="0"/>
        <pt x="425" y="886" on="0"/>
        <pt x="482" y="872" on="0"/>
        <pt x="552" y="847" on="0"/>
        <pt x="600" y="827" on="1"/>
        <pt x="638" y="811" on="0"/>
        <pt x="695" y="790" on="0"/>
        <pt x="743" y="777" on="0"/>
        <pt x="785" y="772" on="0"/>
        <pt x="807" y="772" on="1"/>
        <pt x="836" y="772" on="0"/>
        <pt x="898" y="791" on="0"/>
        <pt x="958" y="823" on="0"/>
        <pt x="1015" y="868" on="0"/>
        <pt x="1040" y="893" on="1"/>
        <pt x="1040" y="662" on="1"/>
        <pt x="939" y="553" on="0"/>
        <pt x="784" y="553" on="1"/>
        <pt x="754" y="553" on="0"/>
        <pt x="703" y="558" on="0"/>
        <pt x="646" y="571" on="0"/>
        <pt x="576" y="596" on="0"/>
      </contour>
    </TTGlyph>
    <TTGlyph name="asterisk" xMin="63" yMin="598" xMax="1053" yMax="1556">
      <contour>
        <pt x="688" y="1556" on="1"/>
        <pt x="647" y="1188" on="1"/>
        <pt x="1020" y="1292" on="1"/>
        <pt x="1053" y="1040" on="1"/>
        <pt x="713" y="1016" on="1"/>
        <pt x="936" y="719" on="1"/>
        <pt x="709" y="598" on="1"/>
        <pt x="553" y="911" on="1"/>
        <pt x="416" y="600" on="1"/>
        <pt x="180" y="719" on="1"/>
        <pt x="401" y="1016" on="1"/>
        <pt x="63" y="1042" on="1"/>
        <pt x="102" y="1292" on="1"/>
        <pt x="467" y="1188" on="1"/>
        <pt x="426" y="1556" on="1"/>
      </contour>
    </TTGlyph>
    <TTGlyph name="at" xMin="102" yMin="-154" xMax="1673" yMax="1481">
      <contour>
        <pt x="1673" y="752" on="1"/>
        <pt x="1673" y="657" on="0"/>
        <pt x="1628" y="471" on="0"/>
        <pt x="1536" y="324" on="0"/>
        <pt x="1397" y="233" on="0"/>
        <pt x="1303" y="233" on="1"/>
        <pt x="1265" y="233" on="0"/>
        <pt x="1198" y="252" on="0"/>
        <pt x="1142" y="287" on="0"/>
        <pt x="1101" y="334" on="0"/>
        <pt x="1090" y="362" on="1"/>
        <pt x="1075" y="362" on="1"/>
        <pt x="1056" y="337" on="0"/>
        <pt x="1006" y="290" on="0"/>
        <pt x="944" y="254" on="0"/>
        <pt x="869" y="233" on="0"/>
        <pt x="825" y="233" on="1"/>
        <pt x="742" y="233" on="0"/>
        <pt x="613" y="290" on="0"/>
        <pt x="525" y="395" on="0"/>
        <pt x="479" y="542" on="0"/>
        <pt x="479" y="631" on="1"/>
        <pt x="479" y="734" on="0"/>
        <pt x="541" y="906" on="0"/>
        <pt x="657" y="1031" on="0"/>
        <pt x="823" y="1100" on="0"/>
        <pt x="926" y="1100" on="1"/>
        <pt x="971" y="1100" on="0"/>
        <pt x="1067" y="1090" on="0"/>
        <pt x="1156" y="1074" on="0"/>
        <pt x="1234" y="1054" on="0"/>
        <pt x="1262" y="1044" on="1"/>
        <pt x="1241" y="625" on="1"/>
        <pt x="1239" y="603" on="0"/>
        <pt x="1239" y="561" on="0"/>
        <pt x="1239" y="555" on="1"/>
        <pt x="1239" y="513" on="0"/>
        <pt x="1252" y="459" on="0"/>
        <pt x="1273" y="428" on="0"/>
        <pt x="1300" y="416" on="0"/>
        <pt x="1315" y="416" on="1"/>
        <pt x="1350" y="416" on="0"/>
        <pt x="1402" y="470" on="0"/>
        <pt x="1436" y="562" on="0"/>
        <pt x="1454" y="685" on="0"/>
        <pt x="1454" y="754" on="1"/>
        <pt x="1454" y="882" on="0"/>
        <pt x="1378" y="1082" on="0"/>
        <pt x="1243" y="1220" on="0"/>
        <pt x="1057" y="1292" on="0"/>
        <pt x="948" y="1292" on="1"/>
        <pt x="795" y="1292" on="0"/>
        <pt x="562" y="1190" on="0"/>
        <pt x="405" y="1007" on="0"/>
        <pt x="324" y="757" on="0"/>
        <pt x="324" y="608" on="1"/>
        <pt x="324" y="470" on="0"/>
        <pt x="394" y="257" on="0"/>
        <pt x="532" y="112" on="0"/>
        <pt x="734" y="37" on="0"/>
        <pt x="866" y="37" on="1"/>
        <pt x="922" y="37" on="0"/>
        <pt x="1040" y="51" on="0"/>
        <pt x="1157" y="75" on="0"/>
        <pt x="1270" y="109" on="0"/>
        <pt x="1321" y="129" on="1"/>
        <pt x="1321" y="-63" on="1"/>
        <pt x="1227" y="-105" on="0"/>
        <pt x="998" y="-154" on="0"/>
        <pt x="868" y="-154" on="1"/>
        <pt x="687" y="-154" on="0"/>
        <pt x="402" y="-51" on="0"/>
        <pt x="206" y="143" on="0"/>
        <pt x="102" y="424" on="0"/>
        <pt x="102" y="602" on="1"/>
        <pt x="102" y="726" on="0"/>
        <pt x="156" y="953" on="0"/>
        <pt x="258" y="1148" on="0"/>
        <pt x="405" y="1307" on="0"/>
        <pt x="593" y="1420" on="0"/>
        <pt x="819" y="1481" on="0"/>
        <pt x="948" y="1481" on="1"/>
        <pt x="1106" y="1481" on="0"/>
        <pt x="1372" y="1380" on="0"/>
        <pt x="1565" y="1191" on="0"/>
        <pt x="1673" y="921" on="0"/>
      </contour>
      <contour>
        <pt x="711" y="627" on="1"/>
        <pt x="711" y="515" on="0"/>
        <pt x="787" y="416" on="0"/>
        <pt x="850" y="416" on="1"/>
        <pt x="892" y="416" on="0"/>
        <pt x="953" y="455" on="0"/>
        <pt x="992" y="526" on="0"/>
        <pt x="1013" y="625" on="0"/>
        <pt x="1016" y="686" on="1"/>
        <pt x="1028" y="907" on="1"/>
        <pt x="1008" y="912" on="0"/>
        <pt x="954" y="918" on="0"/>
        <pt x="926" y="918" on="1"/>
        <pt x="867" y="918" on="0"/>
        <pt x="785" y="868" on="0"/>
        <pt x="734" y="786" on="0"/>
        <pt x="711" y="681" on="0"/>
      </contour>
    </TTGlyph>
    <TTGlyph name="bar" xMin="455" yMin="-465" xMax="674" yMax="1550">
      <contour>
        <pt x="455" y="1550" on="1"/>
        <pt x="674" y="1550" on="1"/>
        <pt x="674" y="-465" on="1"/>
        <pt x="455" y="-465" on="1"/>
      </contour>
    </TTGlyph>
    <TTGlyph name="braceleft" xMin="31" yMin="-324" xMax="725" yMax="1462">
      <contour>
        <pt x="287" y="367" on="0"/>
        <pt x="156" y="449" on="0"/>
        <pt x="31" y="449" on="1"/>
        <pt x="31" y="688" on="1"/>
        <pt x="93" y="688" on="0"/>
        <pt x="190" y="707" on="0"/>
        <pt x="256" y="750" on="0"/>
        <pt x="289" y="818" on="0"/>
        <pt x="287" y="866" on="1"/>
        <pt x="287" y="1184" on="1"/>
        <pt x="287" y="1258" on="0"/>
        <pt x="325" y="1363" on="0"/>
        <pt x="424" y="1430" on="0"/>
        <pt x="594" y="1462" on="0"/>
        <pt x="725" y="1462" on="1"/>
        <pt x="725" y="1237" on="1"/>
        <pt x="685" y="1236" on="0"/>
        <pt x="620" y="1224" on="0"/>
        <pt x="575" y="1193" on="0"/>
        <pt x="551" y="1139" on="0"/>
        <pt x="551" y="1096" on="1"/>
        <pt x="551" y="797" on="1"/>
        <pt x="545" y="610" on="0"/>
        <pt x="317" y="575" on="1"/>
        <pt x="317" y="563" on="1"/>
        <pt x="432" y="546" on="0"/>
        <pt x="554" y="436" on="0"/>
        <pt x="551" y="342" on="1"/>
        <pt x="551" y="43" on="1"/>
        <pt x="551" y="0" on="0"/>
        <pt x="575" y="-54" on="0"/>
        <pt x="620" y="-85" on="0"/>
        <pt x="685" y="-97" on="0"/>
        <pt x="725" y="-98" on="1"/>
        <pt x="725" y="-324" on="1"/>
        <pt x="594" y="-324" on="0"/>
        <pt x="424" y="-292" on="0"/>
        <pt x="325" y="-225" on="0"/>
        <pt x="287" y="-119" on="0"/>
        <pt x="287" y="-45" on="1"/>
        <pt x="287" y="270" on="1"/>
      </contour>
    </TTGlyph>
    <TTGlyph name="braceright" xMin="31" yMin="-324" xMax="725" yMax="1462">
      <contour>
        <pt x="469" y="-45" on="1"/>
        <pt x="469" y="-119" on="0"/>
        <pt x="431" y="-225" on="0"/>
        <pt x="332" y="-292" on="0"/>
        <pt x="162" y="-324" on="0"/>
        <pt x="31" y="-324" on="1"/>
        <pt x="31" y="-98" on="1"/>
        <pt x="71" y="-97" on="0"/>
        <pt x="135" y="-85" on="0"/>
        <pt x="180" y="-54" on="0"/>
        <pt x="205" y="0" on="0"/>
        <pt x="205" y="43" on="1"/>
        <pt x="205" y="342" on="1"/>
        <pt x="202" y="436" on="0"/>
        <pt x="324" y="546" on="0"/>
        <pt x="438" y="563" on="1"/>
        <pt x="438" y="575" on="1"/>
        <pt x="211" y="610" on="0"/>
        <pt x="205" y="797" on="1"/>
        <pt x="205" y="1096" on="1"/>
        <pt x="205" y="1139" on="0"/>
        <pt x="180" y="1193" on="0"/>
        <pt x="135" y="1224" on="0"/>
        <pt x="71" y="1236" on="0"/>
        <pt x="31" y="1237" on="1"/>
        <pt x="31" y="1462" on="1"/>
        <pt x="162" y="1462" on="0"/>
        <pt x="332" y="1430" on="0"/>
        <pt x="431" y="1363" on="0"/>
        <pt x="469" y="1258" on="0"/>
        <pt x="469" y="1184" on="1"/>
        <pt x="469" y="866" on="1"/>
        <pt x="468" y="818" on="0"/>
        <pt x="500" y="750" on="0"/>
        <pt x="566" y="707" on="0"/>
        <pt x="663" y="688" on="0"/>
        <pt x="725" y="688" on="1"/>
        <pt x="725" y="449" on="1"/>
        <pt x="600" y="449" on="0"/>
        <pt x="469" y="367" on="0"/>
        <pt x="469" y="270" on="1"/>
      </contour>
    </TTGlyph>
    <TTGlyph name="colon" xMin="117" yMin="-27" xMax="467" yMax="1139">
      <contour>
        <pt x="117" y="143" on="1"/>
        <pt x="117" y="190" on="0"/>
        <pt x="144" y="255" on="0"/>
        <pt x="192" y="295" on="0"/>
        <pt x="256" y="313" on="0"/>
        <pt x="293" y="313" on="1"/>
        <pt x="328" y="313" on="0"/>
        <pt x="391" y="295" on="0"/>
        <pt x="439" y="255" on="0"/>
        <pt x="467" y="190" on="0"/>
        <pt x="467" y="143" on="1"/>
        <pt x="467" y="98" on="0"/>
        <pt x="439" y="34" on="0"/>
        <pt x="391" y="-8" on="0"/>
        <pt x="328" y="-27" on="0"/>
        <pt x="293" y="-27" on="1"/>
        <pt x="256" y="-27" on="0"/>
        <pt x="192" y="-8" on="0"/>
        <pt x="144" y="34" on="0"/>
        <pt x="117" y="98" on="0"/>
      </contour>
      <contour>
        <pt x="117" y="969" on="1"/>
        <pt x="117" y="1016" on="0"/>
        <pt x="144" y="1081" on="0"/>
        <pt x="192" y="1121" on="0"/>
        <pt x="256" y="1139" on="0"/>
        <pt x="293" y="1139" on="1"/>
        <pt x="328" y="1139" on="0"/>
        <pt x="391" y="1121" on="0"/>
        <pt x="439" y="1081" on="0"/>
        <pt x="467" y="1016" on="0"/>
        <pt x="467" y="969" on="1"/>
        <pt x="467" y="924" on="0"/>
        <pt x="439" y="859" on="0"/>
        <pt x="391" y="818" on="0"/>
        <pt x="328" y="799" on="0"/>
        <pt x="293" y="799" on="1"/>
        <pt x="256" y="799" on="0"/>
        <pt x="192" y="818" on="0"/>
        <pt x="144" y="859" on="0"/>
        <pt x="117" y="924" on="0"/>
      </contour>
    </TTGlyph>
    <TTGlyph name="comma" xMin="63" yMin="-264" xMax="459" yMax="238">
      <contour>
        <pt x="459" y="215" on="1"/>
        <pt x="445" y="161" on="0"/>
        <pt x="406" y="39" on="0"/>
        <pt x="359" y="-85" on="0"/>
        <pt x="308" y="-208" on="0"/>
        <pt x="283" y="-264" on="1"/>
        <pt x="63" y="-264" on="1"/>
        <pt x="78" y="-203" on="0"/>
        <pt x="107" y="-71" on="0"/>
        <pt x="134" y="60" on="0"/>
        <pt x="156" y="185" on="0"/>
        <pt x="164" y="238" on="1"/>
        <pt x="444" y="238" on="1"/>
      </contour>
    </TTGlyph>
    <TTGlyph name="dollar" xMin="98" yMin="-119" xMax="1061" yMax="1556">
      <contour>
        <pt x="1061" y="457" on="1"/>
        <pt x="1061" y="382" on="0"/>
        <pt x="1008" y="254" on="0"/>
        <pt x="903" y="158" on="0"/>
        <pt x="747" y="96" on="0"/>
        <pt x="645" y="86" on="1"/>
        <pt x="645" y="-119" on="1"/>
        <pt x="508" y="-119" on="1"/>
        <pt x="508" y="82" on="1"/>
        <pt x="442" y="84" on="0"/>
        <pt x="330" y="96" on="0"/>
        <pt x="232" y="118" on="0"/>
        <pt x="143" y="149" on="0"/>
        <pt x="100" y="168" on="1"/>
        <pt x="100" y="432" on="1"/>
        <pt x="142" y="411" on="0"/>
        <pt x="241" y="373" on="0"/>
        <pt x="347" y="342" on="0"/>
        <pt x="456" y="320" on="0"/>
        <pt x="508" y="317" on="1"/>
        <pt x="508" y="635" on="1"/>
        <pt x="500" y="638" on="0"/>
        <pt x="491" y="642" on="1"/>
        <pt x="483" y="645" on="0"/>
        <pt x="467" y="651" on="0"/>
        <pt x="461" y="653" on="1"/>
        <pt x="370" y="688" on="0"/>
        <pt x="234" y="764" on="0"/>
        <pt x="143" y="858" on="0"/>
        <pt x="98" y="972" on="0"/>
        <pt x="98" y="1044" on="1"/>
        <pt x="98" y="1119" on="0"/>
        <pt x="155" y="1242" on="0"/>
        <pt x="261" y="1333" on="0"/>
        <pt x="413" y="1390" on="0"/>
        <pt x="508" y="1399" on="1"/>
        <pt x="508" y="1556" on="1"/>
        <pt x="645" y="1556" on="1"/>
        <pt x="645" y="1405" on="1"/>
        <pt x="732" y="1400" on="0"/>
        <pt x="914" y="1360" on="0"/>
        <pt x="1014" y="1317" on="1"/>
        <pt x="913" y="1083" on="1"/>
        <pt x="848" y="1109" on="0"/>
        <pt x="707" y="1150" on="0"/>
        <pt x="645" y="1155" on="1"/>
        <pt x="645" y="862" on="1"/>
        <pt x="684" y="848" on="1"/>
        <pt x="779" y="813" on="0"/>
        <pt x="921" y="739" on="0"/>
        <pt x="1015" y="647" on="0"/>
        <pt x="1061" y="533" on="0"/>
      </contour>
      <contour>
        <pt x="760" y="451" on="1"/>
        <pt x="760" y="475" on="0"/>
        <pt x="747" y="511" on="0"/>
        <pt x="719" y="541" on="0"/>
        <pt x="676" y="566" on="0"/>
        <pt x="645" y="580" on="1"/>
        <pt x="645" y="328" on="1"/>
        <pt x="704" y="337" on="0"/>
        <pt x="760" y="397" on="0"/>
      </contour>
      <contour>
        <pt x="399" y="1051" on="1"/>
        <pt x="399" y="1004" on="0"/>
        <pt x="451" y="941" on="0"/>
        <pt x="508" y="920" on="1"/>
        <pt x="508" y="1153" on="1"/>
        <pt x="454" y="1147" on="0"/>
        <pt x="399" y="1099" on="0"/>
      </contour>
    </TTGlyph>
    <TTGlyph name="eight" xMin="72" yMin="-20" xMax="1057" yMax="1481">
      <contour>
        <pt x="565" y="1481" on="1"/>
        <pt x="656" y="1481" on="0"/>
        <pt x="818" y="1437" on="0"/>
        <pt x="940" y="1349" on="0"/>
        <pt x="1012" y="1217" on="0"/>
        <pt x="1012" y="1128" on="1"/>
        <pt x="1012" y="1062" on="0"/>
        <pt x="972" y="955" on="0"/>
        <pt x="902" y="868" on="0"/>
        <pt x="806" y="800" on="0"/>
        <pt x="750" y="772" on="1"/>
        <pt x="808" y="741" on="0"/>
        <pt x="919" y="665" on="0"/>
        <pt x="1005" y="570" on="0"/>
        <pt x="1057" y="452" on="0"/>
        <pt x="1057" y="379" on="1"/>
        <pt x="1057" y="288" on="0"/>
        <pt x="985" y="140" on="0"/>
        <pt x="855" y="36" on="0"/>
        <pt x="674" y="-20" on="0"/>
        <pt x="565" y="-20" on="1"/>
        <pt x="447" y="-20" on="0"/>
        <pt x="263" y="34" on="0"/>
        <pt x="137" y="134" on="0"/>
        <pt x="72" y="280" on="0"/>
        <pt x="72" y="371" on="1"/>
        <pt x="72" y="446" on="0"/>
        <pt x="116" y="566" on="0"/>
        <pt x="192" y="662" on="0"/>
        <pt x="294" y="736" on="0"/>
        <pt x="352" y="764" on="1"/>
        <pt x="303" y="795" on="0"/>
        <pt x="217" y="868" on="0"/>
        <pt x="154" y="957" on="0"/>
        <pt x="117" y="1065" on="0"/>
        <pt x="117" y="1130" on="1"/>
        <pt x="117" y="1217" on="0"/>
        <pt x="190" y="1348" on="0"/>
        <pt x="314" y="1437" on="0"/>
        <pt x="476" y="1481" on="0"/>
      </contour>
      <contour>
        <pt x="358" y="389" on="1"/>
        <pt x="358" y="349" on="0"/>
        <pt x="384" y="282" on="0"/>
        <pt x="435" y="234" on="0"/>
        <pt x="511" y="207" on="0"/>
        <pt x="561" y="207" on="1"/>
        <pt x="666" y="207" on="0"/>
        <pt x="770" y="306" on="0"/>
        <pt x="770" y="387" on="1"/>
        <pt x="770" y="429" on="0"/>
        <pt x="735" y="496" on="0"/>
        <pt x="680" y="553" on="0"/>
        <pt x="610" y="601" on="0"/>
        <pt x="575" y="623" on="1"/>
        <pt x="553" y="637" on="1"/>
        <pt x="509" y="615" on="0"/>
        <pt x="437" y="564" on="0"/>
        <pt x="386" y="503" on="0"/>
        <pt x="358" y="431" on="0"/>
      </contour>
      <contour>
        <pt x="563" y="1255" on="1"/>
        <pt x="530" y="1255" on="0"/>
        <pt x="473" y="1235" on="0"/>
        <pt x="432" y="1197" on="0"/>
        <pt x="408" y="1141" on="0"/>
        <pt x="408" y="1106" on="1"/>
        <pt x="408" y="1064" on="0"/>
        <pt x="433" y="1003" on="0"/>
        <pt x="476" y="956" on="0"/>
        <pt x="533" y="919" on="0"/>
        <pt x="565" y="901" on="1"/>
        <pt x="596" y="917" on="0"/>
        <pt x="652" y="955" on="0"/>
        <pt x="695" y="1004" on="0"/>
        <pt x="721" y="1066" on="0"/>
        <pt x="721" y="1106" on="1"/>
        <pt x="721" y="1141" on="0"/>
        <pt x="697" y="1197" on="0"/>
        <pt x="655" y="1235" on="0"/>
        <pt x="597" y="1255" on="0"/>
      </contour>
    </TTGlyph>
    <TTGlyph name="equal" xMin="88" yMin="418" xMax="1040" yMax="1024">
      <contour>
        <pt x="88" y="807" on="1"/>
        <pt x="88" y="1024" on="1"/>
        <pt x="1040" y="1024" on="1"/>
        <pt x="1040" y="807" on="1"/>
      </contour>
      <contour>
        <pt x="88" y="418" on="1"/>
        <pt x="88" y="637" on="1"/>
        <pt x="1040" y="637" on="1"/>
        <pt x="1040" y="418" on="1"/>
      </contour>
    </TTGlyph>
    <TTGlyph name="exclam" xMin="117" yMin="-27" xMax="467" yMax="1462">
      <contour>
        <pt x="416" y="485" on="1"/>
        <pt x="172" y="485" on="1"/>
        <pt x="121" y="1462" on="1"/>
        <pt x="467" y="1462" on="1"/>
      </contour>
      <contour>
        <pt x="117" y="143" on="1"/>
        <pt x="117" y="190" on="0"/>
        <pt x="144" y="255" on="0"/>
        <pt x="192" y="295" on="0"/>
        <pt x="256" y="313" on="0"/>
        <pt x="293" y="313" on="1"/>
        <pt x="328" y="313" on="0"/>
        <pt x="391" y="295" on="0"/>
        <pt x="439" y="255" on="0"/>
        <pt x="467" y="190" on="0"/>
        <pt x="467" y="143" on="1"/>
        <pt x="467" y="98" on="0"/>
        <pt x="439" y="34" on="0"/>
        <pt x="391" y="-8" on="0"/>
        <pt x="328" y="-27" on="0"/>
        <pt x="293" y="-27" on="1"/>
        <pt x="256" y="-27" on="0"/>
        <pt x="192" y="-8" on="0"/>
        <pt x="144" y="34" on="0"/>
        <pt x="117" y="98" on="0"/>
      </contour>
    </TTGlyph>
    <TTGlyph name="five" xMin="86" yMin="-20" xMax="1042" yMax="1462">
      <contour>
        <pt x="598" y="934" on="1"/>
        <pt x="692" y="934" on="0"/>
        <pt x="854" y="876" on="0"/>
        <pt x="974" y="764" on="0"/>
        <pt x="1042" y="597" on="0"/>
        <pt x="1042" y="489" on="1"/>
        <pt x="1042" y="370" on="0"/>
        <pt x="968" y="181" on="0"/>
        <pt x="824" y="50" on="0"/>
        <pt x="611" y="-20" on="0"/>
        <pt x="473" y="-20" on="1"/>
        <pt x="418" y="-20" on="0"/>
        <pt x="310" y="-10" on="0"/>
        <pt x="211" y="9" on="0"/>
        <pt x="122" y="39" on="0"/>
        <pt x="86" y="59" on="1"/>
        <pt x="86" y="326" on="1"/>
        <pt x="121" y="306" on="0"/>
        <pt x="213" y="271" on="0"/>
        <pt x="312" y="246" on="0"/>
        <pt x="412" y="231" on="0"/>
        <pt x="457" y="231" on="1"/>
        <pt x="591" y="231" on="0"/>
        <pt x="731" y="342" on="0"/>
        <pt x="731" y="463" on="1"/>
        <pt x="731" y="571" on="0"/>
        <pt x="594" y="684" on="0"/>
        <pt x="451" y="684" on="1"/>
        <pt x="425" y="684" on="0"/>
        <pt x="366" y="678" on="0"/>
        <pt x="309" y="668" on="0"/>
        <pt x="257" y="657" on="0"/>
        <pt x="238" y="651" on="1"/>
        <pt x="115" y="717" on="1"/>
        <pt x="170" y="1462" on="1"/>
        <pt x="942" y="1462" on="1"/>
        <pt x="942" y="1200" on="1"/>
        <pt x="438" y="1200" on="1"/>
        <pt x="414" y="913" on="1"/>
        <pt x="446" y="920" on="0"/>
        <pt x="531" y="934" on="0"/>
      </contour>
    </TTGlyph>
    <TTGlyph name="four" xMin="4" yMin="0" xMax="1085" yMax="1462">
      <contour>
        <pt x="1085" y="303" on="1"/>
        <pt x="909" y="303" on="1"/>
        <pt x="909" y="0" on="1"/>
        <pt x="608" y="0" on="1"/>
        <pt x="608" y="303" on="1"/>
        <pt x="4" y="303" on="1"/>
        <pt x="4" y="518" on="1"/>
        <pt x="625" y="1462" on="1"/>
        <pt x="909" y="1462" on="1"/>
        <pt x="909" y="543" on="1"/>
        <pt x="1085" y="543" on="1"/>
      </contour>
      <contour>
        <pt x="608" y="543" on="1"/>
        <pt x="608" y="791" on="1"/>
        <pt x="608" y="804" on="0"/>
        <pt x="609" y="853" on="0"/>
        <pt x="611" y="915" on="0"/>
        <pt x="614" y="981" on="0"/>
        <pt x="617" y="1041" on="0"/>
        <pt x="620" y="1086" on="0"/>
        <pt x="621" y="1096" on="1"/>
        <pt x="612" y="1096" on="1"/>
        <pt x="594" y="1054" on="0"/>
        <pt x="549" y="960" on="0"/>
        <pt x="520" y="913" on="1"/>
        <pt x="276" y="543" on="1"/>
      </contour>
    </TTGlyph>
    <TTGlyph name="greater" xMin="88" yMin="203" xMax="1040" yMax="1280">
      <contour>
        <pt x="88" y="442" on="1"/>
        <pt x="731" y="723" on="1"/>
        <pt x="88" y="1040" on="1"/>
        <pt x="88" y="1280" on="1"/>
        <pt x="1040" y="784" on="1"/>
        <pt x="1040" y="641" on="1"/>
        <pt x="88" y="203" on="1"/>
      </contour>
    </TTGlyph>
    <TTGlyph name="guillemotleft" xMin="82" yMin="94" xMax="1116" yMax="1028">
      <contour>
        <pt x="82" y="573" on="1"/>
        <pt x="391" y="1028" on="1"/>
        <pt x="610" y="909" on="1"/>
        <pt x="393" y="561" on="1"/>
        <pt x="610" y="213" on="1"/>
        <pt x="391" y="94" on="1"/>
        <pt x="82" y="547" on="1"/>
      </contour>
      <contour>
        <pt x="588" y="573" on="1"/>
        <pt x="897" y="1028" on="1"/>
        <pt x="1116" y="909" on="1"/>
        <pt x="899" y="561" on="1"/>
        <pt x="1116" y="213" on="1"/>
        <pt x="897" y="94" on="1"/>
        <pt x="588" y="547" on="1"/>
      </contour>
    </TTGlyph>
    <TTGlyph name="guillemotright" xMin="84" yMin="94" xMax="1118" yMax="1028">
      <contour>
        <pt x="1118" y="547" on="1"/>
        <pt x="809" y="94" on="1"/>
        <pt x="590" y="213" on="1"/>
        <pt x="807" y="561" on="1"/>
        <pt x="590" y="909" on="1"/>
        <pt x="809" y="1028" on="1"/>
        <pt x="1118" y="573" on="1"/>
      </contour>
      <contour>
        <pt x="612" y="547" on="1"/>
        <pt x="303" y="94" on="1"/>
        <pt x="84" y="213" on="1"/>
        <pt x="301" y="561" on="1"/>
        <pt x="84" y="909" on="1"/>
        <pt x="303" y="1028" on="1"/>
        <pt x="612" y="573" on="1"/>
      </contour>
    </TTGlyph>
    <TTGlyph name="hyphen" xMin="61" yMin="424" xMax="598" yMax="674">
      <contour>
        <pt x="61" y="424" on="1"/>
        <pt x="61" y="674" on="1"/>
        <pt x="598" y="674" on="1"/>
        <pt x="598" y="424" on="1"/>
      </contour>
    </TTGlyph>
    <TTGlyph name="less" xMin="88" yMin="203" xMax="1040" yMax="1280">
      <contour>
        <pt x="1040" y="203" on="1"/>
        <pt x="88" y="641" on="1"/>
        <pt x="88" y="784" on="1"/>
        <pt x="1040" y="1280" on="1"/>
        <pt x="1040" y="1040" on="1"/>
        <pt x="397" y="723" on="1"/>
        <pt x="1040" y="442" on="1"/>
      </contour>
    </TTGlyph>
    <TTGlyph name="nine" xMin="63" yMin="-20" xMax="1055" yMax="1479">
      <contour>
        <pt x="1055" y="838" on="1"/>
        <pt x="1055" y="733" on="0"/>
        <pt x="1032" y="524" on="0"/>
        <pt x="973" y="334" on="0"/>
        <pt x="872" y="169" on="0"/>
        <pt x="717" y="49" on="0"/>
        <pt x="500" y="-20" on="0"/>
        <pt x="354" y="-20" on="1"/>
        <pt x="333" y="-20" on="0"/>
        <pt x="283" y="-18" on="0"/>
        <pt x="232" y="-15" on="0"/>
        <pt x="184" y="-10" on="0"/>
        <pt x="166" y="-6" on="1"/>
        <pt x="166" y="242" on="1"/>
        <pt x="203" y="232" on="0"/>
        <pt x="288" y="221" on="0"/>
        <pt x="332" y="221" on="1"/>
        <pt x="467" y="221" on="0"/>
        <pt x="641" y="288" on="0"/>
        <pt x="743" y="409" on="0"/>
        <pt x="786" y="577" on="0"/>
        <pt x="791" y="678" on="1"/>
        <pt x="778" y="678" on="1"/>
        <pt x="758" y="642" on="0"/>
        <pt x="702" y="580" on="0"/>
        <pt x="626" y="534" on="0"/>
        <pt x="530" y="508" on="0"/>
        <pt x="471" y="508" on="1"/>
        <pt x="376" y="508" on="0"/>
        <pt x="224" y="570" on="0"/>
        <pt x="119" y="688" on="0"/>
        <pt x="63" y="860" on="0"/>
        <pt x="63" y="971" on="1"/>
        <pt x="63" y="1090" on="0"/>
        <pt x="130" y="1278" on="0"/>
        <pt x="254" y="1409" on="0"/>
        <pt x="431" y="1479" on="0"/>
        <pt x="541" y="1479" on="1"/>
        <pt x="649" y="1479" on="0"/>
        <pt x="837" y="1402" on="0"/>
        <pt x="975" y="1244" on="0"/>
        <pt x="1055" y="1002" on="0"/>
      </contour>
      <contour>
        <pt x="547" y="1231" on="1"/>
        <pt x="506" y="1231" on="0"/>
        <pt x="438" y="1201" on="0"/>
        <pt x="389" y="1138" on="0"/>
        <pt x="362" y="1041" on="0"/>
        <pt x="362" y="975" on="1"/>
        <pt x="362" y="869" on="0"/>
        <pt x="452" y="745" on="0"/>
        <pt x="543" y="745" on="1"/>
        <pt x="589" y="745" on="0"/>
        <pt x="665" y="781" on="0"/>
        <pt x="719" y="839" on="0"/>
        <pt x="748" y="911" on="0"/>
        <pt x="748" y="948" on="1"/>
        <pt x="748" y="999" on="0"/>
        <pt x="723" y="1100" on="0"/>
        <pt x="672" y="1181" on="0"/>
        <pt x="597" y="1231" on="0"/>
      </contour>
    </TTGlyph>
    <TTGlyph name="numbersign" xMin="45" yMin="0" xMax="1278" yMax="1460">
      <contour>
        <pt x="999" y="844" on="1"/>
        <pt x="952" y="612" on="1"/>
        <pt x="1210" y="612" on="1"/>
        <pt x="1210" y="406" on="1"/>
        <pt x="913" y="406" on="1"/>
        <pt x="836" y="0" on="1"/>
        <pt x="616" y="0" on="1"/>
        <pt x="694" y="406" on="1"/>
        <pt x="500" y="406" on="1"/>
        <pt x="424" y="0" on="1"/>
        <pt x="209" y="0" on="1"/>
        <pt x="283" y="406" on="1"/>
        <pt x="45" y="406" on="1"/>
        <pt x="45" y="612" on="1"/>
        <pt x="322" y="612" on="1"/>
        <pt x="369" y="844" on="1"/>
        <pt x="117" y="844" on="1"/>
        <pt x="117" y="1053" on="1"/>
        <pt x="406" y="1053" on="1"/>
        <pt x="483" y="1460" on="1"/>
        <pt x="702" y="1460" on="1"/>
        <pt x="625" y="1053" on="1"/>
        <pt x="823" y="1053" on="1"/>
        <pt x="901" y="1460" on="1"/>
        <pt x="1116" y="1460" on="1"/>
        <pt x="1038" y="1053" on="1"/>
        <pt x="1278" y="1053" on="1"/>
        <pt x="1278" y="844" on="1"/>
      </contour>
      <contour>
        <pt x="539" y="612" on="1"/>
        <pt x="735" y="612" on="1"/>
        <pt x="782" y="844" on="1"/>
        <pt x="586" y="844" on="1"/>
      </contour>
    </TTGlyph>
    <TTGlyph name="one" xMin="92" yMin="0" xMax="817" yMax="1462">
      <contour>
        <pt x="817" y="0" on="1"/>
        <pt x="508" y="0" on="1"/>
        <pt x="508" y="846" on="1"/>
        <pt x="508" y="872" on="0"/>
        <pt x="509" y="945" on="0"/>
        <pt x="512" y="1024" on="0"/>
        <pt x="515" y="1104" on="0"/>
        <pt x="516" y="1137" on="1"/>
        <pt x="511" y="1131" on="0"/>
        <pt x="487" y="1107" on="0"/>
        <pt x="457" y="1078" on="0"/>
        <pt x="425" y="1048" on="0"/>
        <pt x="410" y="1036" on="1"/>
        <pt x="242" y="901" on="1"/>
        <pt x="92" y="1087" on="1"/>
        <pt x="563" y="1462" on="1"/>
        <pt x="817" y="1462" on="1"/>
      </contour>
    </TTGlyph>
    <TTGlyph name="parenleft" xMin="82" yMin="-324" xMax="633" yMax="1462">
      <contour>
        <pt x="82" y="561" on="1"/>
        <pt x="82" y="686" on="0"/>
        <pt x="118" y="929" on="0"/>
        <pt x="192" y="1158" on="0"/>
        <pt x="305" y="1369" on="0"/>
        <pt x="383" y="1462" on="1"/>
        <pt x="633" y="1462" on="1"/>
        <pt x="492" y="1269" on="0"/>
        <pt x="348" y="807" on="0"/>
        <pt x="348" y="563" on="1"/>
        <pt x="348" y="444" on="0"/>
        <pt x="384" y="208" on="0"/>
        <pt x="456" y="-18" on="0"/>
        <pt x="562" y="-230" on="0"/>
        <pt x="631" y="-324" on="1"/>
        <pt x="383" y="-324" on="1"/>
        <pt x="305" y="-234" on="0"/>
        <pt x="192" y="-28" on="0"/>
        <pt x="118" y="197" on="0"/>
        <pt x="82" y="437" on="0"/>
      </contour>
    </TTGlyph>
    <TTGlyph name="parenright" xMin="61" yMin="-324" xMax="612" yMax="1462">
      <contour>
        <pt x="612" y="561" on="1"/>
        <pt x="612" y="437" on="0"/>
        <pt x="576" y="197" on="0"/>
        <pt x="502" y="-28" on="0"/>
        <pt x="389" y="-234" on="0"/>
        <pt x="311" y="-324" on="1"/>
        <pt x="63" y="-324" on="1"/>
        <pt x="132" y="-230" on="0"/>
        <pt x="238" y="-18" on="0"/>
        <pt x="310" y="208" on="0"/>
        <pt x="346" y="444" on="0"/>
        <pt x="346" y="563" on="1"/>
        <pt x="346" y="807" on="0"/>
        <pt x="202" y="1269" on="0"/>
        <pt x="61" y="1462" on="1"/>
        <pt x="311" y="1462" on="1"/>
        <pt x="389" y="1369" on="0"/>
        <pt x="502" y="1158" on="0"/>
        <pt x="576" y="929" on="0"/>
        <pt x="612" y="686" on="0"/>
      </contour>
    </TTGlyph>
    <TTGlyph name="percent" xMin="63" yMin="-18" xMax="1741" yMax="1483">
      <contour>
        <pt x="315" y="1024" on="1"/>
        <pt x="315" y="897" on="0"/>
        <pt x="360" y="772" on="0"/>
        <pt x="410" y="772" on="1"/>
        <pt x="459" y="772" on="0"/>
        <pt x="506" y="896" on="0"/>
        <pt x="506" y="1024" on="1"/>
        <pt x="506" y="1274" on="0"/>
        <pt x="410" y="1274" on="1"/>
        <pt x="360" y="1274" on="0"/>
        <pt x="315" y="1151" on="0"/>
      </contour>
      <contour>
        <pt x="758" y="1026" on="1"/>
        <pt x="758" y="918" on="0"/>
        <pt x="717" y="746" on="0"/>
        <pt x="631" y="628" on="0"/>
        <pt x="499" y="565" on="0"/>
        <pt x="408" y="565" on="1"/>
        <pt x="323" y="565" on="0"/>
        <pt x="194" y="628" on="0"/>
        <pt x="107" y="746" on="0"/>
        <pt x="63" y="918" on="0"/>
        <pt x="63" y="1026" on="1"/>
        <pt x="63" y="1134" on="0"/>
        <pt x="103" y="1304" on="0"/>
        <pt x="188" y="1421" on="0"/>
        <pt x="318" y="1483" on="0"/>
        <pt x="408" y="1483" on="1"/>
        <pt x="494" y="1483" on="0"/>
        <pt x="625" y="1421" on="0"/>
        <pt x="713" y="1304" on="0"/>
        <pt x="758" y="1134" on="0"/>
      </contour>
      <contour>
        <pt x="1425" y="1462" on="1"/>
        <pt x="614" y="0" on="1"/>
        <pt x="375" y="0" on="1"/>
        <pt x="1186" y="1462" on="1"/>
      </contour>
      <contour>
        <pt x="1298" y="440" on="1"/>
        <pt x="1298" y="313" on="0"/>
        <pt x="1343" y="188" on="0"/>
        <pt x="1393" y="188" on="1"/>
        <pt x="1442" y="188" on="0"/>
        <pt x="1489" y="312" on="0"/>
        <pt x="1489" y="440" on="1"/>
        <pt x="1489" y="690" on="0"/>
        <pt x="1393" y="690" on="1"/>
        <pt x="1343" y="690" on="0"/>
        <pt x="1298" y="567" on="0"/>
      </contour>
      <contour>
        <pt x="1741" y="442" on="1"/>
        <pt x="1741" y="334" on="0"/>
        <pt x="1700" y="163" on="0"/>
        <pt x="1614" y="45" on="0"/>
        <pt x="1482" y="-18" on="0"/>
        <pt x="1391" y="-18" on="1"/>
        <pt x="1306" y="-18" on="0"/>
        <pt x="1178" y="45" on="0"/>
        <pt x="1091" y="163" on="0"/>
        <pt x="1047" y="334" on="0"/>
        <pt x="1047" y="442" on="1"/>
        <pt x="1047" y="550" on="0"/>
        <pt x="1087" y="720" on="0"/>
        <pt x="1171" y="837" on="0"/>
        <pt x="1301" y="899" on="0"/>
        <pt x="1391" y="899" on="1"/>
        <pt x="1477" y="899" on="0"/>
        <pt x="1608" y="837" on="0"/>
        <pt x="1696" y="720" on="0"/>
        <pt x="1741" y="550" on="0"/>
      </contour>
    </TTGlyph>
    <TTGlyph name="period" xMin="117" yMin="-27" xMax="467" yMax="313">
      <contour>
        <pt x="117" y="143" on="1"/>
        <pt x="117" y="190" on="0"/>
        <pt x="144" y="255" on="0"/>
        <pt x="192" y="295" on="0"/>
        <pt x="256" y="313" on="0"/>
        <pt x="293" y="313" on="1"/>
        <pt x="328" y="313" on="0"/>
        <pt x="391" y="295" on="0"/>
        <pt x="439" y="255" on="0"/>
        <pt x="467" y="190" on="0"/>
        <pt x="467" y="143" on="1"/>
        <pt x="467" y="98" on="0"/>
        <pt x="439" y="34" on="0"/>
        <pt x="391" y="-8" on="0"/>
        <pt x="328" y="-27" on="0"/>
        <pt x="293" y="-27" on="1"/>
        <pt x="256" y="-27" on="0"/>
        <pt x="192" y="-8" on="0"/>
        <pt x="144" y="34" on="0"/>
        <pt x="117" y="98" on="0"/>
      </contour>
    </TTGlyph>
    <TTGlyph name="plus" xMin="88" yMin="248" xMax="1040" yMax="1200">
      <contour>
        <pt x="455" y="612" on="1"/>
        <pt x="88" y="612" on="1"/>
        <pt x="88" y="831" on="1"/>
        <pt x="455" y="831" on="1"/>
        <pt x="455" y="1200" on="1"/>
        <pt x="674" y="1200" on="1"/>
        <pt x="674" y="831" on="1"/>
        <pt x="1040" y="831" on="1"/>
        <pt x="1040" y="612" on="1"/>
        <pt x="674" y="612" on="1"/>
        <pt x="674" y="248" on="1"/>
        <pt x="455" y="248" on="1"/>
      </contour>
    </TTGlyph>
    <TTGlyph name="question" xMin="25" yMin="-27" xMax="885" yMax="1483">
      <contour>
        <pt x="264" y="485" on="1"/>
        <pt x="264" y="559" on="1"/>
        <pt x="264" y="610" on="0"/>
        <pt x="285" y="693" on="0"/>
        <pt x="328" y="768" on="0"/>
        <pt x="396" y="839" on="0"/>
        <pt x="444" y="877" on="1"/>
        <pt x="486" y="910" on="0"/>
        <pt x="544" y="962" on="0"/>
        <pt x="580" y="1013" on="0"/>
        <pt x="596" y="1069" on="0"/>
        <pt x="596" y="1106" on="1"/>
        <pt x="596" y="1163" on="0"/>
        <pt x="519" y="1237" on="0"/>
        <pt x="440" y="1237" on="1"/>
        <pt x="371" y="1237" on="0"/>
        <pt x="212" y="1179" on="0"/>
        <pt x="127" y="1137" on="1"/>
        <pt x="25" y="1358" on="1"/>
        <pt x="68" y="1383" on="0"/>
        <pt x="169" y="1428" on="0"/>
        <pt x="278" y="1463" on="0"/>
        <pt x="390" y="1483" on="0"/>
        <pt x="444" y="1483" on="1"/>
        <pt x="546" y="1483" on="0"/>
        <pt x="710" y="1434" on="0"/>
        <pt x="824" y="1340" on="0"/>
        <pt x="885" y="1206" on="0"/>
        <pt x="885" y="1120" on="1"/>
        <pt x="885" y="1057" on="0"/>
        <pt x="857" y="958" on="0"/>
        <pt x="802" y="873" on="0"/>
        <pt x="719" y="794" on="0"/>
        <pt x="664" y="750" on="1"/>
        <pt x="622" y="717" on="0"/>
        <pt x="569" y="668" on="0"/>
        <pt x="539" y="624" on="0"/>
        <pt x="528" y="577" on="0"/>
        <pt x="528" y="545" on="1"/>
        <pt x="528" y="485" on="1"/>
      </contour>
      <contour>
        <pt x="231" y="143" on="1"/>
        <pt x="231" y="190" on="0"/>
        <pt x="258" y="255" on="0"/>
        <pt x="306" y="295" on="0"/>
        <pt x="371" y="313" on="0"/>
        <pt x="408" y="313" on="1"/>
        <pt x="443" y="313" on="0"/>
        <pt x="506" y="295" on="0"/>
        <pt x="554" y="255" on="0"/>
        <pt x="582" y="190" on="0"/>
        <pt x="582" y="143" on="1"/>
        <pt x="582" y="98" on="0"/>
        <pt x="554" y="34" on="0"/>
        <pt x="506" y="-8" on="0"/>
        <pt x="443" y="-27" on="0"/>
        <pt x="408" y="-27" on="1"/>
        <pt x="371" y="-27" on="0"/>
        <pt x="306" y="-8" on="0"/>
        <pt x="258" y="34" on="0"/>
        <pt x="231" y="98" on="0"/>
      </contour>
    </TTGlyph>
    <TTGlyph name="quotedbl" xMin="133" yMin="934" xMax="834" yMax="1462">
      <contour>
        <pt x="412" y="1462" on="1"/>
        <pt x="371" y="934" on="1"/>
        <pt x="174" y="934" on="1"/>
        <pt x="133" y="1462" on="1"/>
      </contour>
      <contour>
        <pt x="834" y="1462" on="1"/>
        <pt x="793" y="934" on="1"/>
        <pt x="596" y="934" on="1"/>
        <pt x="555" y="1462" on="1"/>
      </contour>
    </TTGlyph>
    <TTGlyph name="quotesingle" xMin="133" yMin="934" xMax="412" yMax="1462">
      <contour>
        <pt x="412" y="1462" on="1"/>
        <pt x="371" y="934" on="1"/>
        <pt x="174" y="934" on="1"/>
        <pt x="133" y="1462" on="1"/>
      </contour>
    </TTGlyph>
    <TTGlyph name="semicolon" xMin="63" yMin="-264" xMax="467" yMax="1139">
      <contour>
        <pt x="444" y="238" on="1"/>
        <pt x="459" y="215" on="1"/>
        <pt x="445" y="161" on="0"/>
        <pt x="406" y="39" on="0"/>
        <pt x="359" y="-85" on="0"/>
        <pt x="308" y="-208" on="0"/>
        <pt x="283" y="-264" on="1"/>
        <pt x="63" y="-264" on="1"/>
        <pt x="78" y="-203" on="0"/>
        <pt x="107" y="-71" on="0"/>
        <pt x="134" y="60" on="0"/>
        <pt x="156" y="185" on="0"/>
        <pt x="164" y="238" on="1"/>
      </contour>
      <contour>
        <pt x="117" y="969" on="1"/>
        <pt x="117" y="1016" on="0"/>
        <pt x="144" y="1081" on="0"/>
        <pt x="192" y="1121" on="0"/>
        <pt x="256" y="1139" on="0"/>
        <pt x="293" y="1139" on="1"/>
        <pt x="328" y="1139" on="0"/>
        <pt x="391" y="1121" on="0"/>
        <pt x="439" y="1081" on="0"/>
        <pt x="467" y="1016" on="0"/>
        <pt x="467" y="969" on="1"/>
        <pt x="467" y="924" on="0"/>
        <pt x="439" y="859" on="0"/>
        <pt x="391" y="818" on="0"/>
        <pt x="328" y="799" on="0"/>
        <pt x="293" y="799" on="1"/>
        <pt x="256" y="799" on="0"/>
        <pt x="192" y="818" on="0"/>
        <pt x="144" y="859" on="0"/>
        <pt x="117" y="924" on="0"/>
      </contour>
    </TTGlyph>
    <TTGlyph name="seven" xMin="55" yMin="0" xMax="1063" yMax="1460">
      <contour>
        <pt x="207" y="0" on="1"/>
        <pt x="727" y="1200" on="1"/>
        <pt x="55" y="1200" on="1"/>
        <pt x="55" y="1460" on="1"/>
        <pt x="1063" y="1460" on="1"/>
        <pt x="1063" y="1266" on="1"/>
        <pt x="530" y="0" on="1"/>
      </contour>
    </TTGlyph>
    <TTGlyph name="six" xMin="76" yMin="-20" xMax="1067" yMax="1479">
      <contour>
        <pt x="76" y="621" on="1"/>
        <pt x="76" y="726" on="0"/>
        <pt x="99" y="934" on="0"/>
        <pt x="158" y="1125" on="0"/>
        <pt x="259" y="1289" on="0"/>
        <pt x="414" y="1410" on="0"/>
        <pt x="631" y="1479" on="0"/>
        <pt x="776" y="1479" on="1"/>
        <pt x="797" y="1479" on="0"/>
        <pt x="847" y="1477" on="0"/>
        <pt x="898" y="1474" on="0"/>
        <pt x="946" y="1468" on="0"/>
        <pt x="965" y="1464" on="1"/>
        <pt x="965" y="1217" on="1"/>
        <pt x="927" y="1226" on="0"/>
        <pt x="842" y="1237" on="0"/>
        <pt x="799" y="1237" on="1"/>
        <pt x="664" y="1237" on="0"/>
        <pt x="490" y="1170" on="0"/>
        <pt x="388" y="1050" on="0"/>
        <pt x="345" y="882" on="0"/>
        <pt x="340" y="780" on="1"/>
        <pt x="352" y="780" on="1"/>
        <pt x="372" y="816" on="0"/>
        <pt x="429" y="879" on="0"/>
        <pt x="505" y="924" on="0"/>
        <pt x="600" y="950" on="0"/>
        <pt x="659" y="950" on="1"/>
        <pt x="754" y="950" on="0"/>
        <pt x="906" y="888" on="0"/>
        <pt x="1011" y="770" on="0"/>
        <pt x="1067" y="598" on="0"/>
        <pt x="1067" y="487" on="1"/>
        <pt x="1067" y="368" on="0"/>
        <pt x="1000" y="180" on="0"/>
        <pt x="876" y="49" on="0"/>
        <pt x="700" y="-20" on="0"/>
        <pt x="590" y="-20" on="1"/>
        <pt x="482" y="-20" on="0"/>
        <pt x="294" y="57" on="0"/>
        <pt x="155" y="215" on="0"/>
        <pt x="76" y="456" on="0"/>
      </contour>
      <contour>
        <pt x="584" y="227" on="1"/>
        <pt x="625" y="227" on="0"/>
        <pt x="692" y="258" on="0"/>
        <pt x="741" y="321" on="0"/>
        <pt x="768" y="417" on="0"/>
        <pt x="768" y="483" on="1"/>
        <pt x="768" y="590" on="0"/>
        <pt x="679" y="713" on="0"/>
        <pt x="588" y="713" on="1"/>
        <pt x="542" y="713" on="0"/>
        <pt x="466" y="677" on="0"/>
        <pt x="412" y="619" on="0"/>
        <pt x="383" y="547" on="0"/>
        <pt x="383" y="510" on="1"/>
        <pt x="383" y="459" on="0"/>
        <pt x="408" y="358" on="0"/>
        <pt x="459" y="277" on="0"/>
        <pt x="534" y="227" on="0"/>
      </contour>
    </TTGlyph>
    <TTGlyph name="slash" xMin="14" yMin="0" xMax="836" yMax="1462">
      <contour>
        <pt x="836" y="1462" on="1"/>
        <pt x="291" y="0" on="1"/>
        <pt x="14" y="0" on="1"/>
        <pt x="559" y="1462" on="1"/>
      </contour>
    </TTGlyph>
    <TTGlyph name="three" xMin="57" yMin="-20" xMax="1049" yMax="1483">
      <contour>
        <pt x="1006" y="1135" on="1"/>
        <pt x="1006" y="1059" on="0"/>
        <pt x="957" y="938" on="0"/>
        <pt x="872" y="847" on="0"/>
        <pt x="757" y="786" on="0"/>
        <pt x="690" y="770" on="1"/>
        <pt x="690" y="764" on="1"/>
        <pt x="867" y="742" on="0"/>
        <pt x="1049" y="571" on="0"/>
        <pt x="1049" y="426" on="1"/>
        <pt x="1049" y="330" on="0"/>
        <pt x="980" y="167" on="0"/>
        <pt x="837" y="47" on="0"/>
        <pt x="620" y="-20" on="0"/>
        <pt x="473" y="-20" on="1"/>
        <pt x="355" y="-20" on="0"/>
        <pt x="147" y="19" on="0"/>
        <pt x="57" y="59" on="1"/>
        <pt x="57" y="322" on="1"/>
        <pt x="102" y="298" on="0"/>
        <pt x="202" y="262" on="0"/>
        <pt x="302" y="237" on="0"/>
        <pt x="399" y="225" on="0"/>
        <pt x="442" y="225" on="1"/>
        <pt x="528" y="225" on="0"/>
        <pt x="642" y="257" on="0"/>
        <pt x="710" y="315" on="0"/>
        <pt x="739" y="396" on="0"/>
        <pt x="739" y="444" on="1"/>
        <pt x="739" y="489" on="0"/>
        <pt x="702" y="562" on="0"/>
        <pt x="619" y="613" on="0"/>
        <pt x="485" y="641" on="0"/>
        <pt x="387" y="641" on="1"/>
        <pt x="283" y="641" on="1"/>
        <pt x="283" y="858" on="1"/>
        <pt x="385" y="858" on="1"/>
        <pt x="477" y="858" on="0"/>
        <pt x="599" y="891" on="0"/>
        <pt x="672" y="948" on="0"/>
        <pt x="702" y="1024" on="0"/>
        <pt x="702" y="1067" on="1"/>
        <pt x="702" y="1145" on="0"/>
        <pt x="605" y="1233" on="0"/>
        <pt x="500" y="1233" on="1"/>
        <pt x="452" y="1233" on="0"/>
        <pt x="369" y="1214" on="0"/>
        <pt x="298" y="1185" on="0"/>
        <pt x="239" y="1150" on="0"/>
        <pt x="215" y="1133" on="1"/>
        <pt x="59" y="1339" on="1"/>
        <pt x="101" y="1370" on="0"/>
        <pt x="200" y="1422" on="0"/>
        <pt x="316" y="1461" on="0"/>
        <pt x="450" y="1483" on="0"/>
        <pt x="526" y="1483" on="1"/>
        <pt x="634" y="1483" on="0"/>
        <pt x="811" y="1436" on="0"/>
        <pt x="937" y="1347" on="0"/>
        <pt x="1006" y="1218" on="0"/>
      </contour>
    </TTGlyph>
    <TTGlyph name="two" xMin="78" yMin="0" xMax="1063" yMax="1483">
      <contour>
        <pt x="1063" y="0" on="1"/>
        <pt x="82" y="0" on="1"/>
        <pt x="82" y="215" on="1"/>
        <pt x="426" y="586" on="1"/>
        <pt x="491" y="656" on="0"/>
        <pt x="597" y="774" on="0"/>
        <pt x="673" y="886" on="0"/>
        <pt x="715" y="1002" on="0"/>
        <pt x="715" y="1069" on="1"/>
        <pt x="715" y="1143" on="0"/>
        <pt x="626" y="1225" on="0"/>
        <pt x="551" y="1225" on="1"/>
        <pt x="472" y="1225" on="0"/>
        <pt x="326" y="1147" on="0"/>
        <pt x="246" y="1075" on="1"/>
        <pt x="78" y="1274" on="1"/>
        <pt x="123" y="1315" on="0"/>
        <pt x="221" y="1390" on="0"/>
        <pt x="339" y="1448" on="0"/>
        <pt x="481" y="1483" on="0"/>
        <pt x="569" y="1483" on="1"/>
        <pt x="674" y="1483" on="0"/>
        <pt x="841" y="1425" on="0"/>
        <pt x="959" y="1318" on="0"/>
        <pt x="1022" y="1166" on="0"/>
        <pt x="1022" y="1071" on="1"/>
        <pt x="1022" y="985" on="0"/>
        <pt x="962" y="828" on="0"/>
        <pt x="858" y="677" on="0"/>
        <pt x="721" y="528" on="0"/>
        <pt x="643" y="451" on="1"/>
        <pt x="467" y="274" on="1"/>
        <pt x="467" y="260" on="1"/>
        <pt x="1063" y="260" on="1"/>
      </contour>
    </TTGlyph>
    <TTGlyph name="uni00AD" xMin="61" yMin="424" xMax="598" yMax="674">
      <contour>
        <pt x="61" y="424" on="1"/>
        <pt x="61" y="674" on="1"/>
        <pt x="598" y="674" on="1"/>
        <pt x="598" y="424" on="1"/>
      </contour>
    </TTGlyph>
    <TTGlyph name="uni1780" xMin="150" yMin="0" xMax="1250" yMax="1500">
      <contour>
        <pt x="200" y="0" on="1"/>
        <pt x="200" y="750" on="1"/>
        <pt x="200" y="1050" on="0"/>
        <pt x="700" y="1050" on="1"/>
        <pt x="1200" y="1050" on="0"/>
        <pt x="1200" y="750" on="1"/>
        <pt x="1200" y="0" on="1"/>
        <pt x="900" y="0" on="1"/>
        <pt x="900" y="750" on="1"/>
        <pt x="900" y="950" on="0"/>
        <pt x="700" y="950" on="1"/>
        <pt x="500" y="950" on="0"/>
        <pt x="500" y="750" on="1"/>
        <pt x="500" y="0" on="1"/>
      </contour>
      <contour>
        <pt x="150" y="1127" on="1"/>
        <pt x="150" y="1202" on="1"/>
        <pt x="150" y="1254" on="0"/>
        <pt x="214" y="1315" on="1"/>
        <pt x="279" y="1376" on="1"/>
        <pt x="407" y="1500" on="0"/>
        <pt x="439" y="1500" on="1"/>
        <pt x="475" y="1500" on="0"/>
        <pt x="581" y="1388" on="1"/>
        <pt x="634" y="1332" on="1"/>
        <pt x="661" y="1303" on="0"/>
        <pt x="690" y="1303" on="1"/>
        <pt x="715" y="1303" on="0"/>
        <pt x="740" y="1332" on="1"/>
        <pt x="789" y="1388" on="1"/>
        <pt x="889" y="1500" on="0"/>
        <pt x="924" y="1500" on="1"/>
        <pt x="958" y="1500" on="0"/>
        <pt x="1014" y="1438" on="1"/>
        <pt x="1130" y="1313" on="1"/>
        <pt x="1165" y="1276" on="0"/>
        <pt x="1200" y="1276" on="1"/>
        <pt x="1225" y="1276" on="0"/>
        <pt x="1250" y="1294" on="1"/>
        <pt x="1181" y="1097" on="0"/>
        <pt x="1117" y="1097" on="1"/>
        <pt x="1051" y="1097" on="0"/>
        <pt x="899" y="1238" on="0"/>
        <pt x="867" y="1238" on="1"/>
        <pt x="825" y="1238" on="0"/>
        <pt x="710" y="1097" on="0"/>
        <pt x="661" y="1097" on="1"/>
        <pt x="590" y="1097" on="0"/>
        <pt x="420" y="1238" on="0"/>
        <pt x="383" y="1238" on="1"/>
        <pt x="341" y="1238" on="0"/>
        <pt x="297" y="1194" on="0"/>
        <pt x="297" y="1158" on="1"/>
        <pt x="297" y="1128" on="0"/>
        <pt x="432" y="1058" on="1"/>
        <pt x="305" y="967" on="1"/>
        <pt x="150" y="1028" on="0"/>
      </contour>
    </TTGlyph>
    <TTGlyph name="uni1780_17B6" xMin="100" yMin="0" xMax="1900" yMax="1500">
      <contour>
        <pt x="200" y="0" on="1"/>
        <pt x="200" y="750" on="1"/>
        <pt x="200" y="1050" on="0"/>
        <pt x="700" y="1050" on="1"/>
        <pt x="1200" y="1050" on="0"/>
        <pt x="1200" y="750" on="1"/>
        <pt x="1200" y="0" on="1"/>
        <pt x="900" y="0" on="1"/>
        <pt x="900" y="750" on="1"/>
        <pt x="900" y="950" on="0"/>
        <pt x="700" y="950" on="1"/>
        <pt x="500" y="950" on="0"/>
        <pt x="500" y="750" on="1"/>
        <pt x="500" y="0" on="1"/>
      </contour>
      <contour>
        <pt x="468" y="1500" on="0"/>
        <pt x="556" y="1500" on="1"/>
        <pt x="644" y="1500" on="0"/>
        <pt x="815" y="1383" on="1"/>
        <pt x="899" y="1326" on="1"/>
        <pt x="941" y="1300" on="0"/>
        <pt x="989" y="1300" on="1"/>
        <pt x="1045" y="1300" on="0"/>
        <pt x="1177" y="1421" on="1"/>
        <pt x="1263" y="1500" on="0"/>
        <pt x="1351" y="1500" on="1"/>
        <pt x="1439" y="1500" on="0"/>
        <pt x="1900" y="1189" on="0"/>
        <pt x="1900" y="1000" on="1"/>
        <pt x="1900" y="0" on="1"/>
        <pt x="1600" y="0" on="1"/>
        <pt x="1600" y="1000" on="1"/>
        <pt x="1600" y="1082" on="0"/>
        <pt x="1327" y="1250" on="0"/>
        <pt x="1269" y="1250" on="1"/>
        <pt x="1214" y="1250" on="0"/>
        <pt x="996" y="1080" on="0"/>
        <pt x="915" y="1080" on="1"/>
        <pt x="831" y="1080" on="0"/>
        <pt x="580" y="1250" on="0"/>
        <pt x="538" y="1250" on="1"/>
        <pt x="456" y="1250" on="0"/>
        <pt x="327" y="1161" on="0"/>
        <pt x="327" y="1125" on="1"/>
        <pt x="327" y="1081" on="0"/>
        <pt x="470" y="1050" on="1"/>
        <pt x="271" y="974" on="1"/>
        <pt x="100" y="1044" on="0"/>
        <pt x="100" y="1140" on="1"/>
        <pt x="100" y="1171" on="1"/>
        <pt x="100" y="1236" on="0"/>
      </contour>
    </TTGlyph>
    <TTGlyph name="uni1780_17C5" xMin="100" yMin="0" xMax="1950" yMax="1900">
      <contour>
        <pt x="200" y="0" on="1"/>
        <pt x="200" y="750" on="1"/>
        <pt x="200" y="1050" on="0"/>
        <pt x="700" y="1050" on="1"/>
        <pt x="1200" y="1050" on="0"/>
        <pt x="1200" y="750" on="1"/>
        <pt x="1200" y="0" on="1"/>
        <pt x="900" y="0" on="1"/>
        <pt x="900" y="750" on="1"/>
        <pt x="900" y="950" on="0"/>
        <pt x="700" y="950" on="1"/>
        <pt x="500" y="950" on="0"/>
        <pt x="500" y="750" on="1"/>
        <pt x="500" y="0" on="1"/>
      </contour>
      <contour>
        <pt x="1857" y="1156" on="1"/>
        <pt x="1900" y="1081" on="0"/>
        <pt x="1900" y="1000" on="1"/>
        <pt x="1900" y="0" on="1"/>
        <pt x="1600" y="0" on="1"/>
        <pt x="1600" y="1000" on="1"/>
        <pt x="1600" y="1082" on="0"/>
        <pt x="1327" y="1250" on="0"/>
        <pt x="1269" y="1250" on="1"/>
        <pt x="1214" y="1250" on="0"/>
        <pt x="996" y="1080" on="0"/>
        <pt x="915" y="1080" on="1"/>
        <pt x="831" y="1080" on="0"/>
        <pt x="580" y="1250" on="0"/>
        <pt x="538" y="1250" on="1"/>
        <pt x="456" y="1250" on="0"/>
        <pt x="327" y="1161" on="0"/>
        <pt x="327" y="1125" on="1"/>
        <pt x="327" y="1081" on="0"/>
        <pt x="470" y="1050" on="1"/>
        <pt x="271" y="974" on="1"/>
        <pt x="100" y="1044" on="0"/>
        <pt x="100" y="1140" on="1"/>
        <pt x="100" y="1171" on="1"/>
        <pt x="100" y="1236" on="0"/>
        <pt x="468" y="1500" on="0"/>
        <pt x="556" y="1500" on="1"/>
        <pt x="644" y="1500" on="0"/>
        <pt x="815" y="1383" on="1"/>
        <pt x="899" y="1326" on="1"/>
        <pt x="941" y="1300" on="0"/>
        <pt x="989" y="1300" on="1"/>
        <pt x="1045" y="1300" on="0"/>
        <pt x="1177" y="1421" on="1"/>
        <pt x="1263" y="1500" on="0"/>
        <pt x="1351" y="1500" on="1"/>
        <pt x="1435" y="1500" on="0"/>
        <pt x="1650" y="1358" on="1"/>
        <pt x="1650" y="1700" on="1"/>
        <pt x="1650" y="1800" on="0"/>
        <pt x="1600" y="1800" on="1"/>
        <pt x="1600" y="1900" on="0"/>
        <pt x="1775" y="1900" on="1"/>
        <pt x="1950" y="1900" on="0"/>
        <pt x="1950" y="1700" on="1"/>
        <pt x="1950" y="1400" on="1"/>
        <pt x="1950" y="1322" on="0"/>
      </contour>
    </TTGlyph>
    <TTGlyph name="uni1781" xMin="200" yMin="0" xMax="1200" yMax="1500">
      <contour>
        <pt x="500" y="1025" on="1"/>
        <pt x="500" y="950" on="1"/>
        <pt x="536" y="950" on="0"/>
        <pt x="536" y="1000" on="1"/>
        <pt x="536" y="1025" on="0"/>
      </contour>
      <contour>
        <pt x="1200" y="300" on="1"/>
        <pt x="1200" y="0" on="0"/>
        <pt x="700" y="0" on="1"/>
        <pt x="200" y="0" on="0"/>
        <pt x="200" y="300" on="1"/>
        <pt x="200" y="567" on="1"/>
        <pt x="550" y="724" on="1"/>
        <pt x="900" y="880" on="0"/>
        <pt x="900" y="1050" on="1"/>
        <pt x="900" y="1200" on="1"/>
        <pt x="900" y="1400" on="0"/>
        <pt x="700" y="1400" on="1"/>
        <pt x="500" y="1400" on="0"/>
        <pt x="500" y="1200" on="1"/>
        <pt x="500" y="1125" on="1"/>
        <pt x="562" y="1125" on="0"/>
        <pt x="599" y="1094" on="1"/>
        <pt x="636" y="1062" on="0"/>
        <pt x="636" y="1000" on="1"/>
        <pt x="636" y="850" on="0"/>
        <pt x="488" y="850" on="1"/>
        <pt x="200" y="850" on="0"/>
        <pt x="200" y="950" on="1"/>
        <pt x="200" y="1200" on="1"/>
        <pt x="200" y="1500" on="0"/>
        <pt x="700" y="1500" on="1"/>
        <pt x="1200" y="1500" on="0"/>
        <pt x="1200" y="1200" on="1"/>
        <pt x="1200" y="1050" on="1"/>
        <pt x="1200" y="860" on="0"/>
        <pt x="675" y="626" on="1"/>
        <pt x="500" y="548" on="1"/>
        <pt x="500" y="300" on="1"/>
        <pt x="500" y="100" on="0"/>
        <pt x="700" y="100" on="1"/>
        <pt x="900" y="100" on="0"/>
        <pt x="900" y="300" on="1"/>
        <pt x="900" y="568" on="1"/>
        <pt x="1200" y="659" on="1"/>
      </contour>
    </TTGlyph>
    <TTGlyph name="uni1781_17B6" xMin="200" yMin="0" xMax="1900" yMax="1500">
      <contour>
        <pt x="500" y="1025" on="1"/>
        <pt x="500" y="950" on="1"/>
        <pt x="536" y="950" on="0"/>
        <pt x="536" y="1000" on="1"/>
        <pt x="536" y="1025" on="0"/>
      </contour>
      <contour>
        <pt x="1160" y="1346" on="1"/>
        <pt x="1325" y="1500" on="0"/>
        <pt x="1435" y="1500" on="1"/>
        <pt x="1536" y="1500" on="0"/>
        <pt x="1900" y="1284" on="0"/>
        <pt x="1900" y="1100" on="1"/>
        <pt x="1900" y="0" on="1"/>
        <pt x="1600" y="0" on="1"/>
        <pt x="1600" y="1100" on="1"/>
        <pt x="1600" y="1179" on="0"/>
        <pt x="1440" y="1263" on="0"/>
        <pt x="1365" y="1263" on="1"/>
        <pt x="1319" y="1263" on="0"/>
        <pt x="1200" y="1190" on="1"/>
        <pt x="1200" y="1050" on="1"/>
        <pt x="1200" y="860" on="0"/>
        <pt x="675" y="626" on="1"/>
        <pt x="500" y="548" on="1"/>
        <pt x="500" y="300" on="1"/>
        <pt x="500" y="100" on="0"/>
        <pt x="700" y="100" on="1"/>
        <pt x="900" y="100" on="0"/>
        <pt x="900" y="300" on="1"/>
        <pt x="900" y="568" on="1"/>
        <pt x="1200" y="659" on="1"/>
        <pt x="1200" y="300" on="1"/>
        <pt x="1200" y="0" on="0"/>
        <pt x="700" y="0" on="1"/>
        <pt x="200" y="0" on="0"/>
        <pt x="200" y="300" on="1"/>
        <pt x="200" y="567" on="1"/>
        <pt x="550" y="724" on="1"/>
        <pt x="900" y="880" on="0"/>
        <pt x="900" y="1050" on="1"/>
        <pt x="900" y="1200" on="1"/>
        <pt x="900" y="1400" on="0"/>
        <pt x="700" y="1400" on="1"/>
        <pt x="500" y="1400" on="0"/>
        <pt x="500" y="1200" on="1"/>
        <pt x="500" y="1125" on="1"/>
        <pt x="562" y="1125" on="0"/>
        <pt x="599" y="1094" on="1"/>
        <pt x="636" y="1062" on="0"/>
        <pt x="636" y="1000" on="1"/>
        <pt x="636" y="850" on="0"/>
        <pt x="488" y="850" on="1"/>
        <pt x="200" y="850" on="0"/>
        <pt x="200" y="950" on="1"/>
        <pt x="200" y="1200" on="1"/>
        <pt x="200" y="1500" on="0"/>
        <pt x="700" y="1500" on="1"/>
        <pt x="1059" y="1500" on="0"/>
      </contour>
    </TTGlyph>
    <TTGlyph name="uni1781_17C5" xMin="200" yMin="0" xMax="1950" yMax="1900">
      <contour>
        <pt x="500" y="1025" on="1"/>
        <pt x="500" y="950" on="1"/>
        <pt x="536" y="950" on="0"/>
        <pt x="536" y="1000" on="1"/>
        <pt x="536" y="1025" on="0"/>
      </contour>
      <contour>
        <pt x="1883" y="1204" on="1"/>
        <pt x="1900" y="1156" on="0"/>
        <pt x="1900" y="1100" on="1"/>
        <pt x="1900" y="0" on="1"/>
        <pt x="1600" y="0" on="1"/>
        <pt x="1600" y="1100" on="1"/>
        <pt x="1600" y="1179" on="0"/>
        <pt x="1440" y="1263" on="0"/>
        <pt x="1365" y="1263" on="1"/>
        <pt x="1319" y="1263" on="0"/>
        <pt x="1200" y="1190" on="1"/>
        <pt x="1200" y="1050" on="1"/>
        <pt x="1200" y="860" on="0"/>
        <pt x="675" y="626" on="1"/>
        <pt x="500" y="548" on="1"/>
        <pt x="500" y="300" on="1"/>
        <pt x="500" y="100" on="0"/>
        <pt x="700" y="100" on="1"/>
        <pt x="900" y="100" on="0"/>
        <pt x="900" y="300" on="1"/>
        <pt x="900" y="568" on="1"/>
        <pt x="1200" y="659" on="1"/>
        <pt x="1200" y="300" on="1"/>
        <pt x="1200" y="0" on="0"/>
        <pt x="700" y="0" on="1"/>
        <pt x="200" y="0" on="0"/>
        <pt x="200" y="300" on="1"/>
        <pt x="200" y="567" on="1"/>
        <pt x="550" y="724" on="1"/>
        <pt x="900" y="880" on="0"/>
        <pt x="900" y="1050" on="1"/>
        <pt x="900" y="1200" on="1"/>
        <pt x="900" y="1400" on="0"/>
        <pt x="700" y="1400" on="1"/>
        <pt x="500" y="1400" on="0"/>
        <pt x="500" y="1200" on="1"/>
        <pt x="500" y="1125" on="1"/>
        <pt x="562" y="1125" on="0"/>
        <pt x="599" y="1094" on="1"/>
        <pt x="636" y="1062" on="0"/>
        <pt x="636" y="1000" on="1"/>
        <pt x="636" y="850" on="0"/>
        <pt x="488" y="850" on="1"/>
        <pt x="200" y="850" on="0"/>
        <pt x="200" y="950" on="1"/>
        <pt x="200" y="1200" on="1"/>
        <pt x="200" y="1500" on="0"/>
        <pt x="700" y="1500" on="1"/>
        <pt x="1059" y="1500" on="0"/>
        <pt x="1160" y="1346" on="1"/>
        <pt x="1325" y="1500" on="0"/>
        <pt x="1435" y="1500" on="1"/>
        <pt x="1516" y="1500" on="0"/>
        <pt x="1650" y="1430" on="1"/>
        <pt x="1650" y="1700" on="1"/>
        <pt x="1650" y="1800" on="0"/>
        <pt x="1600" y="1800" on="1"/>
        <pt x="1600" y="1900" on="0"/>
        <pt x="1775" y="1900" on="1"/>
        <pt x="1950" y="1900" on="0"/>
        <pt x="1950" y="1700" on="1"/>
        <pt x="1950" y="1400" on="1"/>
        <pt x="1950" y="1333" on="0"/>
      </contour>
    </TTGlyph>
    <TTGlyph name="uni1782" xMin="150" yMin="0" xMax="1250" yMax="1500">
      <contour>
        <pt x="150" y="1127" on="1"/>
        <pt x="150" y="1202" on="1"/>
        <pt x="150" y="1254" on="0"/>
        <pt x="214" y="1315" on="1"/>
        <pt x="279" y="1376" on="1"/>
        <pt x="407" y="1500" on="0"/>
        <pt x="439" y="1500" on="1"/>
        <pt x="475" y="1500" on="0"/>
        <pt x="581" y="1388" on="1"/>
        <pt x="634" y="1332" on="1"/>
        <pt x="661" y="1303" on="0"/>
        <pt x="690" y="1303" on="1"/>
        <pt x="715" y="1303" on="0"/>
        <pt x="740" y="1332" on="1"/>
        <pt x="789" y="1388" on="1"/>
        <pt x="889" y="1500" on="0"/>
        <pt x="924" y="1500" on="1"/>
        <pt x="958" y="1500" on="0"/>
        <pt x="1014" y="1438" on="1"/>
        <pt x="1130" y="1313" on="1"/>
        <pt x="1165" y="1276" on="0"/>
        <pt x="1200" y="1276" on="1"/>
        <pt x="1225" y="1276" on="0"/>
        <pt x="1250" y="1294" on="1"/>
        <pt x="1181" y="1097" on="0"/>
        <pt x="1117" y="1097" on="1"/>
        <pt x="1051" y="1097" on="0"/>
        <pt x="899" y="1238" on="0"/>
        <pt x="867" y="1238" on="1"/>
        <pt x="825" y="1238" on="0"/>
        <pt x="710" y="1097" on="0"/>
        <pt x="661" y="1097" on="1"/>
        <pt x="590" y="1097" on="0"/>
        <pt x="420" y="1238" on="0"/>
        <pt x="383" y="1238" on="1"/>
        <pt x="341" y="1238" on="0"/>
        <pt x="297" y="1194" on="0"/>
        <pt x="297" y="1158" on="1"/>
        <pt x="297" y="1128" on="0"/>
        <pt x="432" y="1058" on="1"/>
        <pt x="305" y="967" on="1"/>
        <pt x="150" y="1028" on="0"/>
      </contour>
      <contour>
        <pt x="200" y="0" on="1"/>
        <pt x="200" y="750" on="1"/>
        <pt x="200" y="1050" on="0"/>
        <pt x="700" y="1050" on="1"/>
        <pt x="1200" y="1050" on="0"/>
        <pt x="1200" y="750" on="1"/>
        <pt x="1200" y="0" on="1"/>
        <pt x="900" y="0" on="1"/>
        <pt x="900" y="750" on="1"/>
        <pt x="900" y="950" on="0"/>
        <pt x="700" y="950" on="1"/>
        <pt x="500" y="950" on="0"/>
        <pt x="500" y="750" on="1"/>
        <pt x="500" y="375" on="1"/>
        <pt x="573" y="500" on="0"/>
        <pt x="662" y="500" on="1"/>
        <pt x="800" y="500" on="0"/>
        <pt x="800" y="354" on="1"/>
        <pt x="800" y="257" on="0"/>
        <pt x="723" y="257" on="1"/>
        <pt x="666" y="257" on="0"/>
        <pt x="666" y="297" on="1"/>
        <pt x="666" y="337" on="0"/>
        <pt x="642" y="337" on="1"/>
        <pt x="618" y="337" on="0"/>
        <pt x="568" y="236" on="1"/>
        <pt x="519" y="137" on="1"/>
        <pt x="500" y="99" on="1"/>
        <pt x="500" y="0" on="1"/>
      </contour>
    </TTGlyph>
    <TTGlyph name="uni1782_17B6" xMin="100" yMin="0" xMax="1900" yMax="1500">
      <contour>
        <pt x="468" y="1500" on="0"/>
        <pt x="556" y="1500" on="1"/>
        <pt x="644" y="1500" on="0"/>
        <pt x="815" y="1383" on="1"/>
        <pt x="899" y="1326" on="1"/>
        <pt x="941" y="1300" on="0"/>
        <pt x="989" y="1300" on="1"/>
        <pt x="1045" y="1300" on="0"/>
        <pt x="1177" y="1421" on="1"/>
        <pt x="1263" y="1500" on="0"/>
        <pt x="1351" y="1500" on="1"/>
        <pt x="1439" y="1500" on="0"/>
        <pt x="1900" y="1189" on="0"/>
        <pt x="1900" y="1000" on="1"/>
        <pt x="1900" y="0" on="1"/>
        <pt x="1600" y="0" on="1"/>
        <pt x="1600" y="1000" on="1"/>
        <pt x="1600" y="1082" on="0"/>
        <pt x="1327" y="1250" on="0"/>
        <pt x="1269" y="1250" on="1"/>
        <pt x="1214" y="1250" on="0"/>
        <pt x="996" y="1080" on="0"/>
        <pt x="915" y="1080" on="1"/>
        <pt x="831" y="1080" on="0"/>
        <pt x="580" y="1250" on="0"/>
        <pt x="538" y="1250" on="1"/>
        <pt x="456" y="1250" on="0"/>
        <pt x="327" y="1161" on="0"/>
        <pt x="327" y="1125" on="1"/>
        <pt x="327" y="1081" on="0"/>
        <pt x="470" y="1050" on="1"/>
        <pt x="271" y="974" on="1"/>
        <pt x="100" y="1044" on="0"/>
        <pt x="100" y="1140" on="1"/>
        <pt x="100" y="1171" on="1"/>
        <pt x="100" y="1236" on="0"/>
      </contour>
      <contour>
        <pt x="200" y="0" on="1"/>
        <pt x="200" y="750" on="1"/>
        <pt x="200" y="1050" on="0"/>
        <pt x="700" y="1050" on="1"/>
        <pt x="1200" y="1050" on="0"/>
        <pt x="1200" y="750" on="1"/>
        <pt x="1200" y="0" on="1"/>
        <pt x="900" y="0" on="1"/>
        <pt x="900" y="750" on="1"/>
        <pt x="900" y="950" on="0"/>
        <pt x="700" y="950" on="1"/>
        <pt x="500" y="950" on="0"/>
        <pt x="500" y="750" on="1"/>
        <pt x="500" y="375" on="1"/>
        <pt x="573" y="500" on="0"/>
        <pt x="662" y="500" on="1"/>
        <pt x="800" y="500" on="0"/>
        <pt x="800" y="354" on="1"/>
        <pt x="800" y="257" on="0"/>
        <pt x="723" y="257" on="1"/>
        <pt x="666" y="257" on="0"/>
        <pt x="666" y="297" on="1"/>
        <pt x="666" y="337" on="0"/>
        <pt x="642" y="337" on="1"/>
        <pt x="618" y="337" on="0"/>
        <pt x="568" y="236" on="1"/>
        <pt x="519" y="137" on="1"/>
        <pt x="500" y="99" on="1"/>
        <pt x="500" y="0" on="1"/>
      </contour>
    </TTGlyph>
    <TTGlyph name="uni1782_17C5" xMin="100" yMin="0" xMax="1950" yMax="1900">
      <contour>
        <pt x="200" y="0" on="1"/>
        <pt x="200" y="750" on="1"/>
        <pt x="200" y="1050" on="0"/>
        <pt x="700" y="1050" on="1"/>
        <pt x="1200" y="1050" on="0"/>
        <pt x="1200" y="750" on="1"/>
        <pt x="1200" y="0" on="1"/>
        <pt x="900" y="0" on="1"/>
        <pt x="900" y="750" on="1"/>
        <pt x="900" y="950" on="0"/>
        <pt x="700" y="950" on="1"/>
        <pt x="500" y="950" on="0"/>
        <pt x="500" y="750" on="1"/>
        <pt x="500" y="375" on="1"/>
        <pt x="573" y="500" on="0"/>
        <pt x="662" y="500" on="1"/>
        <pt x="800" y="500" on="0"/>
        <pt x="800" y="354" on="1"/>
        <pt x="800" y="257" on="0"/>
        <pt x="723" y="257" on="1"/>
        <pt x="666" y="257" on="0"/>
        <pt x="666" y="297" on="1"/>
        <pt x="666" y="337" on="0"/>
        <pt x="642" y="337" on="1"/>
        <pt x="618" y="337" on="0"/>
        <pt x="568" y="236" on="1"/>
        <pt x="519" y="137" on="1"/>
        <pt x="500" y="99" on="1"/>
        <pt x="500" y="0" on="1"/>
      </contour>
      <contour>
        <pt x="1857" y="1156" on="1"/>
        <pt x="1900" y="1081" on="0"/>
        <pt x="1900" y="1000" on="1"/>
        <pt x="1900" y="0" on="1"/>
        <pt x="1600" y="0" on="1"/>
        <pt x="1600" y="1000" on="1"/>
        <pt x="1600" y="1082" on="0"/>
        <pt x="1327" y="1250" on="0"/>
        <pt x="1269" y="1250" on="1"/>
        <pt x="1214" y="1250" on="0"/>
        <pt x="996" y="1080" on="0"/>
        <pt x="915" y="1080" on="1"/>
        <pt x="831" y="1080" on="0"/>
        <pt x="580" y="1250" on="0"/>
        <pt x="538" y="1250" on="1"/>
        <pt x="456" y="1250" on="0"/>
        <pt x="327" y="1161" on="0"/>
        <pt x="327" y="1125" on="1"/>
        <pt x="327" y="1081" on="0"/>
        <pt x="470" y="1050" on="1"/>
        <pt x="271" y="974" on="1"/>
        <pt x="100" y="1044" on="0"/>
        <pt x="100" y="1140" on="1"/>
        <pt x="100" y="1171" on="1"/>
        <pt x="100" y="1236" on="0"/>
        <pt x="468" y="1500" on="0"/>
        <pt x="556" y="1500" on="1"/>
        <pt x="644" y="1500" on="0"/>
        <pt x="815" y="1383" on="1"/>
        <pt x="899" y="1326" on="1"/>
        <pt x="941" y="1300" on="0"/>
        <pt x="989" y="1300" on="1"/>
        <pt x="1045" y="1300" on="0"/>
        <pt x="1177" y="1421" on="1"/>
        <pt x="1263" y="1500" on="0"/>
        <pt x="1351" y="1500" on="1"/>
        <pt x="1435" y="1500" on="0"/>
        <pt x="1650" y="1358" on="1"/>
        <pt x="1650" y="1700" on="1"/>
        <pt x="1650" y="1800" on="0"/>
        <pt x="1600" y="1800" on="1"/>
        <pt x="1600" y="1900" on="0"/>
        <pt x="1775" y="1900" on="1"/>
        <pt x="1950" y="1900" on="0"/>
        <pt x="1950" y="1700" on="1"/>
        <pt x="1950" y="1400" on="1"/>
        <pt x="1950" y="1322" on="0"/>
      </contour>
    </TTGlyph>
    <TTGlyph name="uni1783" xMin="70" yMin="0" xMax="2000" yMax="1500">
      <contour>
        <pt x="210" y="1310" on="1"/>
        <pt x="170" y="1310" on="0"/>
        <pt x="170" y="1200" on="1"/>
        <pt x="170" y="1120" on="0"/>
        <pt x="210" y="1120" on="1"/>
        <pt x="250" y="1120" on="0"/>
        <pt x="250" y="1225" on="1"/>
        <pt x="250" y="1310" on="0"/>
      </contour>
      <contour>
        <pt x="900" y="943" on="1"/>
        <pt x="900" y="1049" on="0"/>
        <pt x="750" y="1081" on="1"/>
        <pt x="770" y="1182" on="0"/>
        <pt x="941" y="1500" on="0"/>
        <pt x="995" y="1500" on="1"/>
        <pt x="1039" y="1500" on="0"/>
        <pt x="1110" y="1457" on="1"/>
        <pt x="1180" y="1414" on="1"/>
        <pt x="1211" y="1395" on="0"/>
        <pt x="1253" y="1395" on="1"/>
        <pt x="1275" y="1395" on="0"/>
        <pt x="1300" y="1400" on="1"/>
        <pt x="1290" y="1330" on="0"/>
        <pt x="1215" y="1173" on="0"/>
        <pt x="1166" y="1167" on="1"/>
        <pt x="1160" y="1166" on="0"/>
        <pt x="1153" y="1166" on="1"/>
        <pt x="1105" y="1166" on="0"/>
        <pt x="1028" y="1208" on="1"/>
        <pt x="988" y="1229" on="0"/>
        <pt x="961" y="1229" on="1"/>
        <pt x="927" y="1229" on="0"/>
        <pt x="913" y="1197" on="1"/>
        <pt x="886" y="1138" on="1"/>
        <pt x="1200" y="1080" on="0"/>
        <pt x="1200" y="1000" on="1"/>
        <pt x="1200" y="300" on="1"/>
        <pt x="1200" y="100" on="0"/>
        <pt x="1400" y="100" on="1"/>
        <pt x="1600" y="100" on="0"/>
        <pt x="1600" y="300" on="1"/>
        <pt x="1600" y="943" on="1"/>
        <pt x="1600" y="1049" on="0"/>
        <pt x="1450" y="1081" on="1"/>
        <pt x="1470" y="1182" on="0"/>
        <pt x="1641" y="1500" on="0"/>
        <pt x="1695" y="1500" on="1"/>
        <pt x="1739" y="1500" on="0"/>
        <pt x="1810" y="1457" on="1"/>
        <pt x="1880" y="1414" on="1"/>
        <pt x="1911" y="1395" on="0"/>
        <pt x="1953" y="1395" on="1"/>
        <pt x="1975" y="1395" on="0"/>
        <pt x="2000" y="1400" on="1"/>
        <pt x="1990" y="1330" on="0"/>
        <pt x="1915" y="1173" on="0"/>
        <pt x="1866" y="1167" on="1"/>
        <pt x="1860" y="1166" on="0"/>
        <pt x="1853" y="1166" on="1"/>
        <pt x="1805" y="1166" on="0"/>
        <pt x="1728" y="1208" on="1"/>
        <pt x="1688" y="1229" on="0"/>
        <pt x="1661" y="1229" on="1"/>
        <pt x="1627" y="1229" on="0"/>
        <pt x="1613" y="1197" on="1"/>
        <pt x="1586" y="1138" on="1"/>
        <pt x="1900" y="1080" on="0"/>
        <pt x="1900" y="1000" on="1"/>
        <pt x="1900" y="300" on="1"/>
        <pt x="1900" y="0" on="0"/>
        <pt x="1400" y="0" on="1"/>
        <pt x="1162" y="0" on="0"/>
        <pt x="1050" y="84" on="1"/>
        <pt x="938" y="0" on="0"/>
        <pt x="700" y="0" on="1"/>
        <pt x="200" y="0" on="0"/>
        <pt x="200" y="300" on="1"/>
        <pt x="200" y="1000" on="1"/>
        <pt x="70" y="1000" on="0"/>
        <pt x="70" y="1200" on="1"/>
        <pt x="70" y="1330" on="0"/>
        <pt x="135" y="1415" on="1"/>
        <pt x="200" y="1500" on="0"/>
        <pt x="300" y="1500" on="1"/>
        <pt x="500" y="1500" on="0"/>
        <pt x="500" y="1400" on="1"/>
        <pt x="500" y="300" on="1"/>
        <pt x="500" y="100" on="0"/>
        <pt x="700" y="100" on="1"/>
        <pt x="900" y="100" on="0"/>
        <pt x="900" y="300" on="1"/>
      </contour>
    </TTGlyph>
    <TTGlyph name="uni1783_17B6" xMin="70" yMin="0" xMax="2600" yMax="1500">
      <contour>
        <pt x="210" y="1310" on="1"/>
        <pt x="170" y="1310" on="0"/>
        <pt x="170" y="1200" on="1"/>
        <pt x="170" y="1120" on="0"/>
        <pt x="210" y="1120" on="1"/>
        <pt x="250" y="1120" on="0"/>
        <pt x="250" y="1225" on="1"/>
        <pt x="250" y="1310" on="0"/>
      </contour>
      <contour>
        <pt x="1900" y="300" on="1"/>
        <pt x="1900" y="0" on="0"/>
        <pt x="1400" y="0" on="1"/>
        <pt x="1162" y="0" on="0"/>
        <pt x="1050" y="84" on="1"/>
        <pt x="938" y="0" on="0"/>
        <pt x="700" y="0" on="1"/>
        <pt x="200" y="0" on="0"/>
        <pt x="200" y="300" on="1"/>
        <pt x="200" y="1000" on="1"/>
        <pt x="70" y="1000" on="0"/>
        <pt x="70" y="1200" on="1"/>
        <pt x="70" y="1330" on="0"/>
        <pt x="135" y="1415" on="1"/>
        <pt x="200" y="1500" on="0"/>
        <pt x="300" y="1500" on="1"/>
        <pt x="500" y="1500" on="0"/>
        <pt x="500" y="1400" on="1"/>
        <pt x="500" y="300" on="1"/>
        <pt x="500" y="100" on="0"/>
        <pt x="700" y="100" on="1"/>
        <pt x="900" y="100" on="0"/>
        <pt x="900" y="300" on="1"/>
        <pt x="900" y="943" on="1"/>
        <pt x="900" y="1049" on="0"/>
        <pt x="750" y="1081" on="1"/>
        <pt x="770" y="1182" on="0"/>
        <pt x="941" y="1500" on="0"/>
        <pt x="995" y="1500" on="1"/>
        <pt x="1039" y="1500" on="0"/>
        <pt x="1110" y="1457" on="1"/>
        <pt x="1180" y="1414" on="1"/>
        <pt x="1211" y="1395" on="0"/>
        <pt x="1253" y="1395" on="1"/>
        <pt x="1275" y="1395" on="0"/>
        <pt x="1300" y="1400" on="1"/>
        <pt x="1290" y="1330" on="0"/>
        <pt x="1215" y="1173" on="0"/>
        <pt x="1166" y="1167" on="1"/>
        <pt x="1160" y="1166" on="0"/>
        <pt x="1153" y="1166" on="1"/>
        <pt x="1105" y="1166" on="0"/>
        <pt x="1028" y="1208" on="1"/>
        <pt x="988" y="1229" on="0"/>
        <pt x="961" y="1229" on="1"/>
        <pt x="927" y="1229" on="0"/>
        <pt x="913" y="1197" on="1"/>
        <pt x="886" y="1138" on="1"/>
        <pt x="1200" y="1080" on="0"/>
        <pt x="1200" y="1000" on="1"/>
        <pt x="1200" y="300" on="1"/>
        <pt x="1200" y="100" on="0"/>
        <pt x="1400" y="100" on="1"/>
        <pt x="1600" y="100" on="0"/>
        <pt x="1600" y="300" on="1"/>
        <pt x="1600" y="943" on="1"/>
        <pt x="1600" y="1049" on="0"/>
        <pt x="1450" y="1081" on="1"/>
        <pt x="1481" y="1182" on="0"/>
        <pt x="1745" y="1500" on="0"/>
        <pt x="1829" y="1500" on="1"/>
        <pt x="1952" y="1500" on="0"/>
        <pt x="2600" y="1266" on="0"/>
        <pt x="2600" y="1030" on="1"/>
        <pt x="2600" y="0" on="1"/>
        <pt x="2300" y="0" on="1"/>
        <pt x="2300" y="1030" on="1"/>
        <pt x="2300" y="1111" on="0"/>
        <pt x="2222" y="1142" on="1"/>
        <pt x="2024" y="1209" on="1"/>
        <pt x="1899" y="1258" on="0"/>
        <pt x="1811" y="1258" on="1"/>
        <pt x="1723" y="1258" on="0"/>
        <pt x="1680" y="1197" on="1"/>
        <pt x="1640" y="1138" on="1"/>
        <pt x="1900" y="1080" on="0"/>
        <pt x="1900" y="1000" on="1"/>
      </contour>
    </TTGlyph>
    <TTGlyph name="uni1783_17C5" xMin="70" yMin="0" xMax="2650" yMax="1900">
      <contour>
        <pt x="210" y="1310" on="1"/>
        <pt x="170" y="1310" on="0"/>
        <pt x="170" y="1200" on="1"/>
        <pt x="170" y="1120" on="0"/>
        <pt x="210" y="1120" on="1"/>
        <pt x="250" y="1120" on="0"/>
        <pt x="250" y="1225" on="1"/>
        <pt x="250" y="1310" on="0"/>
      </contour>
      <contour>
        <pt x="2566" y="1171" on="1"/>
        <pt x="2600" y="1107" on="0"/>
        <pt x="2600" y="1030" on="1"/>
        <pt x="2600" y="0" on="1"/>
        <pt x="2300" y="0" on="1"/>
        <pt x="2300" y="1030" on="1"/>
        <pt x="2300" y="1111" on="0"/>
        <pt x="2222" y="1142" on="1"/>
        <pt x="2024" y="1209" on="1"/>
        <pt x="1899" y="1258" on="0"/>
        <pt x="1811" y="1258" on="1"/>
        <pt x="1723" y="1258" on="0"/>
        <pt x="1680" y="1197" on="1"/>
        <pt x="1640" y="1138" on="1"/>
        <pt x="1900" y="1080" on="0"/>
        <pt x="1900" y="1000" on="1"/>
        <pt x="1900" y="300" on="1"/>
        <pt x="1900" y="0" on="0"/>
        <pt x="1400" y="0" on="1"/>
        <pt x="1162" y="0" on="0"/>
        <pt x="1050" y="84" on="1"/>
        <pt x="938" y="0" on="0"/>
        <pt x="700" y="0" on="1"/>
        <pt x="200" y="0" on="0"/>
        <pt x="200" y="300" on="1"/>
        <pt x="200" y="1000" on="1"/>
        <pt x="70" y="1000" on="0"/>
        <pt x="70" y="1200" on="1"/>
        <pt x="70" y="1330" on="0"/>
        <pt x="135" y="1415" on="1"/>
        <pt x="200" y="1500" on="0"/>
        <pt x="300" y="1500" on="1"/>
        <pt x="500" y="1500" on="0"/>
        <pt x="500" y="1400" on="1"/>
        <pt x="500" y="300" on="1"/>
        <pt x="500" y="100" on="0"/>
        <pt x="700" y="100" on="1"/>
        <pt x="900" y="100" on="0"/>
        <pt x="900" y="300" on="1"/>
        <pt x="900" y="943" on="1"/>
        <pt x="900" y="1049" on="0"/>
        <pt x="750" y="1081" on="1"/>
        <pt x="770" y="1182" on="0"/>
        <pt x="941" y="1500" on="0"/>
        <pt x="995" y="1500" on="1"/>
        <pt x="1039" y="1500" on="0"/>
        <pt x="1110" y="1457" on="1"/>
        <pt x="1180" y="1414" on="1"/>
        <pt x="1211" y="1395" on="0"/>
        <pt x="1253" y="1395" on="1"/>
        <pt x="1275" y="1395" on="0"/>
        <pt x="1300" y="1400" on="1"/>
        <pt x="1290" y="1330" on="0"/>
        <pt x="1215" y="1173" on="0"/>
        <pt x="1166" y="1167" on="1"/>
        <pt x="1160" y="1166" on="0"/>
        <pt x="1153" y="1166" on="1"/>
        <pt x="1105" y="1166" on="0"/>
        <pt x="1028" y="1208" on="1"/>
        <pt x="988" y="1229" on="0"/>
        <pt x="961" y="1229" on="1"/>
        <pt x="927" y="1229" on="0"/>
        <pt x="913" y="1197" on="1"/>
        <pt x="886" y="1138" on="1"/>
        <pt x="1200" y="1080" on="0"/>
        <pt x="1200" y="1000" on="1"/>
        <pt x="1200" y="300" on="1"/>
        <pt x="1200" y="100" on="0"/>
        <pt x="1400" y="100" on="1"/>
        <pt x="1600" y="100" on="0"/>
        <pt x="1600" y="300" on="1"/>
        <pt x="1600" y="943" on="1"/>
        <pt x="1600" y="1049" on="0"/>
        <pt x="1450" y="1081" on="1"/>
        <pt x="1481" y="1182" on="0"/>
        <pt x="1745" y="1500" on="0"/>
        <pt x="1829" y="1500" on="1"/>
        <pt x="1952" y="1500" on="0"/>
        <pt x="2276" y="1383" on="1"/>
        <pt x="2315" y="1369" on="0"/>
        <pt x="2350" y="1353" on="1"/>
        <pt x="2350" y="1700" on="1"/>
        <pt x="2350" y="1800" on="0"/>
        <pt x="2300" y="1800" on="1"/>
        <pt x="2300" y="1900" on="0"/>
        <pt x="2475" y="1900" on="1"/>
        <pt x="2650" y="1900" on="0"/>
        <pt x="2650" y="1700" on="1"/>
        <pt x="2650" y="1400" on="1"/>
        <pt x="2650" y="1325" on="0"/>
      </contour>
    </TTGlyph>
    <TTGlyph name="uni1784" xMin="100" yMin="0" xMax="1200" yMax="1700">
      <contour>
        <pt x="870" y="1320" on="1"/>
        <pt x="870" y="1380" on="0"/>
        <pt x="820" y="1380" on="1"/>
        <pt x="780" y="1380" on="0"/>
        <pt x="780" y="1320" on="1"/>
        <pt x="780" y="1286" on="0"/>
        <pt x="833" y="1231" on="1"/>
        <pt x="870" y="1273" on="0"/>
      </contour>
      <contour>
        <pt x="250" y="771" on="0"/>
        <pt x="225" y="771" on="1"/>
        <pt x="200" y="771" on="0"/>
        <pt x="200" y="700" on="1"/>
        <pt x="200" y="660" on="0"/>
        <pt x="225" y="660" on="1"/>
        <pt x="250" y="660" on="0"/>
        <pt x="250" y="721" on="1"/>
      </contour>
      <contour>
        <pt x="200" y="550" on="1"/>
        <pt x="100" y="550" on="0"/>
        <pt x="100" y="700" on="1"/>
        <pt x="100" y="900" on="0"/>
        <pt x="300" y="900" on="1"/>
        <pt x="500" y="900" on="0"/>
        <pt x="500" y="800" on="1"/>
        <pt x="500" y="192" on="1"/>
        <pt x="630" y="321" on="1"/>
        <pt x="665" y="356" on="0"/>
        <pt x="700" y="356" on="1"/>
        <pt x="736" y="356" on="0"/>
        <pt x="771" y="321" on="1"/>
        <pt x="900" y="192" on="1"/>
        <pt x="900" y="900" on="1"/>
        <pt x="900" y="1008" on="0"/>
        <pt x="864" y="1065" on="0"/>
        <pt x="828" y="1089" on="1"/>
        <pt x="686" y="1000" on="0"/>
        <pt x="610" y="1000" on="1"/>
        <pt x="372" y="1000" on="0"/>
        <pt x="289" y="1069" on="1"/>
        <pt x="200" y="1144" on="0"/>
        <pt x="200" y="1260" on="1"/>
        <pt x="200" y="1325" on="0"/>
        <pt x="250" y="1460" on="0"/>
        <pt x="250" y="1530" on="1"/>
        <pt x="250" y="1600" on="0"/>
        <pt x="150" y="1600" on="1"/>
        <pt x="150" y="1700" on="0"/>
        <pt x="300" y="1700" on="1"/>
        <pt x="550" y="1700" on="0"/>
        <pt x="550" y="1530" on="1"/>
        <pt x="550" y="1445" on="0"/>
        <pt x="500" y="1330" on="0"/>
        <pt x="500" y="1260" on="1"/>
        <pt x="500" y="1201" on="0"/>
        <pt x="540" y="1100" on="0"/>
        <pt x="610" y="1100" on="1"/>
        <pt x="634" y="1100" on="0"/>
        <pt x="735" y="1156" on="1"/>
        <pt x="610" y="1244" on="0"/>
        <pt x="610" y="1320" on="1"/>
        <pt x="610" y="1500" on="0"/>
        <pt x="820" y="1500" on="1"/>
        <pt x="1050" y="1500" on="0"/>
        <pt x="1050" y="1320" on="1"/>
        <pt x="1050" y="1243" on="0"/>
        <pt x="982" y="1172" on="1"/>
        <pt x="1003" y="1161" on="0"/>
        <pt x="1025" y="1150" on="1"/>
        <pt x="1200" y="1083" on="0"/>
        <pt x="1200" y="900" on="1"/>
        <pt x="1200" y="100" on="1"/>
        <pt x="1200" y="0" on="0"/>
        <pt x="1050" y="0" on="1"/>
        <pt x="950" y="0" on="0"/>
        <pt x="888" y="63" on="1"/>
        <pt x="700" y="250" on="1"/>
        <pt x="513" y="63" on="1"/>
        <pt x="450" y="0" on="0"/>
        <pt x="350" y="0" on="1"/>
        <pt x="200" y="0" on="0"/>
        <pt x="200" y="100" on="1"/>
      </contour>
    </TTGlyph>
    <TTGlyph name="uni1784_17B6" xMin="100" yMin="0" xMax="1900" yMax="1700">
      <contour>
        <pt x="870" y="1320" on="1"/>
        <pt x="870" y="1380" on="0"/>
        <pt x="820" y="1380" on="1"/>
        <pt x="780" y="1380" on="0"/>
        <pt x="780" y="1320" on="1"/>
        <pt x="780" y="1286" on="0"/>
        <pt x="833" y="1231" on="1"/>
        <pt x="870" y="1273" on="0"/>
      </contour>
      <contour>
        <pt x="225" y="771" on="1"/>
        <pt x="200" y="771" on="0"/>
        <pt x="200" y="700" on="1"/>
        <pt x="200" y="660" on="0"/>
        <pt x="225" y="660" on="1"/>
        <pt x="250" y="660" on="0"/>
        <pt x="250" y="721" on="1"/>
        <pt x="250" y="771" on="0"/>
      </contour>
      <contour>
        <pt x="1098" y="1112" on="1"/>
        <pt x="1200" y="1040" on="0"/>
        <pt x="1200" y="900" on="1"/>
        <pt x="1200" y="100" on="1"/>
        <pt x="1200" y="0" on="0"/>
        <pt x="1050" y="0" on="1"/>
        <pt x="950" y="0" on="0"/>
        <pt x="888" y="63" on="1"/>
        <pt x="700" y="250" on="1"/>
        <pt x="513" y="63" on="1"/>
        <pt x="450" y="0" on="0"/>
        <pt x="350" y="0" on="1"/>
        <pt x="200" y="0" on="0"/>
        <pt x="200" y="100" on="1"/>
        <pt x="200" y="550" on="1"/>
        <pt x="100" y="550" on="0"/>
        <pt x="100" y="700" on="1"/>
        <pt x="100" y="900" on="0"/>
        <pt x="300" y="900" on="1"/>
        <pt x="500" y="900" on="0"/>
        <pt x="500" y="800" on="1"/>
        <pt x="500" y="192" on="1"/>
        <pt x="630" y="321" on="1"/>
        <pt x="665" y="356" on="0"/>
        <pt x="700" y="356" on="1"/>
        <pt x="736" y="356" on="0"/>
        <pt x="771" y="321" on="1"/>
        <pt x="900" y="192" on="1"/>
        <pt x="900" y="900" on="1"/>
        <pt x="900" y="1008" on="0"/>
        <pt x="864" y="1065" on="0"/>
        <pt x="828" y="1089" on="1"/>
        <pt x="686" y="1000" on="0"/>
        <pt x="610" y="1000" on="1"/>
        <pt x="372" y="1000" on="0"/>
        <pt x="289" y="1069" on="1"/>
        <pt x="200" y="1144" on="0"/>
        <pt x="200" y="1260" on="1"/>
        <pt x="200" y="1325" on="0"/>
        <pt x="250" y="1460" on="0"/>
        <pt x="250" y="1530" on="1"/>
        <pt x="250" y="1600" on="0"/>
        <pt x="150" y="1600" on="1"/>
        <pt x="150" y="1700" on="0"/>
        <pt x="300" y="1700" on="1"/>
        <pt x="550" y="1700" on="0"/>
        <pt x="550" y="1530" on="1"/>
        <pt x="550" y="1445" on="0"/>
        <pt x="500" y="1330" on="0"/>
        <pt x="500" y="1260" on="1"/>
        <pt x="500" y="1201" on="0"/>
        <pt x="540" y="1100" on="0"/>
        <pt x="610" y="1100" on="1"/>
        <pt x="634" y="1100" on="0"/>
        <pt x="735" y="1156" on="1"/>
        <pt x="610" y="1244" on="0"/>
        <pt x="610" y="1320" on="1"/>
        <pt x="610" y="1500" on="0"/>
        <pt x="820" y="1500" on="1"/>
        <pt x="1050" y="1500" on="0"/>
        <pt x="1050" y="1320" on="1"/>
        <pt x="1050" y="1286" on="0"/>
        <pt x="1037" y="1254" on="1"/>
        <pt x="1310" y="1500" on="0"/>
        <pt x="1435" y="1500" on="1"/>
        <pt x="1536" y="1500" on="0"/>
        <pt x="1900" y="1284" on="0"/>
        <pt x="1900" y="1100" on="1"/>
        <pt x="1900" y="0" on="1"/>
        <pt x="1600" y="0" on="1"/>
        <pt x="1600" y="1100" on="1"/>
        <pt x="1600" y="1179" on="0"/>
        <pt x="1440" y="1263" on="0"/>
        <pt x="1365" y="1263" on="1"/>
        <pt x="1317" y="1263" on="0"/>
      </contour>
    </TTGlyph>
    <TTGlyph name="uni1784_17C5" xMin="100" yMin="0" xMax="1950" yMax="1900">
      <contour>
        <pt x="870" y="1320" on="1"/>
        <pt x="870" y="1380" on="0"/>
        <pt x="820" y="1380" on="1"/>
        <pt x="780" y="1380" on="0"/>
        <pt x="780" y="1320" on="1"/>
        <pt x="780" y="1286" on="0"/>
        <pt x="833" y="1231" on="1"/>
        <pt x="870" y="1273" on="0"/>
      </contour>
      <contour>
        <pt x="225" y="771" on="1"/>
        <pt x="200" y="771" on="0"/>
        <pt x="200" y="700" on="1"/>
        <pt x="200" y="660" on="0"/>
        <pt x="225" y="660" on="1"/>
        <pt x="250" y="660" on="0"/>
        <pt x="250" y="721" on="1"/>
        <pt x="250" y="771" on="0"/>
      </contour>
      <contour>
        <pt x="1883" y="1204" on="1"/>
        <pt x="1900" y="1156" on="0"/>
        <pt x="1900" y="1100" on="1"/>
        <pt x="1900" y="0" on="1"/>
        <pt x="1600" y="0" on="1"/>
        <pt x="1600" y="1100" on="1"/>
        <pt x="1600" y="1179" on="0"/>
        <pt x="1440" y="1263" on="0"/>
        <pt x="1365" y="1263" on="1"/>
        <pt x="1317" y="1263" on="0"/>
        <pt x="1098" y="1112" on="1"/>
        <pt x="1200" y="1040" on="0"/>
        <pt x="1200" y="900" on="1"/>
        <pt x="1200" y="100" on="1"/>
        <pt x="1200" y="0" on="0"/>
        <pt x="1050" y="0" on="1"/>
        <pt x="950" y="0" on="0"/>
        <pt x="888" y="63" on="1"/>
        <pt x="700" y="250" on="1"/>
        <pt x="513" y="63" on="1"/>
        <pt x="450" y="0" on="0"/>
        <pt x="350" y="0" on="1"/>
        <pt x="200" y="0" on="0"/>
        <pt x="200" y="100" on="1"/>
        <pt x="200" y="550" on="1"/>
        <pt x="100" y="550" on="0"/>
        <pt x="100" y="700" on="1"/>
        <pt x="100" y="900" on="0"/>
        <pt x="300" y="900" on="1"/>
        <pt x="500" y="900" on="0"/>
        <pt x="500" y="800" on="1"/>
        <pt x="500" y="192" on="1"/>
        <pt x="630" y="321" on="1"/>
        <pt x="665" y="356" on="0"/>
        <pt x="700" y="356" on="1"/>
        <pt x="736" y="356" on="0"/>
        <pt x="771" y="321" on="1"/>
        <pt x="900" y="192" on="1"/>
        <pt x="900" y="900" on="1"/>
        <pt x="900" y="1008" on="0"/>
        <pt x="864" y="1065" on="0"/>
        <pt x="828" y="1089" on="1"/>
        <pt x="686" y="1000" on="0"/>
        <pt x="610" y="1000" on="1"/>
        <pt x="372" y="1000" on="0"/>
        <pt x="289" y="1069" on="1"/>
        <pt x="200" y="1144" on="0"/>
        <pt x="200" y="1260" on="1"/>
        <pt x="200" y="1325" on="0"/>
        <pt x="250" y="1460" on="0"/>
        <pt x="250" y="1530" on="1"/>
        <pt x="250" y="1600" on="0"/>
        <pt x="150" y="1600" on="1"/>
        <pt x="150" y="1700" on="0"/>
        <pt x="300" y="1700" on="1"/>
        <pt x="550" y="1700" on="0"/>
        <pt x="550" y="1530" on="1"/>
        <pt x="550" y="1445" on="0"/>
        <pt x="500" y="1330" on="0"/>
        <pt x="500" y="1260" on="1"/>
        <pt x="500" y="1201" on="0"/>
        <pt x="540" y="1100" on="0"/>
        <pt x="610" y="1100" on="1"/>
        <pt x="634" y="1100" on="0"/>
        <pt x="735" y="1156" on="1"/>
        <pt x="610" y="1244" on="0"/>
        <pt x="610" y="1320" on="1"/>
        <pt x="610" y="1500" on="0"/>
        <pt x="820" y="1500" on="1"/>
        <pt x="1050" y="1500" on="0"/>
        <pt x="1050" y="1320" on="1"/>
        <pt x="1050" y="1286" on="0"/>
        <pt x="1037" y="1254" on="1"/>
        <pt x="1310" y="1500" on="0"/>
        <pt x="1435" y="1500" on="1"/>
        <pt x="1516" y="1500" on="0"/>
        <pt x="1650" y="1430" on="1"/>
        <pt x="1650" y="1700" on="1"/>
        <pt x="1650" y="1800" on="0"/>
        <pt x="1600" y="1800" on="1"/>
        <pt x="1600" y="1900" on="0"/>
        <pt x="1775" y="1900" on="1"/>
        <pt x="1950" y="1900" on="0"/>
        <pt x="1950" y="1700" on="1"/>
        <pt x="1950" y="1400" on="1"/>
        <pt x="1950" y="1333" on="0"/>
      </contour>
    </TTGlyph>
    <TTGlyph name="uni1785" xMin="130" yMin="0" xMax="1250" yMax="1500">
      <contour>
        <pt x="900" y="800" on="1"/>
        <pt x="900" y="760" on="0"/>
        <pt x="925" y="760" on="1"/>
        <pt x="950" y="760" on="0"/>
        <pt x="950" y="821" on="1"/>
        <pt x="950" y="871" on="0"/>
        <pt x="925" y="871" on="1"/>
        <pt x="900" y="871" on="0"/>
      </contour>
      <contour>
        <pt x="900" y="650" on="1"/>
        <pt x="800" y="650" on="0"/>
        <pt x="800" y="800" on="1"/>
        <pt x="800" y="1000" on="0"/>
        <pt x="1000" y="1000" on="1"/>
        <pt x="1200" y="1000" on="0"/>
        <pt x="1200" y="900" on="1"/>
        <pt x="1200" y="300" on="1"/>
        <pt x="1200" y="0" on="0"/>
        <pt x="700" y="0" on="1"/>
        <pt x="200" y="0" on="0"/>
        <pt x="200" y="300" on="1"/>
        <pt x="200" y="1017" on="1"/>
        <pt x="150" y="1061" on="0"/>
        <pt x="130" y="1127" on="1"/>
        <pt x="130" y="1202" on="1"/>
        <pt x="150" y="1254" on="0"/>
        <pt x="214" y="1315" on="1"/>
        <pt x="279" y="1376" on="1"/>
        <pt x="407" y="1500" on="0"/>
        <pt x="439" y="1500" on="1"/>
        <pt x="475" y="1500" on="0"/>
        <pt x="581" y="1388" on="1"/>
        <pt x="634" y="1332" on="1"/>
        <pt x="661" y="1303" on="0"/>
        <pt x="690" y="1303" on="1"/>
        <pt x="715" y="1303" on="0"/>
        <pt x="740" y="1332" on="1"/>
        <pt x="789" y="1388" on="1"/>
        <pt x="889" y="1500" on="0"/>
        <pt x="924" y="1500" on="1"/>
        <pt x="958" y="1500" on="0"/>
        <pt x="1014" y="1438" on="1"/>
        <pt x="1130" y="1313" on="1"/>
        <pt x="1165" y="1276" on="0"/>
        <pt x="1200" y="1276" on="1"/>
        <pt x="1225" y="1276" on="0"/>
        <pt x="1250" y="1294" on="1"/>
        <pt x="1181" y="1097" on="0"/>
        <pt x="1117" y="1097" on="1"/>
        <pt x="1051" y="1097" on="0"/>
        <pt x="899" y="1238" on="0"/>
        <pt x="867" y="1238" on="1"/>
        <pt x="825" y="1238" on="0"/>
        <pt x="710" y="1097" on="0"/>
        <pt x="661" y="1097" on="1"/>
        <pt x="590" y="1097" on="0"/>
        <pt x="420" y="1238" on="0"/>
        <pt x="383" y="1238" on="1"/>
        <pt x="351" y="1238" on="0"/>
        <pt x="317" y="1194" on="0"/>
        <pt x="317" y="1158" on="1"/>
        <pt x="317" y="1128" on="0"/>
        <pt x="442" y="1030" on="0"/>
        <pt x="500" y="1030" on="1"/>
        <pt x="500" y="300" on="1"/>
        <pt x="500" y="100" on="0"/>
        <pt x="700" y="100" on="1"/>
        <pt x="900" y="100" on="0"/>
        <pt x="900" y="300" on="1"/>
      </contour>
    </TTGlyph>
    <TTGlyph name="uni1785_17B6" xMin="100" yMin="0" xMax="1900" yMax="1500">
      <contour>
        <pt x="900" y="800" on="1"/>
        <pt x="900" y="760" on="0"/>
        <pt x="925" y="760" on="1"/>
        <pt x="950" y="760" on="0"/>
        <pt x="950" y="821" on="1"/>
        <pt x="950" y="871" on="0"/>
        <pt x="925" y="871" on="1"/>
        <pt x="900" y="871" on="0"/>
      </contour>
      <contour>
        <pt x="500" y="1030" on="1"/>
        <pt x="500" y="300" on="1"/>
        <pt x="500" y="100" on="0"/>
        <pt x="700" y="100" on="1"/>
        <pt x="900" y="100" on="0"/>
        <pt x="900" y="300" on="1"/>
        <pt x="900" y="650" on="1"/>
        <pt x="800" y="650" on="0"/>
        <pt x="800" y="800" on="1"/>
        <pt x="800" y="1000" on="0"/>
        <pt x="1000" y="1000" on="1"/>
        <pt x="1200" y="1000" on="0"/>
        <pt x="1200" y="900" on="1"/>
        <pt x="1200" y="300" on="1"/>
        <pt x="1200" y="0" on="0"/>
        <pt x="700" y="0" on="1"/>
        <pt x="200" y="0" on="0"/>
        <pt x="200" y="300" on="1"/>
        <pt x="200" y="1008" on="1"/>
        <pt x="100" y="1067" on="0"/>
        <pt x="100" y="1140" on="1"/>
        <pt x="100" y="1171" on="1"/>
        <pt x="100" y="1236" on="0"/>
        <pt x="468" y="1500" on="0"/>
        <pt x="556" y="1500" on="1"/>
        <pt x="644" y="1500" on="0"/>
        <pt x="815" y="1383" on="1"/>
        <pt x="899" y="1326" on="1"/>
        <pt x="941" y="1300" on="0"/>
        <pt x="989" y="1300" on="1"/>
        <pt x="1045" y="1300" on="0"/>
        <pt x="1177" y="1421" on="1"/>
        <pt x="1263" y="1500" on="0"/>
        <pt x="1351" y="1500" on="1"/>
        <pt x="1439" y="1500" on="0"/>
        <pt x="1900" y="1189" on="0"/>
        <pt x="1900" y="1000" on="1"/>
        <pt x="1900" y="0" on="1"/>
        <pt x="1600" y="0" on="1"/>
        <pt x="1600" y="1000" on="1"/>
        <pt x="1600" y="1082" on="0"/>
        <pt x="1327" y="1250" on="0"/>
        <pt x="1269" y="1250" on="1"/>
        <pt x="1214" y="1250" on="0"/>
        <pt x="996" y="1080" on="0"/>
        <pt x="915" y="1080" on="1"/>
        <pt x="831" y="1080" on="0"/>
        <pt x="580" y="1250" on="0"/>
        <pt x="538" y="1250" on="1"/>
        <pt x="456" y="1250" on="0"/>
        <pt x="327" y="1161" on="0"/>
        <pt x="327" y="1125" on="1"/>
        <pt x="327" y="1081" on="0"/>
      </contour>
    </TTGlyph>
    <TTGlyph name="uni1785_17C5" xMin="100" yMin="0" xMax="1950" yMax="1900">
      <contour>
        <pt x="900" y="800" on="1"/>
        <pt x="900" y="760" on="0"/>
        <pt x="925" y="760" on="1"/>
        <pt x="950" y="760" on="0"/>
        <pt x="950" y="821" on="1"/>
        <pt x="950" y="871" on="0"/>
        <pt x="925" y="871" on="1"/>
        <pt x="900" y="871" on="0"/>
      </contour>
      <contour>
        <pt x="1857" y="1156" on="1"/>
        <pt x="1900" y="1081" on="0"/>
        <pt x="1900" y="1000" on="1"/>
        <pt x="1900" y="0" on="1"/>
        <pt x="1600" y="0" on="1"/>
        <pt x="1600" y="1000" on="1"/>
        <pt x="1600" y="1082" on="0"/>
        <pt x="1327" y="1250" on="0"/>
        <pt x="1269" y="1250" on="1"/>
        <pt x="1214" y="1250" on="0"/>
        <pt x="996" y="1080" on="0"/>
        <pt x="915" y="1080" on="1"/>
        <pt x="831" y="1080" on="0"/>
        <pt x="580" y="1250" on="0"/>
        <pt x="538" y="1250" on="1"/>
        <pt x="456" y="1250" on="0"/>
        <pt x="327" y="1161" on="0"/>
        <pt x="327" y="1125" on="1"/>
        <pt x="327" y="1081" on="0"/>
        <pt x="500" y="1030" on="1"/>
        <pt x="500" y="300" on="1"/>
        <pt x="500" y="100" on="0"/>
        <pt x="700" y="100" on="1"/>
        <pt x="900" y="100" on="0"/>
        <pt x="900" y="300" on="1"/>
        <pt x="900" y="650" on="1"/>
        <pt x="800" y="650" on="0"/>
        <pt x="800" y="800" on="1"/>
        <pt x="800" y="1000" on="0"/>
        <pt x="1000" y="1000" on="1"/>
        <pt x="1200" y="1000" on="0"/>
        <pt x="1200" y="900" on="1"/>
        <pt x="1200" y="300" on="1"/>
        <pt x="1200" y="0" on="0"/>
        <pt x="700" y="0" on="1"/>
        <pt x="200" y="0" on="0"/>
        <pt x="200" y="300" on="1"/>
        <pt x="200" y="1008" on="1"/>
        <pt x="100" y="1067" on="0"/>
        <pt x="100" y="1140" on="1"/>
        <pt x="100" y="1171" on="1"/>
        <pt x="100" y="1236" on="0"/>
        <pt x="468" y="1500" on="0"/>
        <pt x="556" y="1500" on="1"/>
        <pt x="644" y="1500" on="0"/>
        <pt x="815" y="1383" on="1"/>
        <pt x="899" y="1326" on="1"/>
        <pt x="941" y="1300" on="0"/>
        <pt x="989" y="1300" on="1"/>
        <pt x="1045" y="1300" on="0"/>
        <pt x="1177" y="1421" on="1"/>
        <pt x="1263" y="1500" on="0"/>
        <pt x="1351" y="1500" on="1"/>
        <pt x="1435" y="1500" on="0"/>
        <pt x="1650" y="1358" on="1"/>
        <pt x="1650" y="1700" on="1"/>
        <pt x="1650" y="1800" on="0"/>
        <pt x="1600" y="1800" on="1"/>
        <pt x="1600" y="1900" on="0"/>
        <pt x="1775" y="1900" on="1"/>
        <pt x="1950" y="1900" on="0"/>
        <pt x="1950" y="1700" on="1"/>
        <pt x="1950" y="1400" on="1"/>
        <pt x="1950" y="1322" on="0"/>
      </contour>
    </TTGlyph>
    <TTGlyph name="uni1786" xMin="100" yMin="0" xMax="1250" yMax="1500">
      <contour>
        <pt x="900" y="800" on="1"/>
        <pt x="900" y="760" on="0"/>
        <pt x="925" y="760" on="1"/>
        <pt x="950" y="760" on="0"/>
        <pt x="950" y="821" on="1"/>
        <pt x="950" y="871" on="0"/>
        <pt x="925" y="871" on="1"/>
        <pt x="900" y="871" on="0"/>
      </contour>
      <contour>
        <pt x="200" y="1017" on="1"/>
        <pt x="150" y="1061" on="0"/>
        <pt x="130" y="1127" on="1"/>
        <pt x="130" y="1202" on="1"/>
        <pt x="150" y="1254" on="0"/>
        <pt x="214" y="1315" on="1"/>
        <pt x="279" y="1376" on="1"/>
        <pt x="407" y="1500" on="0"/>
        <pt x="439" y="1500" on="1"/>
        <pt x="475" y="1500" on="0"/>
        <pt x="581" y="1388" on="1"/>
        <pt x="634" y="1332" on="1"/>
        <pt x="661" y="1303" on="0"/>
        <pt x="690" y="1303" on="1"/>
        <pt x="715" y="1303" on="0"/>
        <pt x="740" y="1332" on="1"/>
        <pt x="789" y="1388" on="1"/>
        <pt x="889" y="1500" on="0"/>
        <pt x="924" y="1500" on="1"/>
        <pt x="958" y="1500" on="0"/>
        <pt x="1014" y="1438" on="1"/>
        <pt x="1130" y="1313" on="1"/>
        <pt x="1165" y="1276" on="0"/>
        <pt x="1200" y="1276" on="1"/>
        <pt x="1225" y="1276" on="0"/>
        <pt x="1250" y="1294" on="1"/>
        <pt x="1181" y="1097" on="0"/>
        <pt x="1117" y="1097" on="1"/>
        <pt x="1051" y="1097" on="0"/>
        <pt x="899" y="1238" on="0"/>
        <pt x="867" y="1238" on="1"/>
        <pt x="825" y="1238" on="0"/>
        <pt x="710" y="1097" on="0"/>
        <pt x="661" y="1097" on="1"/>
        <pt x="590" y="1097" on="0"/>
        <pt x="420" y="1238" on="0"/>
        <pt x="383" y="1238" on="1"/>
        <pt x="351" y="1238" on="0"/>
        <pt x="317" y="1194" on="0"/>
        <pt x="317" y="1158" on="1"/>
        <pt x="317" y="1128" on="0"/>
        <pt x="442" y="1030" on="0"/>
        <pt x="500" y="1030" on="1"/>
        <pt x="500" y="500" on="1"/>
        <pt x="750" y="500" on="0"/>
        <pt x="750" y="250" on="1"/>
        <pt x="750" y="100" on="0"/>
        <pt x="850" y="100" on="1"/>
        <pt x="900" y="100" on="0"/>
        <pt x="900" y="250" on="1"/>
        <pt x="900" y="650" on="1"/>
        <pt x="800" y="650" on="0"/>
        <pt x="800" y="800" on="1"/>
        <pt x="800" y="1000" on="0"/>
        <pt x="1000" y="1000" on="1"/>
        <pt x="1200" y="1000" on="0"/>
        <pt x="1200" y="900" on="1"/>
        <pt x="1200" y="250" on="1"/>
        <pt x="1200" y="0" on="0"/>
        <pt x="850" y="0" on="1"/>
        <pt x="600" y="0" on="0"/>
        <pt x="600" y="250" on="1"/>
        <pt x="600" y="400" on="0"/>
        <pt x="500" y="400" on="1"/>
        <pt x="500" y="100" on="1"/>
        <pt x="500" y="0" on="0"/>
        <pt x="300" y="0" on="1"/>
        <pt x="200" y="0" on="0"/>
        <pt x="100" y="190" on="0"/>
        <pt x="100" y="300" on="1"/>
        <pt x="100" y="500" on="0"/>
        <pt x="200" y="500" on="1"/>
      </contour>
    </TTGlyph>
    <TTGlyph name="uni1786_17B6" xMin="100" yMin="0" xMax="1900" yMax="1500">
      <contour>
        <pt x="900" y="800" on="1"/>
        <pt x="900" y="760" on="0"/>
        <pt x="925" y="760" on="1"/>
        <pt x="950" y="760" on="0"/>
        <pt x="950" y="821" on="1"/>
        <pt x="950" y="871" on="0"/>
        <pt x="925" y="871" on="1"/>
        <pt x="900" y="871" on="0"/>
      </contour>
      <contour>
        <pt x="500" y="500" on="1"/>
        <pt x="750" y="500" on="0"/>
        <pt x="750" y="250" on="1"/>
        <pt x="750" y="100" on="0"/>
        <pt x="850" y="100" on="1"/>
        <pt x="900" y="100" on="0"/>
        <pt x="900" y="250" on="1"/>
        <pt x="900" y="650" on="1"/>
        <pt x="800" y="650" on="0"/>
        <pt x="800" y="800" on="1"/>
        <pt x="800" y="1000" on="0"/>
        <pt x="1000" y="1000" on="1"/>
        <pt x="1200" y="1000" on="0"/>
        <pt x="1200" y="900" on="1"/>
        <pt x="1200" y="250" on="1"/>
        <pt x="1200" y="0" on="0"/>
        <pt x="850" y="0" on="1"/>
        <pt x="600" y="0" on="0"/>
        <pt x="600" y="250" on="1"/>
        <pt x="600" y="400" on="0"/>
        <pt x="500" y="400" on="1"/>
        <pt x="500" y="100" on="1"/>
        <pt x="500" y="0" on="0"/>
        <pt x="300" y="0" on="1"/>
        <pt x="200" y="0" on="0"/>
        <pt x="100" y="190" on="0"/>
        <pt x="100" y="300" on="1"/>
        <pt x="100" y="500" on="0"/>
        <pt x="200" y="500" on="1"/>
        <pt x="200" y="1008" on="1"/>
        <pt x="100" y="1067" on="0"/>
        <pt x="100" y="1140" on="1"/>
        <pt x="100" y="1171" on="1"/>
        <pt x="100" y="1236" on="0"/>
        <pt x="468" y="1500" on="0"/>
        <pt x="556" y="1500" on="1"/>
        <pt x="644" y="1500" on="0"/>
        <pt x="815" y="1383" on="1"/>
        <pt x="899" y="1326" on="1"/>
        <pt x="941" y="1300" on="0"/>
        <pt x="989" y="1300" on="1"/>
        <pt x="1045" y="1300" on="0"/>
        <pt x="1177" y="1421" on="1"/>
        <pt x="1263" y="1500" on="0"/>
        <pt x="1351" y="1500" on="1"/>
        <pt x="1439" y="1500" on="0"/>
        <pt x="1900" y="1189" on="0"/>
        <pt x="1900" y="1000" on="1"/>
        <pt x="1900" y="0" on="1"/>
        <pt x="1600" y="0" on="1"/>
        <pt x="1600" y="1000" on="1"/>
        <pt x="1600" y="1082" on="0"/>
        <pt x="1327" y="1250" on="0"/>
        <pt x="1269" y="1250" on="1"/>
        <pt x="1214" y="1250" on="0"/>
        <pt x="996" y="1080" on="0"/>
        <pt x="915" y="1080" on="1"/>
        <pt x="831" y="1080" on="0"/>
        <pt x="580" y="1250" on="0"/>
        <pt x="538" y="1250" on="1"/>
        <pt x="456" y="1250" on="0"/>
        <pt x="327" y="1161" on="0"/>
        <pt x="327" y="1125" on="1"/>
        <pt x="327" y="1081" on="0"/>
        <pt x="500" y="1030" on="1"/>
      </contour>
    </TTGlyph>
    <TTGlyph name="uni1786_17C5" xMin="100" yMin="0" xMax="1950" yMax="1900">
      <contour>
        <pt x="900" y="800" on="1"/>
        <pt x="900" y="760" on="0"/>
        <pt x="925" y="760" on="1"/>
        <pt x="950" y="760" on="0"/>
        <pt x="950" y="821" on="1"/>
        <pt x="950" y="871" on="0"/>
        <pt x="925" y="871" on="1"/>
        <pt x="900" y="871" on="0"/>
      </contour>
      <contour>
        <pt x="1857" y="1156" on="1"/>
        <pt x="1900" y="1081" on="0"/>
        <pt x="1900" y="1000" on="1"/>
        <pt x="1900" y="0" on="1"/>
        <pt x="1600" y="0" on="1"/>
        <pt x="1600" y="1000" on="1"/>
        <pt x="1600" y="1082" on="0"/>
        <pt x="1327" y="1250" on="0"/>
        <pt x="1269" y="1250" on="1"/>
        <pt x="1214" y="1250" on="0"/>
        <pt x="996" y="1080" on="0"/>
        <pt x="915" y="1080" on="1"/>
        <pt x="831" y="1080" on="0"/>
        <pt x="580" y="1250" on="0"/>
        <pt x="538" y="1250" on="1"/>
        <pt x="456" y="1250" on="0"/>
        <pt x="327" y="1161" on="0"/>
        <pt x="327" y="1125" on="1"/>
        <pt x="327" y="1081" on="0"/>
        <pt x="500" y="1030" on="1"/>
        <pt x="500" y="500" on="1"/>
        <pt x="750" y="500" on="0"/>
        <pt x="750" y="250" on="1"/>
        <pt x="750" y="100" on="0"/>
        <pt x="850" y="100" on="1"/>
        <pt x="900" y="100" on="0"/>
        <pt x="900" y="250" on="1"/>
        <pt x="900" y="650" on="1"/>
        <pt x="800" y="650" on="0"/>
        <pt x="800" y="800" on="1"/>
        <pt x="800" y="1000" on="0"/>
        <pt x="1000" y="1000" on="1"/>
        <pt x="1200" y="1000" on="0"/>
        <pt x="1200" y="900" on="1"/>
        <pt x="1200" y="250" on="1"/>
        <pt x="1200" y="0" on="0"/>
        <pt x="850" y="0" on="1"/>
        <pt x="600" y="0" on="0"/>
        <pt x="600" y="250" on="1"/>
        <pt x="600" y="400" on="0"/>
        <pt x="500" y="400" on="1"/>
        <pt x="500" y="100" on="1"/>
        <pt x="500" y="0" on="0"/>
        <pt x="300" y="0" on="1"/>
        <pt x="200" y="0" on="0"/>
        <pt x="100" y="190" on="0"/>
        <pt x="100" y="300" on="1"/>
        <pt x="100" y="500" on="0"/>
        <pt x="200" y="500" on="1"/>
        <pt x="200" y="1008" on="1"/>
        <pt x="100" y="1067" on="0"/>
        <pt x="100" y="1140" on="1"/>
        <pt x="100" y="1171" on="1"/>
        <pt x="100" y="1236" on="0"/>
        <pt x="468" y="1500" on="0"/>
        <pt x="556" y="1500" on="1"/>
        <pt x="644" y="1500" on="0"/>
        <pt x="815" y="1383" on="1"/>
        <pt x="899" y="1326" on="1"/>
        <pt x="941" y="1300" on="0"/>
        <pt x="989" y="1300" on="1"/>
        <pt x="1045" y="1300" on="0"/>
        <pt x="1177" y="1421" on="1"/>
        <pt x="1263" y="1500" on="0"/>
        <pt x="1351" y="1500" on="1"/>
        <pt x="1435" y="1500" on="0"/>
        <pt x="1650" y="1358" on="1"/>
        <pt x="1650" y="1700" on="1"/>
        <pt x="1650" y="1800" on="0"/>
        <pt x="1600" y="1800" on="1"/>
        <pt x="1600" y="1900" on="0"/>
        <pt x="1775" y="1900" on="1"/>
        <pt x="1950" y="1900" on="0"/>
        <pt x="1950" y="1700" on="1"/>
        <pt x="1950" y="1400" on="1"/>
        <pt x="1950" y="1322" on="0"/>
      </contour>
    </TTGlyph>
    <TTGlyph name="uni1787" xMin="100" yMin="0" xMax="1200" yMax="1700">
      <contour>
        <pt x="900" y="192" on="1"/>
        <pt x="900" y="1000" on="1"/>
        <pt x="1200" y="1000" on="1"/>
        <pt x="1200" y="100" on="1"/>
        <pt x="1200" y="0" on="0"/>
        <pt x="1050" y="0" on="1"/>
        <pt x="950" y="0" on="0"/>
        <pt x="888" y="63" on="1"/>
        <pt x="700" y="250" on="1"/>
        <pt x="513" y="63" on="1"/>
        <pt x="450" y="0" on="0"/>
        <pt x="350" y="0" on="1"/>
        <pt x="200" y="0" on="0"/>
        <pt x="200" y="100" on="1"/>
        <pt x="200" y="1010" on="1"/>
        <pt x="129" y="1076" on="0"/>
        <pt x="100" y="1127" on="0"/>
        <pt x="100" y="1165" on="1"/>
        <pt x="100" y="1202" on="0"/>
        <pt x="115" y="1228" on="1"/>
        <pt x="129" y="1254" on="0"/>
        <pt x="362" y="1500" on="0"/>
        <pt x="449" y="1500" on="1"/>
        <pt x="545" y="1500" on="0"/>
        <pt x="924" y="1250" on="0"/>
        <pt x="980" y="1250" on="1"/>
        <pt x="1070" y="1250" on="0"/>
        <pt x="1070" y="1320" on="1"/>
        <pt x="1070" y="1370" on="0"/>
        <pt x="1000" y="1450" on="0"/>
        <pt x="940" y="1450" on="1"/>
        <pt x="810" y="1450" on="0"/>
        <pt x="810" y="1575" on="1"/>
        <pt x="810" y="1700" on="0"/>
        <pt x="940" y="1700" on="1"/>
        <pt x="1050" y="1700" on="0"/>
        <pt x="1200" y="1520" on="0"/>
        <pt x="1200" y="1370" on="1"/>
        <pt x="1200" y="1248" on="0"/>
        <pt x="1039" y="1096" on="0"/>
        <pt x="900" y="1096" on="1"/>
        <pt x="653" y="1096" on="0"/>
        <pt x="401" y="1255" on="0"/>
        <pt x="372" y="1255" on="1"/>
        <pt x="369" y="1255" on="0"/>
        <pt x="366" y="1254" on="1"/>
        <pt x="338" y="1249" on="0"/>
        <pt x="299" y="1201" on="0"/>
        <pt x="299" y="1168" on="1"/>
        <pt x="299" y="1134" on="0"/>
        <pt x="500" y="1041" on="1"/>
        <pt x="500" y="192" on="1"/>
        <pt x="630" y="321" on="1"/>
        <pt x="665" y="356" on="0"/>
        <pt x="700" y="356" on="1"/>
        <pt x="736" y="356" on="0"/>
        <pt x="771" y="321" on="1"/>
      </contour>
    </TTGlyph>
    <TTGlyph name="uni1787_17B6" xMin="100" yMin="0" xMax="1900" yMax="1700">
      <contour>
        <pt x="1084" y="1144" on="1"/>
        <pt x="1010" y="1096" on="0"/>
        <pt x="900" y="1096" on="1"/>
        <pt x="653" y="1096" on="0"/>
        <pt x="401" y="1255" on="0"/>
        <pt x="372" y="1255" on="1"/>
        <pt x="369" y="1255" on="0"/>
        <pt x="366" y="1254" on="1"/>
        <pt x="338" y="1249" on="0"/>
        <pt x="299" y="1201" on="0"/>
        <pt x="299" y="1168" on="1"/>
        <pt x="299" y="1134" on="0"/>
        <pt x="500" y="1041" on="1"/>
        <pt x="500" y="192" on="1"/>
        <pt x="630" y="321" on="1"/>
        <pt x="665" y="356" on="0"/>
        <pt x="700" y="356" on="1"/>
        <pt x="736" y="356" on="0"/>
        <pt x="771" y="321" on="1"/>
        <pt x="900" y="192" on="1"/>
        <pt x="900" y="1000" on="1"/>
        <pt x="1200" y="1000" on="1"/>
        <pt x="1200" y="100" on="1"/>
        <pt x="1200" y="0" on="0"/>
        <pt x="1050" y="0" on="1"/>
        <pt x="950" y="0" on="0"/>
        <pt x="888" y="63" on="1"/>
        <pt x="700" y="250" on="1"/>
        <pt x="513" y="63" on="1"/>
        <pt x="450" y="0" on="0"/>
        <pt x="350" y="0" on="1"/>
        <pt x="200" y="0" on="0"/>
        <pt x="200" y="100" on="1"/>
        <pt x="200" y="1010" on="1"/>
        <pt x="129" y="1076" on="0"/>
        <pt x="100" y="1127" on="0"/>
        <pt x="100" y="1165" on="1"/>
        <pt x="100" y="1202" on="0"/>
        <pt x="115" y="1228" on="1"/>
        <pt x="129" y="1254" on="0"/>
        <pt x="362" y="1500" on="0"/>
        <pt x="449" y="1500" on="1"/>
        <pt x="545" y="1500" on="0"/>
        <pt x="924" y="1250" on="0"/>
        <pt x="980" y="1250" on="1"/>
        <pt x="1070" y="1250" on="0"/>
        <pt x="1070" y="1320" on="1"/>
        <pt x="1070" y="1370" on="0"/>
        <pt x="1000" y="1450" on="0"/>
        <pt x="940" y="1450" on="1"/>
        <pt x="810" y="1450" on="0"/>
        <pt x="810" y="1575" on="1"/>
        <pt x="810" y="1700" on="0"/>
        <pt x="940" y="1700" on="1"/>
        <pt x="1050" y="1700" on="0"/>
        <pt x="1125" y="1610" on="1"/>
        <pt x="1197" y="1523" on="0"/>
        <pt x="1200" y="1382" on="1"/>
        <pt x="1339" y="1500" on="0"/>
        <pt x="1435" y="1500" on="1"/>
        <pt x="1536" y="1500" on="0"/>
        <pt x="1900" y="1284" on="0"/>
        <pt x="1900" y="1100" on="1"/>
        <pt x="1900" y="0" on="1"/>
        <pt x="1600" y="0" on="1"/>
        <pt x="1600" y="1100" on="1"/>
        <pt x="1600" y="1179" on="0"/>
        <pt x="1440" y="1263" on="0"/>
        <pt x="1365" y="1263" on="1"/>
        <pt x="1305" y="1263" on="0"/>
      </contour>
    </TTGlyph>
    <TTGlyph name="uni1787_17C5" xMin="100" yMin="0" xMax="1950" yMax="1900">
      <contour>
        <pt x="1883" y="1204" on="1"/>
        <pt x="1900" y="1156" on="0"/>
        <pt x="1900" y="1100" on="1"/>
        <pt x="1900" y="0" on="1"/>
        <pt x="1600" y="0" on="1"/>
        <pt x="1600" y="1100" on="1"/>
        <pt x="1600" y="1179" on="0"/>
        <pt x="1440" y="1263" on="0"/>
        <pt x="1365" y="1263" on="1"/>
        <pt x="1305" y="1263" on="0"/>
        <pt x="1084" y="1144" on="1"/>
        <pt x="1010" y="1096" on="0"/>
        <pt x="900" y="1096" on="1"/>
        <pt x="653" y="1096" on="0"/>
        <pt x="401" y="1255" on="0"/>
        <pt x="372" y="1255" on="1"/>
        <pt x="369" y="1255" on="0"/>
        <pt x="366" y="1254" on="1"/>
        <pt x="338" y="1249" on="0"/>
        <pt x="299" y="1201" on="0"/>
        <pt x="299" y="1168" on="1"/>
        <pt x="299" y="1134" on="0"/>
        <pt x="500" y="1041" on="1"/>
        <pt x="500" y="192" on="1"/>
        <pt x="630" y="321" on="1"/>
        <pt x="665" y="356" on="0"/>
        <pt x="700" y="356" on="1"/>
        <pt x="736" y="356" on="0"/>
        <pt x="771" y="321" on="1"/>
        <pt x="900" y="192" on="1"/>
        <pt x="900" y="1000" on="1"/>
        <pt x="1200" y="1000" on="1"/>
        <pt x="1200" y="100" on="1"/>
        <pt x="1200" y="0" on="0"/>
        <pt x="1050" y="0" on="1"/>
        <pt x="950" y="0" on="0"/>
        <pt x="888" y="63" on="1"/>
        <pt x="700" y="250" on="1"/>
        <pt x="513" y="63" on="1"/>
        <pt x="450" y="0" on="0"/>
        <pt x="350" y="0" on="1"/>
        <pt x="200" y="0" on="0"/>
        <pt x="200" y="100" on="1"/>
        <pt x="200" y="1010" on="1"/>
        <pt x="129" y="1076" on="0"/>
        <pt x="100" y="1127" on="0"/>
        <pt x="100" y="1165" on="1"/>
        <pt x="100" y="1202" on="0"/>
        <pt x="115" y="1228" on="1"/>
        <pt x="129" y="1254" on="0"/>
        <pt x="362" y="1500" on="0"/>
        <pt x="449" y="1500" on="1"/>
        <pt x="545" y="1500" on="0"/>
        <pt x="924" y="1250" on="0"/>
        <pt x="980" y="1250" on="1"/>
        <pt x="1070" y="1250" on="0"/>
        <pt x="1070" y="1320" on="1"/>
        <pt x="1070" y="1370" on="0"/>
        <pt x="1000" y="1450" on="0"/>
        <pt x="940" y="1450" on="1"/>
        <pt x="810" y="1450" on="0"/>
        <pt x="810" y="1575" on="1"/>
        <pt x="810" y="1700" on="0"/>
        <pt x="940" y="1700" on="1"/>
        <pt x="1050" y="1700" on="0"/>
        <pt x="1125" y="1610" on="1"/>
        <pt x="1197" y="1523" on="0"/>
        <pt x="1200" y="1382" on="1"/>
        <pt x="1339" y="1500" on="0"/>
        <pt x="1435" y="1500" on="1"/>
        <pt x="1516" y="1500" on="0"/>
        <pt x="1650" y="1430" on="1"/>
        <pt x="1650" y="1700" on="1"/>
        <pt x="1650" y="1800" on="0"/>
        <pt x="1600" y="1800" on="1"/>
        <pt x="1600" y="1900" on="0"/>
        <pt x="1775" y="1900" on="1"/>
        <pt x="1950" y="1900" on="0"/>
        <pt x="1950" y="1700" on="1"/>
        <pt x="1950" y="1400" on="1"/>
        <pt x="1950" y="1333" on="0"/>
      </contour>
    </TTGlyph>
    <TTGlyph name="uni1788" xMin="200" yMin="0" xMax="2700" yMax="1500">
      <contour>
        <pt x="500" y="200" on="1"/>
        <pt x="550" y="200" on="0"/>
        <pt x="550" y="400" on="1"/>
        <pt x="550" y="480" on="0"/>
        <pt x="500" y="480" on="1"/>
        <pt x="450" y="480" on="0"/>
        <pt x="450" y="383" on="1"/>
        <pt x="450" y="285" on="1"/>
        <pt x="450" y="200" on="0"/>
      </contour>
      <contour>
        <pt x="1600" y="943" on="1"/>
        <pt x="1600" y="1049" on="0"/>
        <pt x="1450" y="1081" on="1"/>
        <pt x="1470" y="1182" on="0"/>
        <pt x="1641" y="1500" on="0"/>
        <pt x="1695" y="1500" on="1"/>
        <pt x="1739" y="1500" on="0"/>
        <pt x="1810" y="1457" on="1"/>
        <pt x="1880" y="1414" on="1"/>
        <pt x="1911" y="1395" on="0"/>
        <pt x="1953" y="1395" on="1"/>
        <pt x="1975" y="1395" on="0"/>
        <pt x="2000" y="1400" on="1"/>
        <pt x="1990" y="1330" on="0"/>
        <pt x="1915" y="1173" on="0"/>
        <pt x="1866" y="1167" on="1"/>
        <pt x="1860" y="1166" on="0"/>
        <pt x="1853" y="1166" on="1"/>
        <pt x="1805" y="1166" on="0"/>
        <pt x="1728" y="1208" on="1"/>
        <pt x="1688" y="1229" on="0"/>
        <pt x="1661" y="1229" on="1"/>
        <pt x="1627" y="1229" on="0"/>
        <pt x="1613" y="1197" on="1"/>
        <pt x="1586" y="1138" on="1"/>
        <pt x="1900" y="1080" on="0"/>
        <pt x="1900" y="1000" on="1"/>
        <pt x="1900" y="300" on="1"/>
        <pt x="1900" y="100" on="0"/>
        <pt x="2100" y="100" on="1"/>
        <pt x="2300" y="100" on="0"/>
        <pt x="2300" y="300" on="1"/>
        <pt x="2300" y="943" on="1"/>
        <pt x="2300" y="1049" on="0"/>
        <pt x="2150" y="1081" on="1"/>
        <pt x="2170" y="1182" on="0"/>
        <pt x="2341" y="1500" on="0"/>
        <pt x="2395" y="1500" on="1"/>
        <pt x="2439" y="1500" on="0"/>
        <pt x="2510" y="1457" on="1"/>
        <pt x="2580" y="1414" on="1"/>
        <pt x="2611" y="1395" on="0"/>
        <pt x="2653" y="1395" on="1"/>
        <pt x="2675" y="1395" on="0"/>
        <pt x="2700" y="1400" on="1"/>
        <pt x="2690" y="1330" on="0"/>
        <pt x="2615" y="1173" on="0"/>
        <pt x="2566" y="1167" on="1"/>
        <pt x="2560" y="1166" on="0"/>
        <pt x="2553" y="1166" on="1"/>
        <pt x="2505" y="1166" on="0"/>
        <pt x="2428" y="1208" on="1"/>
        <pt x="2388" y="1229" on="0"/>
        <pt x="2361" y="1229" on="1"/>
        <pt x="2327" y="1229" on="0"/>
        <pt x="2313" y="1197" on="1"/>
        <pt x="2286" y="1138" on="1"/>
        <pt x="2600" y="1080" on="0"/>
        <pt x="2600" y="1000" on="1"/>
        <pt x="2600" y="300" on="1"/>
        <pt x="2600" y="0" on="0"/>
        <pt x="2100" y="0" on="1"/>
        <pt x="1874" y="0" on="0"/>
        <pt x="1750" y="61" on="1"/>
        <pt x="1626" y="0" on="0"/>
        <pt x="1400" y="0" on="1"/>
        <pt x="900" y="0" on="0"/>
        <pt x="900" y="300" on="1"/>
        <pt x="900" y="1200" on="1"/>
        <pt x="900" y="1400" on="0"/>
        <pt x="700" y="1400" on="1"/>
        <pt x="500" y="1400" on="0"/>
        <pt x="500" y="1200" on="1"/>
        <pt x="500" y="600" on="1"/>
        <pt x="650" y="600" on="0"/>
        <pt x="650" y="400" on="1"/>
        <pt x="650" y="200" on="0"/>
        <pt x="525" y="0" on="0"/>
        <pt x="400" y="0" on="1"/>
        <pt x="200" y="0" on="0"/>
        <pt x="200" y="100" on="1"/>
        <pt x="200" y="1200" on="1"/>
        <pt x="200" y="1500" on="0"/>
        <pt x="700" y="1500" on="1"/>
        <pt x="1200" y="1500" on="0"/>
        <pt x="1200" y="1200" on="1"/>
        <pt x="1200" y="300" on="1"/>
        <pt x="1200" y="100" on="0"/>
        <pt x="1400" y="100" on="1"/>
        <pt x="1600" y="100" on="0"/>
        <pt x="1600" y="300" on="1"/>
      </contour>
    </TTGlyph>
    <TTGlyph name="uni1788_17B6" xMin="200" yMin="0" xMax="3300" yMax="1500">
      <contour>
        <pt x="500" y="200" on="1"/>
        <pt x="550" y="200" on="0"/>
        <pt x="550" y="400" on="1"/>
        <pt x="550" y="480" on="0"/>
        <pt x="500" y="480" on="1"/>
        <pt x="450" y="480" on="0"/>
        <pt x="450" y="383" on="1"/>
        <pt x="450" y="285" on="1"/>
        <pt x="450" y="200" on="0"/>
      </contour>
      <contour>
        <pt x="2600" y="300" on="1"/>
        <pt x="2600" y="0" on="0"/>
        <pt x="2100" y="0" on="1"/>
        <pt x="1874" y="0" on="0"/>
        <pt x="1750" y="61" on="1"/>
        <pt x="1626" y="0" on="0"/>
        <pt x="1400" y="0" on="1"/>
        <pt x="900" y="0" on="0"/>
        <pt x="900" y="300" on="1"/>
        <pt x="900" y="1200" on="1"/>
        <pt x="900" y="1400" on="0"/>
        <pt x="700" y="1400" on="1"/>
        <pt x="500" y="1400" on="0"/>
        <pt x="500" y="1200" on="1"/>
        <pt x="500" y="600" on="1"/>
        <pt x="650" y="600" on="0"/>
        <pt x="650" y="400" on="1"/>
        <pt x="650" y="200" on="0"/>
        <pt x="525" y="0" on="0"/>
        <pt x="400" y="0" on="1"/>
        <pt x="200" y="0" on="0"/>
        <pt x="200" y="100" on="1"/>
        <pt x="200" y="1200" on="1"/>
        <pt x="200" y="1500" on="0"/>
        <pt x="700" y="1500" on="1"/>
        <pt x="1200" y="1500" on="0"/>
        <pt x="1200" y="1200" on="1"/>
        <pt x="1200" y="300" on="1"/>
        <pt x="1200" y="100" on="0"/>
        <pt x="1400" y="100" on="1"/>
        <pt x="1600" y="100" on="0"/>
        <pt x="1600" y="300" on="1"/>
        <pt x="1600" y="943" on="1"/>
        <pt x="1600" y="1049" on="0"/>
        <pt x="1450" y="1081" on="1"/>
        <pt x="1470" y="1182" on="0"/>
        <pt x="1641" y="1500" on="0"/>
        <pt x="1695" y="1500" on="1"/>
        <pt x="1739" y="1500" on="0"/>
        <pt x="1810" y="1457" on="1"/>
        <pt x="1880" y="1414" on="1"/>
        <pt x="1911" y="1395" on="0"/>
        <pt x="1953" y="1395" on="1"/>
        <pt x="1975" y="1395" on="0"/>
        <pt x="2000" y="1400" on="1"/>
        <pt x="1990" y="1330" on="0"/>
        <pt x="1915" y="1173" on="0"/>
        <pt x="1866" y="1167" on="1"/>
        <pt x="1860" y="1166" on="0"/>
        <pt x="1853" y="1166" on="1"/>
        <pt x="1805" y="1166" on="0"/>
        <pt x="1728" y="1208" on="1"/>
        <pt x="1688" y="1229" on="0"/>
        <pt x="1661" y="1229" on="1"/>
        <pt x="1627" y="1229" on="0"/>
        <pt x="1613" y="1197" on="1"/>
        <pt x="1586" y="1138" on="1"/>
        <pt x="1900" y="1080" on="0"/>
        <pt x="1900" y="1000" on="1"/>
        <pt x="1900" y="300" on="1"/>
        <pt x="1900" y="100" on="0"/>
        <pt x="2100" y="100" on="1"/>
        <pt x="2300" y="100" on="0"/>
        <pt x="2300" y="300" on="1"/>
        <pt x="2300" y="943" on="1"/>
        <pt x="2300" y="1049" on="0"/>
        <pt x="2150" y="1081" on="1"/>
        <pt x="2181" y="1182" on="0"/>
        <pt x="2445" y="1500" on="0"/>
        <pt x="2529" y="1500" on="1"/>
        <pt x="2652" y="1500" on="0"/>
        <pt x="3300" y="1266" on="0"/>
        <pt x="3300" y="1030" on="1"/>
        <pt x="3300" y="0" on="1"/>
        <pt x="3000" y="0" on="1"/>
        <pt x="3000" y="1030" on="1"/>
        <pt x="3000" y="1111" on="0"/>
        <pt x="2922" y="1142" on="1"/>
        <pt x="2724" y="1209" on="1"/>
        <pt x="2599" y="1258" on="0"/>
        <pt x="2511" y="1258" on="1"/>
        <pt x="2423" y="1258" on="0"/>
        <pt x="2380" y="1197" on="1"/>
        <pt x="2340" y="1138" on="1"/>
        <pt x="2600" y="1080" on="0"/>
        <pt x="2600" y="1000" on="1"/>
      </contour>
    </TTGlyph>
    <TTGlyph name="uni1788_17C5" xMin="200" yMin="0" xMax="3350" yMax="1900">
      <contour>
        <pt x="500" y="200" on="1"/>
        <pt x="550" y="200" on="0"/>
        <pt x="550" y="400" on="1"/>
        <pt x="550" y="480" on="0"/>
        <pt x="500" y="480" on="1"/>
        <pt x="450" y="480" on="0"/>
        <pt x="450" y="383" on="1"/>
        <pt x="450" y="285" on="1"/>
        <pt x="450" y="200" on="0"/>
      </contour>
      <contour>
        <pt x="3266" y="1171" on="1"/>
        <pt x="3300" y="1107" on="0"/>
        <pt x="3300" y="1030" on="1"/>
        <pt x="3300" y="0" on="1"/>
        <pt x="3000" y="0" on="1"/>
        <pt x="3000" y="1030" on="1"/>
        <pt x="3000" y="1111" on="0"/>
        <pt x="2922" y="1142" on="1"/>
        <pt x="2724" y="1209" on="1"/>
        <pt x="2599" y="1258" on="0"/>
        <pt x="2511" y="1258" on="1"/>
        <pt x="2423" y="1258" on="0"/>
        <pt x="2380" y="1197" on="1"/>
        <pt x="2340" y="1138" on="1"/>
        <pt x="2600" y="1080" on="0"/>
        <pt x="2600" y="1000" on="1"/>
        <pt x="2600" y="300" on="1"/>
        <pt x="2600" y="0" on="0"/>
        <pt x="2100" y="0" on="1"/>
        <pt x="1874" y="0" on="0"/>
        <pt x="1750" y="61" on="1"/>
        <pt x="1626" y="0" on="0"/>
        <pt x="1400" y="0" on="1"/>
        <pt x="900" y="0" on="0"/>
        <pt x="900" y="300" on="1"/>
        <pt x="900" y="1200" on="1"/>
        <pt x="900" y="1400" on="0"/>
        <pt x="700" y="1400" on="1"/>
        <pt x="500" y="1400" on="0"/>
        <pt x="500" y="1200" on="1"/>
        <pt x="500" y="600" on="1"/>
        <pt x="650" y="600" on="0"/>
        <pt x="650" y="400" on="1"/>
        <pt x="650" y="200" on="0"/>
        <pt x="525" y="0" on="0"/>
        <pt x="400" y="0" on="1"/>
        <pt x="200" y="0" on="0"/>
        <pt x="200" y="100" on="1"/>
        <pt x="200" y="1200" on="1"/>
        <pt x="200" y="1500" on="0"/>
        <pt x="700" y="1500" on="1"/>
        <pt x="1200" y="1500" on="0"/>
        <pt x="1200" y="1200" on="1"/>
        <pt x="1200" y="300" on="1"/>
        <pt x="1200" y="100" on="0"/>
        <pt x="1400" y="100" on="1"/>
        <pt x="1600" y="100" on="0"/>
        <pt x="1600" y="300" on="1"/>
        <pt x="1600" y="943" on="1"/>
        <pt x="1600" y="1049" on="0"/>
        <pt x="1450" y="1081" on="1"/>
        <pt x="1470" y="1182" on="0"/>
        <pt x="1641" y="1500" on="0"/>
        <pt x="1695" y="1500" on="1"/>
        <pt x="1739" y="1500" on="0"/>
        <pt x="1810" y="1457" on="1"/>
        <pt x="1880" y="1414" on="1"/>
        <pt x="1911" y="1395" on="0"/>
        <pt x="1953" y="1395" on="1"/>
        <pt x="1975" y="1395" on="0"/>
        <pt x="2000" y="1400" on="1"/>
        <pt x="1990" y="1330" on="0"/>
        <pt x="1915" y="1173" on="0"/>
        <pt x="1866" y="1167" on="1"/>
        <pt x="1860" y="1166" on="0"/>
        <pt x="1853" y="1166" on="1"/>
        <pt x="1805" y="1166" on="0"/>
        <pt x="1728" y="1208" on="1"/>
        <pt x="1688" y="1229" on="0"/>
        <pt x="1661" y="1229" on="1"/>
        <pt x="1627" y="1229" on="0"/>
        <pt x="1613" y="1197" on="1"/>
        <pt x="1586" y="1138" on="1"/>
        <pt x="1900" y="1080" on="0"/>
        <pt x="1900" y="1000" on="1"/>
        <pt x="1900" y="300" on="1"/>
        <pt x="1900" y="100" on="0"/>
        <pt x="2100" y="100" on="1"/>
        <pt x="2300" y="100" on="0"/>
        <pt x="2300" y="300" on="1"/>
        <pt x="2300" y="943" on="1"/>
        <pt x="2300" y="1049" on="0"/>
        <pt x="2150" y="1081" on="1"/>
        <pt x="2181" y="1182" on="0"/>
        <pt x="2445" y="1500" on="0"/>
        <pt x="2529" y="1500" on="1"/>
        <pt x="2652" y="1500" on="0"/>
        <pt x="2976" y="1383" on="1"/>
        <pt x="3015" y="1369" on="0"/>
        <pt x="3050" y="1353" on="1"/>
        <pt x="3050" y="1700" on="1"/>
        <pt x="3050" y="1800" on="0"/>
        <pt x="3000" y="1800" on="1"/>
        <pt x="3000" y="1900" on="0"/>
        <pt x="3175" y="1900" on="1"/>
        <pt x="3350" y="1900" on="0"/>
        <pt x="3350" y="1700" on="1"/>
        <pt x="3350" y="1400" on="1"/>
        <pt x="3350" y="1325" on="0"/>
      </contour>
    </TTGlyph>
    <TTGlyph name="uni1789" xMin="200" yMin="-570" xMax="1900" yMax="1500">
      <contour>
        <pt x="1537" y="-200" on="1"/>
        <pt x="1537" y="-150" on="0"/>
        <pt x="1568" y="-125" on="1"/>
        <pt x="1601" y="-100" on="0"/>
        <pt x="1718" y="-100" on="1"/>
        <pt x="1808" y="-100" on="0"/>
        <pt x="1853" y="-150" on="1"/>
        <pt x="1900" y="-200" on="0"/>
        <pt x="1900" y="-300" on="1"/>
        <pt x="1900" y="-410" on="0"/>
        <pt x="1675" y="-570" on="0"/>
        <pt x="1487" y="-570" on="1"/>
        <pt x="1298" y="-570" on="0"/>
        <pt x="1184" y="-532" on="1"/>
        <pt x="1070" y="-495" on="0"/>
        <pt x="833" y="-357" on="1"/>
        <pt x="596" y="-220" on="0"/>
        <pt x="511" y="-220" on="1"/>
        <pt x="425" y="-220" on="0"/>
        <pt x="279" y="-275" on="0"/>
        <pt x="200" y="-340" on="1"/>
        <pt x="200" y="-280" on="0"/>
        <pt x="279" y="-185" on="0"/>
        <pt x="457" y="-100" on="0"/>
        <pt x="575" y="-100" on="1"/>
        <pt x="744" y="-100" on="0"/>
        <pt x="1016" y="-194" on="0"/>
        <pt x="1157" y="-291" on="1"/>
        <pt x="1425" y="-466" on="0"/>
        <pt x="1492" y="-466" on="1"/>
        <pt x="1537" y="-466" on="0"/>
        <pt x="1638" y="-400" on="0"/>
        <pt x="1638" y="-300" on="1"/>
        <pt x="1638" y="-273" on="1"/>
        <pt x="1621" y="-276" on="0"/>
        <pt x="1607" y="-276" on="1"/>
        <pt x="1589" y="-276" on="0"/>
        <pt x="1578" y="-270" on="1"/>
        <pt x="1558" y="-259" on="0"/>
        <pt x="1537" y="-221" on="0"/>
      </contour>
      <contour>
        <pt x="500" y="200" on="1"/>
        <pt x="550" y="200" on="0"/>
        <pt x="550" y="400" on="1"/>
        <pt x="550" y="460" on="0"/>
        <pt x="500" y="460" on="1"/>
        <pt x="450" y="460" on="0"/>
        <pt x="450" y="393" on="1"/>
        <pt x="450" y="275" on="1"/>
        <pt x="450" y="200" on="0"/>
      </contour>
      <contour>
        <pt x="1119" y="1382" on="1"/>
        <pt x="1153" y="1418" on="0"/>
        <pt x="1205" y="1445" on="1"/>
        <pt x="1313" y="1500" on="0"/>
        <pt x="1430" y="1500" on="1"/>
        <pt x="1900" y="1500" on="0"/>
        <pt x="1900" y="1200" on="1"/>
        <pt x="1900" y="0" on="1"/>
        <pt x="1600" y="0" on="1"/>
        <pt x="1600" y="1200" on="1"/>
        <pt x="1600" y="1400" on="0"/>
        <pt x="1430" y="1400" on="1"/>
        <pt x="1322" y="1400" on="0"/>
        <pt x="1200" y="1294" on="0"/>
        <pt x="1200" y="1200" on="1"/>
        <pt x="1200" y="0" on="1"/>
        <pt x="900" y="0" on="1"/>
        <pt x="900" y="1200" on="1"/>
        <pt x="900" y="1308" on="0"/>
        <pt x="855" y="1308" on="1"/>
        <pt x="809" y="1308" on="0"/>
        <pt x="700" y="1200" on="1"/>
        <pt x="592" y="1308" on="0"/>
        <pt x="546" y="1308" on="1"/>
        <pt x="500" y="1308" on="0"/>
        <pt x="500" y="1200" on="1"/>
        <pt x="500" y="600" on="1"/>
        <pt x="650" y="600" on="0"/>
        <pt x="650" y="400" on="1"/>
        <pt x="650" y="200" on="0"/>
        <pt x="525" y="0" on="0"/>
        <pt x="400" y="0" on="1"/>
        <pt x="200" y="0" on="0"/>
        <pt x="200" y="100" on="1"/>
        <pt x="200" y="1200" on="1"/>
        <pt x="200" y="1322" on="0"/>
        <pt x="430" y="1500" on="0"/>
        <pt x="489" y="1500" on="1"/>
        <pt x="539" y="1500" on="0"/>
        <pt x="700" y="1366" on="1"/>
        <pt x="862" y="1500" on="0"/>
        <pt x="912" y="1500" on="1"/>
        <pt x="971" y="1500" on="0"/>
        <pt x="1086" y="1411" on="1"/>
        <pt x="1103" y="1397" on="0"/>
      </contour>
    </TTGlyph>
    <TTGlyph name="uni1789.a" xMin="200" yMin="0" xMax="1900" yMax="1500">
      <contour>
        <pt x="500" y="200" on="1"/>
        <pt x="550" y="200" on="0"/>
        <pt x="550" y="400" on="1"/>
        <pt x="550" y="460" on="0"/>
        <pt x="500" y="460" on="1"/>
        <pt x="450" y="460" on="0"/>
        <pt x="450" y="393" on="1"/>
        <pt x="450" y="275" on="1"/>
        <pt x="450" y="200" on="0"/>
      </contour>
      <contour>
        <pt x="1119" y="1382" on="1"/>
        <pt x="1153" y="1418" on="0"/>
        <pt x="1205" y="1445" on="1"/>
        <pt x="1313" y="1500" on="0"/>
        <pt x="1430" y="1500" on="1"/>
        <pt x="1900" y="1500" on="0"/>
        <pt x="1900" y="1200" on="1"/>
        <pt x="1900" y="0" on="1"/>
        <pt x="1600" y="0" on="1"/>
        <pt x="1600" y="1200" on="1"/>
        <pt x="1600" y="1400" on="0"/>
        <pt x="1430" y="1400" on="1"/>
        <pt x="1322" y="1400" on="0"/>
        <pt x="1200" y="1294" on="0"/>
        <pt x="1200" y="1200" on="1"/>
        <pt x="1200" y="0" on="1"/>
        <pt x="900" y="0" on="1"/>
        <pt x="900" y="1200" on="1"/>
        <pt x="900" y="1308" on="0"/>
        <pt x="855" y="1308" on="1"/>
        <pt x="809" y="1308" on="0"/>
        <pt x="700" y="1200" on="1"/>
        <pt x="592" y="1308" on="0"/>
        <pt x="546" y="1308" on="1"/>
        <pt x="500" y="1308" on="0"/>
        <pt x="500" y="1200" on="1"/>
        <pt x="500" y="600" on="1"/>
        <pt x="650" y="600" on="0"/>
        <pt x="650" y="400" on="1"/>
        <pt x="650" y="200" on="0"/>
        <pt x="525" y="0" on="0"/>
        <pt x="400" y="0" on="1"/>
        <pt x="200" y="0" on="0"/>
        <pt x="200" y="100" on="1"/>
        <pt x="200" y="1200" on="1"/>
        <pt x="200" y="1322" on="0"/>
        <pt x="430" y="1500" on="0"/>
        <pt x="489" y="1500" on="1"/>
        <pt x="539" y="1500" on="0"/>
        <pt x="700" y="1366" on="1"/>
        <pt x="862" y="1500" on="0"/>
        <pt x="912" y="1500" on="1"/>
        <pt x="971" y="1500" on="0"/>
        <pt x="1086" y="1411" on="1"/>
        <pt x="1103" y="1397" on="0"/>
      </contour>
    </TTGlyph>
    <TTGlyph name="uni178917C917B617C6" xMin="200" yMin="-1172" xMax="2600" yMax="2250">
      <contour>
        <pt x="500" y="200" on="1"/>
        <pt x="550" y="200" on="0"/>
        <pt x="550" y="400" on="1"/>
        <pt x="550" y="460" on="0"/>
        <pt x="500" y="460" on="1"/>
        <pt x="450" y="460" on="0"/>
        <pt x="450" y="393" on="1"/>
        <pt x="450" y="275" on="1"/>
        <pt x="450" y="200" on="0"/>
      </contour>
      <contour>
        <pt x="1900" y="1190" on="1"/>
        <pt x="1900" y="0" on="1"/>
        <pt x="1600" y="0" on="1"/>
        <pt x="1600" y="1200" on="1"/>
        <pt x="1600" y="1400" on="0"/>
        <pt x="1430" y="1400" on="1"/>
        <pt x="1322" y="1400" on="0"/>
        <pt x="1200" y="1294" on="0"/>
        <pt x="1200" y="1200" on="1"/>
        <pt x="1200" y="0" on="1"/>
        <pt x="900" y="0" on="1"/>
        <pt x="900" y="1200" on="1"/>
        <pt x="900" y="1308" on="0"/>
        <pt x="855" y="1308" on="1"/>
        <pt x="809" y="1308" on="0"/>
        <pt x="700" y="1200" on="1"/>
        <pt x="592" y="1308" on="0"/>
        <pt x="546" y="1308" on="1"/>
        <pt x="500" y="1308" on="0"/>
        <pt x="500" y="1200" on="1"/>
        <pt x="500" y="600" on="1"/>
        <pt x="650" y="600" on="0"/>
        <pt x="650" y="400" on="1"/>
        <pt x="650" y="200" on="0"/>
        <pt x="525" y="0" on="0"/>
        <pt x="400" y="0" on="1"/>
        <pt x="200" y="0" on="0"/>
        <pt x="200" y="100" on="1"/>
        <pt x="200" y="1200" on="1"/>
        <pt x="200" y="1322" on="0"/>
        <pt x="430" y="1500" on="0"/>
        <pt x="489" y="1500" on="1"/>
        <pt x="539" y="1500" on="0"/>
        <pt x="700" y="1366" on="1"/>
        <pt x="862" y="1500" on="0"/>
        <pt x="912" y="1500" on="1"/>
        <pt x="971" y="1500" on="0"/>
        <pt x="1086" y="1411" on="1"/>
        <pt x="1103" y="1397" on="0"/>
        <pt x="1119" y="1382" on="1"/>
        <pt x="1153" y="1418" on="0"/>
        <pt x="1205" y="1445" on="1"/>
        <pt x="1313" y="1500" on="0"/>
        <pt x="1430" y="1500" on="1"/>
        <pt x="1765" y="1500" on="0"/>
        <pt x="1861" y="1347" on="1"/>
        <pt x="2026" y="1500" on="0"/>
        <pt x="2135" y="1500" on="1"/>
        <pt x="2236" y="1500" on="0"/>
        <pt x="2600" y="1284" on="0"/>
        <pt x="2600" y="1100" on="1"/>
        <pt x="2600" y="0" on="1"/>
        <pt x="2300" y="0" on="1"/>
        <pt x="2300" y="1100" on="1"/>
        <pt x="2300" y="1179" on="0"/>
        <pt x="2140" y="1263" on="0"/>
        <pt x="2065" y="1263" on="1"/>
        <pt x="2019" y="1263" on="0"/>
      </contour>
      <contour>
        <pt x="1537" y="-200" on="1"/>
        <pt x="1537" y="-150" on="0"/>
        <pt x="1568" y="-125" on="1"/>
        <pt x="1601" y="-100" on="0"/>
        <pt x="1718" y="-100" on="1"/>
        <pt x="1808" y="-100" on="0"/>
        <pt x="1853" y="-150" on="1"/>
        <pt x="1900" y="-200" on="0"/>
        <pt x="1900" y="-300" on="1"/>
        <pt x="1900" y="-410" on="0"/>
        <pt x="1675" y="-570" on="0"/>
        <pt x="1487" y="-570" on="1"/>
        <pt x="1298" y="-570" on="0"/>
        <pt x="1184" y="-532" on="1"/>
        <pt x="1070" y="-495" on="0"/>
        <pt x="833" y="-357" on="1"/>
        <pt x="596" y="-220" on="0"/>
        <pt x="511" y="-220" on="1"/>
        <pt x="425" y="-220" on="0"/>
        <pt x="279" y="-275" on="0"/>
        <pt x="200" y="-340" on="1"/>
        <pt x="200" y="-280" on="0"/>
        <pt x="279" y="-185" on="0"/>
        <pt x="457" y="-100" on="0"/>
        <pt x="575" y="-100" on="1"/>
        <pt x="744" y="-100" on="0"/>
        <pt x="1016" y="-194" on="0"/>
        <pt x="1157" y="-291" on="1"/>
        <pt x="1425" y="-466" on="0"/>
        <pt x="1492" y="-466" on="1"/>
        <pt x="1537" y="-466" on="0"/>
        <pt x="1638" y="-400" on="0"/>
        <pt x="1638" y="-300" on="1"/>
        <pt x="1638" y="-273" on="1"/>
        <pt x="1621" y="-276" on="0"/>
        <pt x="1607" y="-276" on="1"/>
        <pt x="1589" y="-276" on="0"/>
        <pt x="1578" y="-270" on="1"/>
        <pt x="1558" y="-259" on="0"/>
        <pt x="1537" y="-221" on="0"/>
      </contour>
      <contour>
        <pt x="1900" y="2025" on="1"/>
        <pt x="1900" y="1975" on="0"/>
        <pt x="1940" y="1925" on="0"/>
        <pt x="1980" y="1925" on="1"/>
        <pt x="2020" y="1925" on="0"/>
        <pt x="2060" y="1975" on="0"/>
        <pt x="2060" y="2025" on="1"/>
        <pt x="2060" y="2075" on="0"/>
        <pt x="2020" y="2125" on="0"/>
        <pt x="1980" y="2125" on="1"/>
        <pt x="1940" y="2125" on="0"/>
        <pt x="1900" y="2075" on="0"/>
      </contour>
      <contour>
        <pt x="2255" y="2025" on="1"/>
        <pt x="2255" y="1912" on="0"/>
        <pt x="2187" y="1856" on="1"/>
        <pt x="2118" y="1800" on="0"/>
        <pt x="1980" y="1800" on="1"/>
        <pt x="1842" y="1800" on="0"/>
        <pt x="1773" y="1856" on="1"/>
        <pt x="1705" y="1912" on="0"/>
        <pt x="1705" y="2025" on="1"/>
        <pt x="1705" y="2138" on="0"/>
        <pt x="1773" y="2194" on="1"/>
        <pt x="1842" y="2250" on="0"/>
        <pt x="1980" y="2250" on="1"/>
        <pt x="2118" y="2250" on="0"/>
        <pt x="2187" y="2194" on="1"/>
        <pt x="2255" y="2138" on="0"/>
      </contour>
      <contour>
        <pt x="1781" y="-1172" on="1"/>
        <pt x="1581" y="-1172" on="1"/>
        <pt x="1581" y="-789" on="1"/>
        <pt x="1531" y="-771" on="0"/>
        <pt x="1531" y="-709" on="1"/>
        <pt x="1531" y="-622" on="0"/>
        <pt x="1656" y="-622" on="1"/>
        <pt x="1781" y="-622" on="0"/>
        <pt x="1781" y="-709" on="1"/>
      </contour>
    </TTGlyph>
    <TTGlyph name="uni1789_17B6" xMin="200" yMin="-570" xMax="2600" yMax="1500">
      <contour>
        <pt x="1537" y="-200" on="1"/>
        <pt x="1537" y="-150" on="0"/>
        <pt x="1568" y="-125" on="1"/>
        <pt x="1601" y="-100" on="0"/>
        <pt x="1718" y="-100" on="1"/>
        <pt x="1808" y="-100" on="0"/>
        <pt x="1853" y="-150" on="1"/>
        <pt x="1900" y="-200" on="0"/>
        <pt x="1900" y="-300" on="1"/>
        <pt x="1900" y="-410" on="0"/>
        <pt x="1675" y="-570" on="0"/>
        <pt x="1487" y="-570" on="1"/>
        <pt x="1298" y="-570" on="0"/>
        <pt x="1184" y="-532" on="1"/>
        <pt x="1070" y="-495" on="0"/>
        <pt x="833" y="-357" on="1"/>
        <pt x="596" y="-220" on="0"/>
        <pt x="511" y="-220" on="1"/>
        <pt x="425" y="-220" on="0"/>
        <pt x="279" y="-275" on="0"/>
        <pt x="200" y="-340" on="1"/>
        <pt x="200" y="-280" on="0"/>
        <pt x="279" y="-185" on="0"/>
        <pt x="457" y="-100" on="0"/>
        <pt x="575" y="-100" on="1"/>
        <pt x="744" y="-100" on="0"/>
        <pt x="1016" y="-194" on="0"/>
        <pt x="1157" y="-291" on="1"/>
        <pt x="1425" y="-466" on="0"/>
        <pt x="1492" y="-466" on="1"/>
        <pt x="1537" y="-466" on="0"/>
        <pt x="1638" y="-400" on="0"/>
        <pt x="1638" y="-300" on="1"/>
        <pt x="1638" y="-273" on="1"/>
        <pt x="1621" y="-276" on="0"/>
        <pt x="1607" y="-276" on="1"/>
        <pt x="1589" y="-276" on="0"/>
        <pt x="1578" y="-270" on="1"/>
        <pt x="1558" y="-259" on="0"/>
        <pt x="1537" y="-221" on="0"/>
      </contour>
      <contour>
        <pt x="500" y="200" on="1"/>
        <pt x="550" y="200" on="0"/>
        <pt x="550" y="400" on="1"/>
        <pt x="550" y="460" on="0"/>
        <pt x="500" y="460" on="1"/>
        <pt x="450" y="460" on="0"/>
        <pt x="450" y="393" on="1"/>
        <pt x="450" y="275" on="1"/>
        <pt x="450" y="200" on="0"/>
      </contour>
      <contour>
        <pt x="1900" y="1190" on="1"/>
        <pt x="1900" y="0" on="1"/>
        <pt x="1600" y="0" on="1"/>
        <pt x="1600" y="1200" on="1"/>
        <pt x="1600" y="1400" on="0"/>
        <pt x="1430" y="1400" on="1"/>
        <pt x="1322" y="1400" on="0"/>
        <pt x="1200" y="1294" on="0"/>
        <pt x="1200" y="1200" on="1"/>
        <pt x="1200" y="0" on="1"/>
        <pt x="900" y="0" on="1"/>
        <pt x="900" y="1200" on="1"/>
        <pt x="900" y="1308" on="0"/>
        <pt x="855" y="1308" on="1"/>
        <pt x="809" y="1308" on="0"/>
        <pt x="700" y="1200" on="1"/>
        <pt x="592" y="1308" on="0"/>
        <pt x="546" y="1308" on="1"/>
        <pt x="500" y="1308" on="0"/>
        <pt x="500" y="1200" on="1"/>
        <pt x="500" y="600" on="1"/>
        <pt x="650" y="600" on="0"/>
        <pt x="650" y="400" on="1"/>
        <pt x="650" y="200" on="0"/>
        <pt x="525" y="0" on="0"/>
        <pt x="400" y="0" on="1"/>
        <pt x="200" y="0" on="0"/>
        <pt x="200" y="100" on="1"/>
        <pt x="200" y="1200" on="1"/>
        <pt x="200" y="1322" on="0"/>
        <pt x="430" y="1500" on="0"/>
        <pt x="489" y="1500" on="1"/>
        <pt x="539" y="1500" on="0"/>
        <pt x="700" y="1366" on="1"/>
        <pt x="862" y="1500" on="0"/>
        <pt x="912" y="1500" on="1"/>
        <pt x="971" y="1500" on="0"/>
        <pt x="1086" y="1411" on="1"/>
        <pt x="1103" y="1397" on="0"/>
        <pt x="1119" y="1382" on="1"/>
        <pt x="1153" y="1418" on="0"/>
        <pt x="1205" y="1445" on="1"/>
        <pt x="1313" y="1500" on="0"/>
        <pt x="1430" y="1500" on="1"/>
        <pt x="1765" y="1500" on="0"/>
        <pt x="1861" y="1347" on="1"/>
        <pt x="2026" y="1500" on="0"/>
        <pt x="2135" y="1500" on="1"/>
        <pt x="2236" y="1500" on="0"/>
        <pt x="2600" y="1284" on="0"/>
        <pt x="2600" y="1100" on="1"/>
        <pt x="2600" y="0" on="1"/>
        <pt x="2300" y="0" on="1"/>
        <pt x="2300" y="1100" on="1"/>
        <pt x="2300" y="1179" on="0"/>
        <pt x="2140" y="1263" on="0"/>
        <pt x="2065" y="1263" on="1"/>
        <pt x="2019" y="1263" on="0"/>
      </contour>
    </TTGlyph>
    <TTGlyph name="uni1789_17B6.alt" xMin="200" yMin="0" xMax="2600" yMax="1500">
      <contour>
        <pt x="500" y="200" on="1"/>
        <pt x="550" y="200" on="0"/>
        <pt x="550" y="400" on="1"/>
        <pt x="550" y="460" on="0"/>
        <pt x="500" y="460" on="1"/>
        <pt x="450" y="460" on="0"/>
        <pt x="450" y="393" on="1"/>
        <pt x="450" y="275" on="1"/>
        <pt x="450" y="200" on="0"/>
      </contour>
      <contour>
        <pt x="1900" y="1190" on="1"/>
        <pt x="1900" y="0" on="1"/>
        <pt x="1600" y="0" on="1"/>
        <pt x="1600" y="1200" on="1"/>
        <pt x="1600" y="1400" on="0"/>
        <pt x="1430" y="1400" on="1"/>
        <pt x="1322" y="1400" on="0"/>
        <pt x="1200" y="1294" on="0"/>
        <pt x="1200" y="1200" on="1"/>
        <pt x="1200" y="0" on="1"/>
        <pt x="900" y="0" on="1"/>
        <pt x="900" y="1200" on="1"/>
        <pt x="900" y="1308" on="0"/>
        <pt x="855" y="1308" on="1"/>
        <pt x="809" y="1308" on="0"/>
        <pt x="700" y="1200" on="1"/>
        <pt x="592" y="1308" on="0"/>
        <pt x="546" y="1308" on="1"/>
        <pt x="500" y="1308" on="0"/>
        <pt x="500" y="1200" on="1"/>
        <pt x="500" y="600" on="1"/>
        <pt x="650" y="600" on="0"/>
        <pt x="650" y="400" on="1"/>
        <pt x="650" y="200" on="0"/>
        <pt x="525" y="0" on="0"/>
        <pt x="400" y="0" on="1"/>
        <pt x="200" y="0" on="0"/>
        <pt x="200" y="100" on="1"/>
        <pt x="200" y="1200" on="1"/>
        <pt x="200" y="1322" on="0"/>
        <pt x="430" y="1500" on="0"/>
        <pt x="489" y="1500" on="1"/>
        <pt x="539" y="1500" on="0"/>
        <pt x="700" y="1366" on="1"/>
        <pt x="862" y="1500" on="0"/>
        <pt x="912" y="1500" on="1"/>
        <pt x="971" y="1500" on="0"/>
        <pt x="1086" y="1411" on="1"/>
        <pt x="1103" y="1397" on="0"/>
        <pt x="1119" y="1382" on="1"/>
        <pt x="1153" y="1418" on="0"/>
        <pt x="1205" y="1445" on="1"/>
        <pt x="1313" y="1500" on="0"/>
        <pt x="1430" y="1500" on="1"/>
        <pt x="1765" y="1500" on="0"/>
        <pt x="1861" y="1347" on="1"/>
        <pt x="2026" y="1500" on="0"/>
        <pt x="2135" y="1500" on="1"/>
        <pt x="2236" y="1500" on="0"/>
        <pt x="2600" y="1284" on="0"/>
        <pt x="2600" y="1100" on="1"/>
        <pt x="2600" y="0" on="1"/>
        <pt x="2300" y="0" on="1"/>
        <pt x="2300" y="1100" on="1"/>
        <pt x="2300" y="1179" on="0"/>
        <pt x="2140" y="1263" on="0"/>
        <pt x="2065" y="1263" on="1"/>
        <pt x="2019" y="1263" on="0"/>
      </contour>
    </TTGlyph>
    <TTGlyph name="uni1789_17B6.alt#1" xMin="200" yMin="0" xMax="2650" yMax="1900">
      <contour>
        <pt x="500" y="200" on="1"/>
        <pt x="550" y="200" on="0"/>
        <pt x="550" y="400" on="1"/>
        <pt x="550" y="460" on="0"/>
        <pt x="500" y="460" on="1"/>
        <pt x="450" y="460" on="0"/>
        <pt x="450" y="393" on="1"/>
        <pt x="450" y="275" on="1"/>
        <pt x="450" y="200" on="0"/>
      </contour>
      <contour>
        <pt x="2583" y="1204" on="1"/>
        <pt x="2600" y="1156" on="0"/>
        <pt x="2600" y="1100" on="1"/>
        <pt x="2600" y="0" on="1"/>
        <pt x="2300" y="0" on="1"/>
        <pt x="2300" y="1100" on="1"/>
        <pt x="2300" y="1179" on="0"/>
        <pt x="2140" y="1263" on="0"/>
        <pt x="2065" y="1263" on="1"/>
        <pt x="2019" y="1263" on="0"/>
        <pt x="1900" y="1190" on="1"/>
        <pt x="1900" y="0" on="1"/>
        <pt x="1600" y="0" on="1"/>
        <pt x="1600" y="1200" on="1"/>
        <pt x="1600" y="1400" on="0"/>
        <pt x="1430" y="1400" on="1"/>
        <pt x="1322" y="1400" on="0"/>
        <pt x="1200" y="1294" on="0"/>
        <pt x="1200" y="1200" on="1"/>
        <pt x="1200" y="0" on="1"/>
        <pt x="900" y="0" on="1"/>
        <pt x="900" y="1200" on="1"/>
        <pt x="900" y="1308" on="0"/>
        <pt x="855" y="1308" on="1"/>
        <pt x="809" y="1308" on="0"/>
        <pt x="700" y="1200" on="1"/>
        <pt x="592" y="1308" on="0"/>
        <pt x="546" y="1308" on="1"/>
        <pt x="500" y="1308" on="0"/>
        <pt x="500" y="1200" on="1"/>
        <pt x="500" y="600" on="1"/>
        <pt x="650" y="600" on="0"/>
        <pt x="650" y="400" on="1"/>
        <pt x="650" y="200" on="0"/>
        <pt x="525" y="0" on="0"/>
        <pt x="400" y="0" on="1"/>
        <pt x="200" y="0" on="0"/>
        <pt x="200" y="100" on="1"/>
        <pt x="200" y="1200" on="1"/>
        <pt x="200" y="1322" on="0"/>
        <pt x="430" y="1500" on="0"/>
        <pt x="489" y="1500" on="1"/>
        <pt x="539" y="1500" on="0"/>
        <pt x="700" y="1366" on="1"/>
        <pt x="862" y="1500" on="0"/>
        <pt x="912" y="1500" on="1"/>
        <pt x="971" y="1500" on="0"/>
        <pt x="1086" y="1411" on="1"/>
        <pt x="1103" y="1397" on="0"/>
        <pt x="1119" y="1382" on="1"/>
        <pt x="1153" y="1418" on="0"/>
        <pt x="1205" y="1445" on="1"/>
        <pt x="1313" y="1500" on="0"/>
        <pt x="1430" y="1500" on="1"/>
        <pt x="1765" y="1500" on="0"/>
        <pt x="1861" y="1347" on="1"/>
        <pt x="2026" y="1500" on="0"/>
        <pt x="2135" y="1500" on="1"/>
        <pt x="2216" y="1500" on="0"/>
        <pt x="2350" y="1430" on="1"/>
        <pt x="2350" y="1700" on="1"/>
        <pt x="2350" y="1800" on="0"/>
        <pt x="2300" y="1800" on="1"/>
        <pt x="2300" y="1900" on="0"/>
        <pt x="2475" y="1900" on="1"/>
        <pt x="2650" y="1900" on="0"/>
        <pt x="2650" y="1700" on="1"/>
        <pt x="2650" y="1400" on="1"/>
        <pt x="2650" y="1333" on="0"/>
      </contour>
    </TTGlyph>
    <TTGlyph name="uni1789_17C5" xMin="200" yMin="-570" xMax="2650" yMax="1900">
      <contour>
        <pt x="1537" y="-200" on="1"/>
        <pt x="1537" y="-150" on="0"/>
        <pt x="1568" y="-125" on="1"/>
        <pt x="1601" y="-100" on="0"/>
        <pt x="1718" y="-100" on="1"/>
        <pt x="1808" y="-100" on="0"/>
        <pt x="1853" y="-150" on="1"/>
        <pt x="1900" y="-200" on="0"/>
        <pt x="1900" y="-300" on="1"/>
        <pt x="1900" y="-410" on="0"/>
        <pt x="1675" y="-570" on="0"/>
        <pt x="1487" y="-570" on="1"/>
        <pt x="1298" y="-570" on="0"/>
        <pt x="1184" y="-532" on="1"/>
        <pt x="1070" y="-495" on="0"/>
        <pt x="833" y="-357" on="1"/>
        <pt x="596" y="-220" on="0"/>
        <pt x="511" y="-220" on="1"/>
        <pt x="425" y="-220" on="0"/>
        <pt x="279" y="-275" on="0"/>
        <pt x="200" y="-340" on="1"/>
        <pt x="200" y="-280" on="0"/>
        <pt x="279" y="-185" on="0"/>
        <pt x="457" y="-100" on="0"/>
        <pt x="575" y="-100" on="1"/>
        <pt x="744" y="-100" on="0"/>
        <pt x="1016" y="-194" on="0"/>
        <pt x="1157" y="-291" on="1"/>
        <pt x="1425" y="-466" on="0"/>
        <pt x="1492" y="-466" on="1"/>
        <pt x="1537" y="-466" on="0"/>
        <pt x="1638" y="-400" on="0"/>
        <pt x="1638" y="-300" on="1"/>
        <pt x="1638" y="-273" on="1"/>
        <pt x="1621" y="-276" on="0"/>
        <pt x="1607" y="-276" on="1"/>
        <pt x="1589" y="-276" on="0"/>
        <pt x="1578" y="-270" on="1"/>
        <pt x="1558" y="-259" on="0"/>
        <pt x="1537" y="-221" on="0"/>
      </contour>
      <contour>
        <pt x="500" y="200" on="1"/>
        <pt x="550" y="200" on="0"/>
        <pt x="550" y="400" on="1"/>
        <pt x="550" y="460" on="0"/>
        <pt x="500" y="460" on="1"/>
        <pt x="450" y="460" on="0"/>
        <pt x="450" y="393" on="1"/>
        <pt x="450" y="275" on="1"/>
        <pt x="450" y="200" on="0"/>
      </contour>
      <contour>
        <pt x="2583" y="1204" on="1"/>
        <pt x="2600" y="1156" on="0"/>
        <pt x="2600" y="1100" on="1"/>
        <pt x="2600" y="0" on="1"/>
        <pt x="2300" y="0" on="1"/>
        <pt x="2300" y="1100" on="1"/>
        <pt x="2300" y="1179" on="0"/>
        <pt x="2140" y="1263" on="0"/>
        <pt x="2065" y="1263" on="1"/>
        <pt x="2019" y="1263" on="0"/>
        <pt x="1900" y="1190" on="1"/>
        <pt x="1900" y="0" on="1"/>
        <pt x="1600" y="0" on="1"/>
        <pt x="1600" y="1200" on="1"/>
        <pt x="1600" y="1400" on="0"/>
        <pt x="1430" y="1400" on="1"/>
        <pt x="1322" y="1400" on="0"/>
        <pt x="1200" y="1294" on="0"/>
        <pt x="1200" y="1200" on="1"/>
        <pt x="1200" y="0" on="1"/>
        <pt x="900" y="0" on="1"/>
        <pt x="900" y="1200" on="1"/>
        <pt x="900" y="1308" on="0"/>
        <pt x="855" y="1308" on="1"/>
        <pt x="809" y="1308" on="0"/>
        <pt x="700" y="1200" on="1"/>
        <pt x="592" y="1308" on="0"/>
        <pt x="546" y="1308" on="1"/>
        <pt x="500" y="1308" on="0"/>
        <pt x="500" y="1200" on="1"/>
        <pt x="500" y="600" on="1"/>
        <pt x="650" y="600" on="0"/>
        <pt x="650" y="400" on="1"/>
        <pt x="650" y="200" on="0"/>
        <pt x="525" y="0" on="0"/>
        <pt x="400" y="0" on="1"/>
        <pt x="200" y="0" on="0"/>
        <pt x="200" y="100" on="1"/>
        <pt x="200" y="1200" on="1"/>
        <pt x="200" y="1322" on="0"/>
        <pt x="430" y="1500" on="0"/>
        <pt x="489" y="1500" on="1"/>
        <pt x="539" y="1500" on="0"/>
        <pt x="700" y="1366" on="1"/>
        <pt x="862" y="1500" on="0"/>
        <pt x="912" y="1500" on="1"/>
        <pt x="971" y="1500" on="0"/>
        <pt x="1086" y="1411" on="1"/>
        <pt x="1103" y="1397" on="0"/>
        <pt x="1119" y="1382" on="1"/>
        <pt x="1153" y="1418" on="0"/>
        <pt x="1205" y="1445" on="1"/>
        <pt x="1313" y="1500" on="0"/>
        <pt x="1430" y="1500" on="1"/>
        <pt x="1765" y="1500" on="0"/>
        <pt x="1861" y="1347" on="1"/>
        <pt x="2026" y="1500" on="0"/>
        <pt x="2135" y="1500" on="1"/>
        <pt x="2216" y="1500" on="0"/>
        <pt x="2350" y="1430" on="1"/>
        <pt x="2350" y="1700" on="1"/>
        <pt x="2350" y="1800" on="0"/>
        <pt x="2300" y="1800" on="1"/>
        <pt x="2300" y="1900" on="0"/>
        <pt x="2475" y="1900" on="1"/>
        <pt x="2650" y="1900" on="0"/>
        <pt x="2650" y="1700" on="1"/>
        <pt x="2650" y="1400" on="1"/>
        <pt x="2650" y="1333" on="0"/>
      </contour>
    </TTGlyph>
    <TTGlyph name="uni178A" xMin="200" yMin="0" xMax="1200" yMax="1700">
      <contour>
        <pt x="408" y="1314" on="1"/>
        <pt x="408" y="1285" on="0"/>
        <pt x="437" y="1264" on="1"/>
        <pt x="461" y="1264" on="1"/>
        <pt x="514" y="1264" on="0"/>
        <pt x="514" y="1314" on="1"/>
        <pt x="514" y="1338" on="0"/>
        <pt x="502" y="1350" on="1"/>
        <pt x="488" y="1364" on="0"/>
        <pt x="461" y="1364" on="1"/>
        <pt x="435" y="1364" on="0"/>
        <pt x="421" y="1351" on="1"/>
        <pt x="408" y="1339" on="0"/>
      </contour>
      <contour>
        <pt x="585" y="1221" on="1"/>
        <pt x="614" y="1218" on="0"/>
        <pt x="646" y="1216" on="1"/>
        <pt x="688" y="1214" on="0"/>
        <pt x="735" y="1214" on="1"/>
        <pt x="828" y="1214" on="0"/>
        <pt x="900" y="1300" on="0"/>
        <pt x="900" y="1396" on="1"/>
        <pt x="900" y="1500" on="0"/>
        <pt x="830" y="1500" on="1"/>
        <pt x="750" y="1500" on="0"/>
        <pt x="750" y="1600" on="1"/>
        <pt x="750" y="1700" on="0"/>
        <pt x="850" y="1700" on="1"/>
        <pt x="1200" y="1700" on="0"/>
        <pt x="1200" y="1396" on="1"/>
        <pt x="1200" y="1268" on="0"/>
        <pt x="917" y="1100" on="0"/>
        <pt x="634" y="1100" on="1"/>
        <pt x="442" y="1100" on="0"/>
        <pt x="200" y="1201" on="0"/>
        <pt x="200" y="1310" on="1"/>
        <pt x="200" y="1393" on="0"/>
        <pt x="252" y="1447" on="1"/>
        <pt x="305" y="1500" on="0"/>
        <pt x="445" y="1500" on="1"/>
        <pt x="536" y="1500" on="0"/>
        <pt x="587" y="1457" on="1"/>
        <pt x="639" y="1414" on="0"/>
        <pt x="639" y="1339" on="1"/>
        <pt x="639" y="1264" on="0"/>
      </contour>
      <contour>
        <pt x="900" y="192" on="1"/>
        <pt x="900" y="1000" on="1"/>
        <pt x="1200" y="1000" on="1"/>
        <pt x="1200" y="100" on="1"/>
        <pt x="1200" y="0" on="0"/>
        <pt x="1050" y="0" on="1"/>
        <pt x="950" y="0" on="0"/>
        <pt x="888" y="63" on="1"/>
        <pt x="700" y="250" on="1"/>
        <pt x="513" y="63" on="1"/>
        <pt x="450" y="0" on="0"/>
        <pt x="350" y="0" on="1"/>
        <pt x="200" y="0" on="0"/>
        <pt x="200" y="100" on="1"/>
        <pt x="200" y="1000" on="1"/>
        <pt x="500" y="1000" on="1"/>
        <pt x="500" y="192" on="1"/>
        <pt x="630" y="321" on="1"/>
        <pt x="665" y="356" on="0"/>
        <pt x="700" y="356" on="1"/>
        <pt x="736" y="356" on="0"/>
        <pt x="771" y="321" on="1"/>
      </contour>
    </TTGlyph>
    <TTGlyph name="uni178A_17B6" xMin="200" yMin="0" xMax="1900" yMax="1700">
      <contour>
        <pt x="408" y="1314" on="1"/>
        <pt x="408" y="1285" on="0"/>
        <pt x="437" y="1264" on="1"/>
        <pt x="461" y="1264" on="1"/>
        <pt x="514" y="1264" on="0"/>
        <pt x="514" y="1314" on="1"/>
        <pt x="514" y="1338" on="0"/>
        <pt x="502" y="1350" on="1"/>
        <pt x="488" y="1364" on="0"/>
        <pt x="461" y="1364" on="1"/>
        <pt x="435" y="1364" on="0"/>
        <pt x="421" y="1351" on="1"/>
        <pt x="408" y="1339" on="0"/>
      </contour>
      <contour>
        <pt x="900" y="192" on="1"/>
        <pt x="900" y="1000" on="1"/>
        <pt x="1200" y="1000" on="1"/>
        <pt x="1200" y="100" on="1"/>
        <pt x="1200" y="0" on="0"/>
        <pt x="1050" y="0" on="1"/>
        <pt x="950" y="0" on="0"/>
        <pt x="888" y="63" on="1"/>
        <pt x="700" y="250" on="1"/>
        <pt x="513" y="63" on="1"/>
        <pt x="450" y="0" on="0"/>
        <pt x="350" y="0" on="1"/>
        <pt x="200" y="0" on="0"/>
        <pt x="200" y="100" on="1"/>
        <pt x="200" y="1000" on="1"/>
        <pt x="500" y="1000" on="1"/>
        <pt x="500" y="192" on="1"/>
        <pt x="630" y="321" on="1"/>
        <pt x="665" y="356" on="0"/>
        <pt x="700" y="356" on="1"/>
        <pt x="736" y="356" on="0"/>
        <pt x="771" y="321" on="1"/>
      </contour>
      <contour>
        <pt x="998" y="1155" on="1"/>
        <pt x="862" y="1100" on="0"/>
        <pt x="634" y="1100" on="1"/>
        <pt x="442" y="1100" on="0"/>
        <pt x="200" y="1201" on="0"/>
        <pt x="200" y="1310" on="1"/>
        <pt x="200" y="1393" on="0"/>
        <pt x="252" y="1447" on="1"/>
        <pt x="305" y="1500" on="0"/>
        <pt x="445" y="1500" on="1"/>
        <pt x="536" y="1500" on="0"/>
        <pt x="587" y="1457" on="1"/>
        <pt x="639" y="1414" on="0"/>
        <pt x="639" y="1339" on="1"/>
        <pt x="639" y="1264" on="0"/>
        <pt x="585" y="1221" on="1"/>
        <pt x="614" y="1218" on="0"/>
        <pt x="646" y="1216" on="1"/>
        <pt x="688" y="1214" on="0"/>
        <pt x="735" y="1214" on="1"/>
        <pt x="828" y="1214" on="0"/>
        <pt x="900" y="1300" on="0"/>
        <pt x="900" y="1396" on="1"/>
        <pt x="900" y="1500" on="0"/>
        <pt x="830" y="1500" on="1"/>
        <pt x="750" y="1500" on="0"/>
        <pt x="750" y="1600" on="1"/>
        <pt x="750" y="1700" on="0"/>
        <pt x="850" y="1700" on="1"/>
        <pt x="1197" y="1700" on="0"/>
        <pt x="1200" y="1401" on="1"/>
        <pt x="1357" y="1500" on="0"/>
        <pt x="1435" y="1500" on="1"/>
        <pt x="1536" y="1500" on="0"/>
        <pt x="1900" y="1284" on="0"/>
        <pt x="1900" y="1100" on="1"/>
        <pt x="1900" y="0" on="1"/>
        <pt x="1600" y="0" on="1"/>
        <pt x="1600" y="1100" on="1"/>
        <pt x="1600" y="1179" on="0"/>
        <pt x="1440" y="1263" on="0"/>
        <pt x="1365" y="1263" on="1"/>
        <pt x="1306" y="1263" on="0"/>
      </contour>
    </TTGlyph>
    <TTGlyph name="uni178A_17C5" xMin="200" yMin="0" xMax="1950" yMax="1900">
      <contour>
        <pt x="408" y="1314" on="1"/>
        <pt x="408" y="1285" on="0"/>
        <pt x="437" y="1264" on="1"/>
        <pt x="461" y="1264" on="1"/>
        <pt x="514" y="1264" on="0"/>
        <pt x="514" y="1314" on="1"/>
        <pt x="514" y="1338" on="0"/>
        <pt x="502" y="1350" on="1"/>
        <pt x="488" y="1364" on="0"/>
        <pt x="461" y="1364" on="1"/>
        <pt x="435" y="1364" on="0"/>
        <pt x="421" y="1351" on="1"/>
        <pt x="408" y="1339" on="0"/>
      </contour>
      <contour>
        <pt x="900" y="192" on="1"/>
        <pt x="900" y="1000" on="1"/>
        <pt x="1200" y="1000" on="1"/>
        <pt x="1200" y="100" on="1"/>
        <pt x="1200" y="0" on="0"/>
        <pt x="1050" y="0" on="1"/>
        <pt x="950" y="0" on="0"/>
        <pt x="888" y="63" on="1"/>
        <pt x="700" y="250" on="1"/>
        <pt x="513" y="63" on="1"/>
        <pt x="450" y="0" on="0"/>
        <pt x="350" y="0" on="1"/>
        <pt x="200" y="0" on="0"/>
        <pt x="200" y="100" on="1"/>
        <pt x="200" y="1000" on="1"/>
        <pt x="500" y="1000" on="1"/>
        <pt x="500" y="192" on="1"/>
        <pt x="630" y="321" on="1"/>
        <pt x="665" y="356" on="0"/>
        <pt x="700" y="356" on="1"/>
        <pt x="736" y="356" on="0"/>
        <pt x="771" y="321" on="1"/>
      </contour>
      <contour>
        <pt x="1883" y="1204" on="1"/>
        <pt x="1900" y="1156" on="0"/>
        <pt x="1900" y="1100" on="1"/>
        <pt x="1900" y="0" on="1"/>
        <pt x="1600" y="0" on="1"/>
        <pt x="1600" y="1100" on="1"/>
        <pt x="1600" y="1179" on="0"/>
        <pt x="1440" y="1263" on="0"/>
        <pt x="1365" y="1263" on="1"/>
        <pt x="1306" y="1263" on="0"/>
        <pt x="998" y="1155" on="1"/>
        <pt x="862" y="1100" on="0"/>
        <pt x="634" y="1100" on="1"/>
        <pt x="442" y="1100" on="0"/>
        <pt x="200" y="1201" on="0"/>
        <pt x="200" y="1310" on="1"/>
        <pt x="200" y="1393" on="0"/>
        <pt x="252" y="1447" on="1"/>
        <pt x="305" y="1500" on="0"/>
        <pt x="445" y="1500" on="1"/>
        <pt x="536" y="1500" on="0"/>
        <pt x="587" y="1457" on="1"/>
        <pt x="639" y="1414" on="0"/>
        <pt x="639" y="1339" on="1"/>
        <pt x="639" y="1264" on="0"/>
        <pt x="585" y="1221" on="1"/>
        <pt x="614" y="1218" on="0"/>
        <pt x="646" y="1216" on="1"/>
        <pt x="688" y="1214" on="0"/>
        <pt x="735" y="1214" on="1"/>
        <pt x="828" y="1214" on="0"/>
        <pt x="900" y="1300" on="0"/>
        <pt x="900" y="1396" on="1"/>
        <pt x="900" y="1500" on="0"/>
        <pt x="830" y="1500" on="1"/>
        <pt x="750" y="1500" on="0"/>
        <pt x="750" y="1600" on="1"/>
        <pt x="750" y="1700" on="0"/>
        <pt x="850" y="1700" on="1"/>
        <pt x="1197" y="1700" on="0"/>
        <pt x="1200" y="1401" on="1"/>
        <pt x="1357" y="1500" on="0"/>
        <pt x="1435" y="1500" on="1"/>
        <pt x="1516" y="1500" on="0"/>
        <pt x="1650" y="1430" on="1"/>
        <pt x="1650" y="1700" on="1"/>
        <pt x="1650" y="1800" on="0"/>
        <pt x="1600" y="1800" on="1"/>
        <pt x="1600" y="1900" on="0"/>
        <pt x="1775" y="1900" on="1"/>
        <pt x="1950" y="1900" on="0"/>
        <pt x="1950" y="1700" on="1"/>
        <pt x="1950" y="1400" on="1"/>
        <pt x="1950" y="1333" on="0"/>
      </contour>
    </TTGlyph>
    <TTGlyph name="uni178B" xMin="70" yMin="0" xMax="1300" yMax="1800">
      <contour>
        <pt x="210" y="1310" on="1"/>
        <pt x="170" y="1310" on="0"/>
        <pt x="170" y="1200" on="1"/>
        <pt x="170" y="1120" on="0"/>
        <pt x="210" y="1120" on="1"/>
        <pt x="250" y="1120" on="0"/>
        <pt x="250" y="1225" on="1"/>
        <pt x="250" y="1310" on="0"/>
      </contour>
      <contour>
        <pt x="500" y="300" on="1"/>
        <pt x="500" y="100" on="0"/>
        <pt x="700" y="100" on="1"/>
        <pt x="900" y="100" on="0"/>
        <pt x="900" y="300" on="1"/>
        <pt x="900" y="943" on="1"/>
        <pt x="900" y="1049" on="0"/>
        <pt x="750" y="1081" on="1"/>
        <pt x="770" y="1182" on="0"/>
        <pt x="941" y="1500" on="0"/>
        <pt x="1005" y="1500" on="1"/>
        <pt x="1055" y="1500" on="0"/>
        <pt x="1128" y="1438" on="1"/>
        <pt x="1147" y="1422" on="0"/>
        <pt x="1161" y="1422" on="1"/>
        <pt x="1172" y="1422" on="0"/>
        <pt x="1180" y="1431" on="1"/>
        <pt x="1200" y="1450" on="0"/>
        <pt x="1200" y="1500" on="1"/>
        <pt x="1200" y="1550" on="0"/>
        <pt x="1110" y="1550" on="1"/>
        <pt x="1000" y="1550" on="0"/>
        <pt x="1000" y="1700" on="1"/>
        <pt x="1000" y="1800" on="0"/>
        <pt x="1110" y="1800" on="1"/>
        <pt x="1300" y="1800" on="0"/>
        <pt x="1300" y="1500" on="1"/>
        <pt x="1298" y="1500" on="1"/>
        <pt x="1298" y="1488" on="1"/>
        <pt x="1298" y="1353" on="0"/>
        <pt x="1211" y="1150" on="0"/>
        <pt x="1151" y="1150" on="1"/>
        <pt x="1091" y="1150" on="0"/>
        <pt x="1015" y="1203" on="1"/>
        <pt x="979" y="1227" on="0"/>
        <pt x="954" y="1227" on="1"/>
        <pt x="927" y="1227" on="0"/>
        <pt x="913" y="1197" on="1"/>
        <pt x="886" y="1138" on="1"/>
        <pt x="1200" y="1080" on="0"/>
        <pt x="1200" y="1000" on="1"/>
        <pt x="1200" y="300" on="1"/>
        <pt x="1200" y="0" on="0"/>
        <pt x="700" y="0" on="1"/>
        <pt x="200" y="0" on="0"/>
        <pt x="200" y="300" on="1"/>
        <pt x="200" y="1000" on="1"/>
        <pt x="70" y="1000" on="0"/>
        <pt x="70" y="1200" on="1"/>
        <pt x="70" y="1330" on="0"/>
        <pt x="135" y="1415" on="1"/>
        <pt x="200" y="1500" on="0"/>
        <pt x="300" y="1500" on="1"/>
        <pt x="500" y="1500" on="0"/>
        <pt x="500" y="1400" on="1"/>
      </contour>
    </TTGlyph>
    <TTGlyph name="uni178B_17B6" xMin="70" yMin="0" xMax="1900" yMax="1800">
      <contour>
        <pt x="210" y="1310" on="1"/>
        <pt x="170" y="1310" on="0"/>
        <pt x="170" y="1200" on="1"/>
        <pt x="170" y="1120" on="0"/>
        <pt x="210" y="1120" on="1"/>
        <pt x="250" y="1120" on="0"/>
        <pt x="250" y="1225" on="1"/>
        <pt x="250" y="1310" on="0"/>
      </contour>
      <contour>
        <pt x="1234" y="1210" on="1"/>
        <pt x="1197" y="1150" on="0"/>
        <pt x="1151" y="1150" on="1"/>
        <pt x="1091" y="1150" on="0"/>
        <pt x="1015" y="1203" on="1"/>
        <pt x="979" y="1227" on="0"/>
        <pt x="954" y="1227" on="1"/>
        <pt x="927" y="1227" on="0"/>
        <pt x="913" y="1197" on="1"/>
        <pt x="886" y="1138" on="1"/>
        <pt x="1200" y="1080" on="0"/>
        <pt x="1200" y="1000" on="1"/>
        <pt x="1200" y="300" on="1"/>
        <pt x="1200" y="0" on="0"/>
        <pt x="700" y="0" on="1"/>
        <pt x="200" y="0" on="0"/>
        <pt x="200" y="300" on="1"/>
        <pt x="200" y="1000" on="1"/>
        <pt x="70" y="1000" on="0"/>
        <pt x="70" y="1200" on="1"/>
        <pt x="70" y="1330" on="0"/>
        <pt x="135" y="1415" on="1"/>
        <pt x="200" y="1500" on="0"/>
        <pt x="300" y="1500" on="1"/>
        <pt x="500" y="1500" on="0"/>
        <pt x="500" y="1400" on="1"/>
        <pt x="500" y="300" on="1"/>
        <pt x="500" y="100" on="0"/>
        <pt x="700" y="100" on="1"/>
        <pt x="900" y="100" on="0"/>
        <pt x="900" y="300" on="1"/>
        <pt x="900" y="943" on="1"/>
        <pt x="900" y="1049" on="0"/>
        <pt x="750" y="1081" on="1"/>
        <pt x="770" y="1182" on="0"/>
        <pt x="941" y="1500" on="0"/>
        <pt x="1005" y="1500" on="1"/>
        <pt x="1055" y="1500" on="0"/>
        <pt x="1128" y="1438" on="1"/>
        <pt x="1147" y="1422" on="0"/>
        <pt x="1161" y="1422" on="1"/>
        <pt x="1172" y="1422" on="0"/>
        <pt x="1180" y="1431" on="1"/>
        <pt x="1200" y="1450" on="0"/>
        <pt x="1200" y="1500" on="1"/>
        <pt x="1200" y="1550" on="0"/>
        <pt x="1110" y="1550" on="1"/>
        <pt x="1000" y="1550" on="0"/>
        <pt x="1000" y="1700" on="1"/>
        <pt x="1000" y="1800" on="0"/>
        <pt x="1110" y="1800" on="1"/>
        <pt x="1300" y="1800" on="0"/>
        <pt x="1300" y="1500" on="1"/>
        <pt x="1298" y="1500" on="1"/>
        <pt x="1298" y="1488" on="1"/>
        <pt x="1298" y="1470" on="0"/>
        <pt x="1297" y="1453" on="1"/>
        <pt x="1375" y="1500" on="0"/>
        <pt x="1435" y="1500" on="1"/>
        <pt x="1536" y="1500" on="0"/>
        <pt x="1900" y="1284" on="0"/>
        <pt x="1900" y="1100" on="1"/>
        <pt x="1900" y="0" on="1"/>
        <pt x="1600" y="0" on="1"/>
        <pt x="1600" y="1100" on="1"/>
        <pt x="1600" y="1179" on="0"/>
        <pt x="1440" y="1263" on="0"/>
        <pt x="1365" y="1263" on="1"/>
        <pt x="1319" y="1263" on="0"/>
      </contour>
    </TTGlyph>
    <TTGlyph name="uni178B_17C5" xMin="70" yMin="0" xMax="1950" yMax="1900">
      <contour>
        <pt x="210" y="1310" on="1"/>
        <pt x="170" y="1310" on="0"/>
        <pt x="170" y="1200" on="1"/>
        <pt x="170" y="1120" on="0"/>
        <pt x="210" y="1120" on="1"/>
        <pt x="250" y="1120" on="0"/>
        <pt x="250" y="1225" on="1"/>
        <pt x="250" y="1310" on="0"/>
      </contour>
      <contour>
        <pt x="1883" y="1204" on="1"/>
        <pt x="1900" y="1156" on="0"/>
        <pt x="1900" y="1100" on="1"/>
        <pt x="1900" y="0" on="1"/>
        <pt x="1600" y="0" on="1"/>
        <pt x="1600" y="1100" on="1"/>
        <pt x="1600" y="1179" on="0"/>
        <pt x="1440" y="1263" on="0"/>
        <pt x="1365" y="1263" on="1"/>
        <pt x="1319" y="1263" on="0"/>
        <pt x="1234" y="1210" on="1"/>
        <pt x="1197" y="1150" on="0"/>
        <pt x="1151" y="1150" on="1"/>
        <pt x="1091" y="1150" on="0"/>
        <pt x="1015" y="1203" on="1"/>
        <pt x="979" y="1227" on="0"/>
        <pt x="954" y="1227" on="1"/>
        <pt x="927" y="1227" on="0"/>
        <pt x="913" y="1197" on="1"/>
        <pt x="886" y="1138" on="1"/>
        <pt x="1200" y="1080" on="0"/>
        <pt x="1200" y="1000" on="1"/>
        <pt x="1200" y="300" on="1"/>
        <pt x="1200" y="0" on="0"/>
        <pt x="700" y="0" on="1"/>
        <pt x="200" y="0" on="0"/>
        <pt x="200" y="300" on="1"/>
        <pt x="200" y="1000" on="1"/>
        <pt x="70" y="1000" on="0"/>
        <pt x="70" y="1200" on="1"/>
        <pt x="70" y="1330" on="0"/>
        <pt x="135" y="1415" on="1"/>
        <pt x="200" y="1500" on="0"/>
        <pt x="300" y="1500" on="1"/>
        <pt x="500" y="1500" on="0"/>
        <pt x="500" y="1400" on="1"/>
        <pt x="500" y="300" on="1"/>
        <pt x="500" y="100" on="0"/>
        <pt x="700" y="100" on="1"/>
        <pt x="900" y="100" on="0"/>
        <pt x="900" y="300" on="1"/>
        <pt x="900" y="943" on="1"/>
        <pt x="900" y="1049" on="0"/>
        <pt x="750" y="1081" on="1"/>
        <pt x="770" y="1182" on="0"/>
        <pt x="941" y="1500" on="0"/>
        <pt x="1005" y="1500" on="1"/>
        <pt x="1055" y="1500" on="0"/>
        <pt x="1128" y="1438" on="1"/>
        <pt x="1147" y="1422" on="0"/>
        <pt x="1161" y="1422" on="1"/>
        <pt x="1172" y="1422" on="0"/>
        <pt x="1180" y="1431" on="1"/>
        <pt x="1200" y="1450" on="0"/>
        <pt x="1200" y="1500" on="1"/>
        <pt x="1200" y="1550" on="0"/>
        <pt x="1110" y="1550" on="1"/>
        <pt x="1000" y="1550" on="0"/>
        <pt x="1000" y="1700" on="1"/>
        <pt x="1000" y="1800" on="0"/>
        <pt x="1110" y="1800" on="1"/>
        <pt x="1300" y="1800" on="0"/>
        <pt x="1300" y="1500" on="1"/>
        <pt x="1298" y="1500" on="1"/>
        <pt x="1298" y="1488" on="1"/>
        <pt x="1298" y="1470" on="0"/>
        <pt x="1297" y="1453" on="1"/>
        <pt x="1375" y="1500" on="0"/>
        <pt x="1435" y="1500" on="1"/>
        <pt x="1516" y="1500" on="0"/>
        <pt x="1650" y="1430" on="1"/>
        <pt x="1650" y="1700" on="1"/>
        <pt x="1650" y="1800" on="0"/>
        <pt x="1600" y="1800" on="1"/>
        <pt x="1600" y="1900" on="0"/>
        <pt x="1775" y="1900" on="1"/>
        <pt x="1950" y="1900" on="0"/>
        <pt x="1950" y="1700" on="1"/>
        <pt x="1950" y="1400" on="1"/>
        <pt x="1950" y="1333" on="0"/>
      </contour>
    </TTGlyph>
    <TTGlyph name="uni178C" xMin="200" yMin="-170" xMax="1200" yMax="1500">
      <contour>
        <pt x="500" y="1025" on="1"/>
        <pt x="500" y="950" on="1"/>
        <pt x="536" y="950" on="0"/>
        <pt x="536" y="1000" on="1"/>
        <pt x="536" y="1025" on="0"/>
      </contour>
      <contour>
        <pt x="500" y="1125" on="1"/>
        <pt x="562" y="1125" on="0"/>
        <pt x="599" y="1094" on="1"/>
        <pt x="636" y="1062" on="0"/>
        <pt x="636" y="1000" on="1"/>
        <pt x="636" y="850" on="0"/>
        <pt x="488" y="850" on="1"/>
        <pt x="200" y="850" on="0"/>
        <pt x="200" y="950" on="1"/>
        <pt x="200" y="1200" on="1"/>
        <pt x="200" y="1322" on="0"/>
        <pt x="430" y="1500" on="0"/>
        <pt x="489" y="1500" on="1"/>
        <pt x="539" y="1500" on="0"/>
        <pt x="700" y="1366" on="1"/>
        <pt x="862" y="1500" on="0"/>
        <pt x="912" y="1500" on="1"/>
        <pt x="971" y="1500" on="0"/>
        <pt x="1200" y="1322" on="0"/>
        <pt x="1200" y="1200" on="1"/>
        <pt x="1200" y="1050" on="1"/>
        <pt x="1200" y="860" on="0"/>
        <pt x="675" y="626" on="1"/>
        <pt x="500" y="548" on="1"/>
        <pt x="500" y="300" on="1"/>
        <pt x="500" y="100" on="0"/>
        <pt x="590" y="100" on="1"/>
        <pt x="760" y="100" on="0"/>
        <pt x="900" y="329" on="1"/>
        <pt x="900" y="560" on="1"/>
        <pt x="1200" y="660" on="1"/>
        <pt x="1200" y="0" on="1"/>
        <pt x="1200" y="-170" on="0"/>
        <pt x="1000" y="-170" on="1"/>
        <pt x="850" y="-170" on="0"/>
        <pt x="850" y="-70" on="1"/>
        <pt x="900" y="-70" on="0"/>
        <pt x="900" y="0" on="1"/>
        <pt x="900" y="141" on="1"/>
        <pt x="799" y="0" on="0"/>
        <pt x="590" y="0" on="1"/>
        <pt x="200" y="0" on="0"/>
        <pt x="200" y="300" on="1"/>
        <pt x="200" y="567" on="1"/>
        <pt x="550" y="724" on="1"/>
        <pt x="900" y="880" on="0"/>
        <pt x="900" y="1050" on="1"/>
        <pt x="900" y="1200" on="1"/>
        <pt x="900" y="1308" on="0"/>
        <pt x="855" y="1308" on="1"/>
        <pt x="809" y="1308" on="0"/>
        <pt x="700" y="1200" on="1"/>
        <pt x="592" y="1308" on="0"/>
        <pt x="546" y="1308" on="1"/>
        <pt x="500" y="1308" on="0"/>
        <pt x="500" y="1200" on="1"/>
      </contour>
    </TTGlyph>
    <TTGlyph name="uni178C_17B6" xMin="200" yMin="-170" xMax="1900" yMax="1500">
      <contour>
        <pt x="500" y="1025" on="1"/>
        <pt x="500" y="950" on="1"/>
        <pt x="536" y="950" on="0"/>
        <pt x="536" y="1000" on="1"/>
        <pt x="536" y="1025" on="0"/>
      </contour>
      <contour>
        <pt x="1200" y="1190" on="1"/>
        <pt x="1200" y="1050" on="1"/>
        <pt x="1200" y="860" on="0"/>
        <pt x="675" y="626" on="1"/>
        <pt x="500" y="548" on="1"/>
        <pt x="500" y="300" on="1"/>
        <pt x="500" y="100" on="0"/>
        <pt x="590" y="100" on="1"/>
        <pt x="760" y="100" on="0"/>
        <pt x="900" y="329" on="1"/>
        <pt x="900" y="560" on="1"/>
        <pt x="1200" y="660" on="1"/>
        <pt x="1200" y="0" on="1"/>
        <pt x="1200" y="-170" on="0"/>
        <pt x="1000" y="-170" on="1"/>
        <pt x="850" y="-170" on="0"/>
        <pt x="850" y="-70" on="1"/>
        <pt x="900" y="-70" on="0"/>
        <pt x="900" y="0" on="1"/>
        <pt x="900" y="141" on="1"/>
        <pt x="799" y="0" on="0"/>
        <pt x="590" y="0" on="1"/>
        <pt x="200" y="0" on="0"/>
        <pt x="200" y="300" on="1"/>
        <pt x="200" y="567" on="1"/>
        <pt x="550" y="724" on="1"/>
        <pt x="900" y="880" on="0"/>
        <pt x="900" y="1050" on="1"/>
        <pt x="900" y="1200" on="1"/>
        <pt x="900" y="1308" on="0"/>
        <pt x="855" y="1308" on="1"/>
        <pt x="809" y="1308" on="0"/>
        <pt x="700" y="1200" on="1"/>
        <pt x="592" y="1308" on="0"/>
        <pt x="546" y="1308" on="1"/>
        <pt x="500" y="1308" on="0"/>
        <pt x="500" y="1200" on="1"/>
        <pt x="500" y="1125" on="1"/>
        <pt x="562" y="1125" on="0"/>
        <pt x="599" y="1094" on="1"/>
        <pt x="636" y="1062" on="0"/>
        <pt x="636" y="1000" on="1"/>
        <pt x="636" y="850" on="0"/>
        <pt x="488" y="850" on="1"/>
        <pt x="200" y="850" on="0"/>
        <pt x="200" y="950" on="1"/>
        <pt x="200" y="1200" on="1"/>
        <pt x="200" y="1322" on="0"/>
        <pt x="430" y="1500" on="0"/>
        <pt x="489" y="1500" on="1"/>
        <pt x="539" y="1500" on="0"/>
        <pt x="700" y="1366" on="1"/>
        <pt x="862" y="1500" on="0"/>
        <pt x="912" y="1500" on="1"/>
        <pt x="971" y="1500" on="0"/>
        <pt x="1086" y="1411" on="1"/>
        <pt x="1128" y="1378" on="0"/>
        <pt x="1155" y="1341" on="1"/>
        <pt x="1323" y="1500" on="0"/>
        <pt x="1435" y="1500" on="1"/>
        <pt x="1536" y="1500" on="0"/>
        <pt x="1900" y="1284" on="0"/>
        <pt x="1900" y="1100" on="1"/>
        <pt x="1900" y="0" on="1"/>
        <pt x="1600" y="0" on="1"/>
        <pt x="1600" y="1100" on="1"/>
        <pt x="1600" y="1179" on="0"/>
        <pt x="1440" y="1263" on="0"/>
        <pt x="1365" y="1263" on="1"/>
        <pt x="1319" y="1263" on="0"/>
      </contour>
    </TTGlyph>
    <TTGlyph name="uni178C_17C5" xMin="200" yMin="-170" xMax="1950" yMax="1900">
      <contour>
        <pt x="500" y="1025" on="1"/>
        <pt x="500" y="950" on="1"/>
        <pt x="536" y="950" on="0"/>
        <pt x="536" y="1000" on="1"/>
        <pt x="536" y="1025" on="0"/>
      </contour>
      <contour>
        <pt x="1883" y="1204" on="1"/>
        <pt x="1900" y="1156" on="0"/>
        <pt x="1900" y="1100" on="1"/>
        <pt x="1900" y="0" on="1"/>
        <pt x="1600" y="0" on="1"/>
        <pt x="1600" y="1100" on="1"/>
        <pt x="1600" y="1179" on="0"/>
        <pt x="1440" y="1263" on="0"/>
        <pt x="1365" y="1263" on="1"/>
        <pt x="1319" y="1263" on="0"/>
        <pt x="1200" y="1190" on="1"/>
        <pt x="1200" y="1050" on="1"/>
        <pt x="1200" y="860" on="0"/>
        <pt x="675" y="626" on="1"/>
        <pt x="500" y="548" on="1"/>
        <pt x="500" y="300" on="1"/>
        <pt x="500" y="100" on="0"/>
        <pt x="590" y="100" on="1"/>
        <pt x="760" y="100" on="0"/>
        <pt x="900" y="329" on="1"/>
        <pt x="900" y="560" on="1"/>
        <pt x="1200" y="660" on="1"/>
        <pt x="1200" y="0" on="1"/>
        <pt x="1200" y="-170" on="0"/>
        <pt x="1000" y="-170" on="1"/>
        <pt x="850" y="-170" on="0"/>
        <pt x="850" y="-70" on="1"/>
        <pt x="900" y="-70" on="0"/>
        <pt x="900" y="0" on="1"/>
        <pt x="900" y="141" on="1"/>
        <pt x="799" y="0" on="0"/>
        <pt x="590" y="0" on="1"/>
        <pt x="200" y="0" on="0"/>
        <pt x="200" y="300" on="1"/>
        <pt x="200" y="567" on="1"/>
        <pt x="550" y="724" on="1"/>
        <pt x="900" y="880" on="0"/>
        <pt x="900" y="1050" on="1"/>
        <pt x="900" y="1200" on="1"/>
        <pt x="900" y="1308" on="0"/>
        <pt x="855" y="1308" on="1"/>
        <pt x="809" y="1308" on="0"/>
        <pt x="700" y="1200" on="1"/>
        <pt x="592" y="1308" on="0"/>
        <pt x="546" y="1308" on="1"/>
        <pt x="500" y="1308" on="0"/>
        <pt x="500" y="1200" on="1"/>
        <pt x="500" y="1125" on="1"/>
        <pt x="562" y="1125" on="0"/>
        <pt x="599" y="1094" on="1"/>
        <pt x="636" y="1062" on="0"/>
        <pt x="636" y="1000" on="1"/>
        <pt x="636" y="850" on="0"/>
        <pt x="488" y="850" on="1"/>
        <pt x="200" y="850" on="0"/>
        <pt x="200" y="950" on="1"/>
        <pt x="200" y="1200" on="1"/>
        <pt x="200" y="1322" on="0"/>
        <pt x="430" y="1500" on="0"/>
        <pt x="489" y="1500" on="1"/>
        <pt x="539" y="1500" on="0"/>
        <pt x="700" y="1366" on="1"/>
        <pt x="862" y="1500" on="0"/>
        <pt x="912" y="1500" on="1"/>
        <pt x="971" y="1500" on="0"/>
        <pt x="1086" y="1411" on="1"/>
        <pt x="1128" y="1378" on="0"/>
        <pt x="1155" y="1341" on="1"/>
        <pt x="1323" y="1500" on="0"/>
        <pt x="1435" y="1500" on="1"/>
        <pt x="1516" y="1500" on="0"/>
        <pt x="1650" y="1430" on="1"/>
        <pt x="1650" y="1700" on="1"/>
        <pt x="1650" y="1800" on="0"/>
        <pt x="1600" y="1800" on="1"/>
        <pt x="1600" y="1900" on="0"/>
        <pt x="1775" y="1900" on="1"/>
        <pt x="1950" y="1900" on="0"/>
        <pt x="1950" y="1700" on="1"/>
        <pt x="1950" y="1400" on="1"/>
        <pt x="1950" y="1333" on="0"/>
      </contour>
    </TTGlyph>
    <TTGlyph name="uni178D" xMin="200" yMin="0" xMax="2000" yMax="1500">
      <contour>
        <pt x="500" y="200" on="1"/>
        <pt x="550" y="200" on="0"/>
        <pt x="550" y="400" on="1"/>
        <pt x="550" y="460" on="0"/>
        <pt x="500" y="460" on="1"/>
        <pt x="450" y="460" on="0"/>
        <pt x="450" y="393" on="1"/>
        <pt x="450" y="275" on="1"/>
        <pt x="450" y="200" on="0"/>
      </contour>
      <contour>
        <pt x="900" y="1200" on="1"/>
        <pt x="900" y="1308" on="0"/>
        <pt x="855" y="1308" on="1"/>
        <pt x="809" y="1308" on="0"/>
        <pt x="700" y="1200" on="1"/>
        <pt x="592" y="1308" on="0"/>
        <pt x="546" y="1308" on="1"/>
        <pt x="500" y="1308" on="0"/>
        <pt x="500" y="1200" on="1"/>
        <pt x="500" y="600" on="1"/>
        <pt x="650" y="600" on="0"/>
        <pt x="650" y="400" on="1"/>
        <pt x="650" y="200" on="0"/>
        <pt x="525" y="0" on="0"/>
        <pt x="400" y="0" on="1"/>
        <pt x="200" y="0" on="0"/>
        <pt x="200" y="100" on="1"/>
        <pt x="200" y="1200" on="1"/>
        <pt x="200" y="1322" on="0"/>
        <pt x="430" y="1500" on="0"/>
        <pt x="489" y="1500" on="1"/>
        <pt x="539" y="1500" on="0"/>
        <pt x="700" y="1366" on="1"/>
        <pt x="862" y="1500" on="0"/>
        <pt x="912" y="1500" on="1"/>
        <pt x="971" y="1500" on="0"/>
        <pt x="1200" y="1322" on="0"/>
        <pt x="1200" y="1200" on="1"/>
        <pt x="1200" y="500" on="1"/>
        <pt x="1450" y="500" on="0"/>
        <pt x="1450" y="250" on="1"/>
        <pt x="1450" y="100" on="0"/>
        <pt x="1550" y="100" on="1"/>
        <pt x="1600" y="100" on="0"/>
        <pt x="1600" y="250" on="1"/>
        <pt x="1600" y="943" on="1"/>
        <pt x="1600" y="1049" on="0"/>
        <pt x="1450" y="1081" on="1"/>
        <pt x="1470" y="1182" on="0"/>
        <pt x="1641" y="1500" on="0"/>
        <pt x="1695" y="1500" on="1"/>
        <pt x="1739" y="1500" on="0"/>
        <pt x="1810" y="1457" on="1"/>
        <pt x="1880" y="1414" on="1"/>
        <pt x="1911" y="1395" on="0"/>
        <pt x="1953" y="1395" on="1"/>
        <pt x="1975" y="1395" on="0"/>
        <pt x="2000" y="1400" on="1"/>
        <pt x="1990" y="1330" on="0"/>
        <pt x="1915" y="1173" on="0"/>
        <pt x="1866" y="1167" on="1"/>
        <pt x="1860" y="1166" on="0"/>
        <pt x="1853" y="1166" on="1"/>
        <pt x="1805" y="1166" on="0"/>
        <pt x="1728" y="1208" on="1"/>
        <pt x="1688" y="1229" on="0"/>
        <pt x="1661" y="1229" on="1"/>
        <pt x="1627" y="1229" on="0"/>
        <pt x="1613" y="1197" on="1"/>
        <pt x="1586" y="1138" on="1"/>
        <pt x="1900" y="1080" on="0"/>
        <pt x="1900" y="1000" on="1"/>
        <pt x="1900" y="250" on="1"/>
        <pt x="1900" y="0" on="0"/>
        <pt x="1550" y="0" on="1"/>
        <pt x="1300" y="0" on="0"/>
        <pt x="1300" y="250" on="1"/>
        <pt x="1300" y="400" on="0"/>
        <pt x="1200" y="400" on="1"/>
        <pt x="1200" y="100" on="1"/>
        <pt x="1200" y="0" on="0"/>
        <pt x="1000" y="0" on="1"/>
        <pt x="900" y="0" on="0"/>
        <pt x="800" y="190" on="0"/>
        <pt x="800" y="300" on="1"/>
        <pt x="800" y="500" on="0"/>
        <pt x="900" y="500" on="1"/>
      </contour>
    </TTGlyph>
    <TTGlyph name="uni178D_17B6" xMin="200" yMin="0" xMax="2600" yMax="1500">
      <contour>
        <pt x="500" y="200" on="1"/>
        <pt x="550" y="200" on="0"/>
        <pt x="550" y="400" on="1"/>
        <pt x="550" y="460" on="0"/>
        <pt x="500" y="460" on="1"/>
        <pt x="450" y="460" on="0"/>
        <pt x="450" y="393" on="1"/>
        <pt x="450" y="275" on="1"/>
        <pt x="450" y="200" on="0"/>
      </contour>
      <contour>
        <pt x="1900" y="250" on="1"/>
        <pt x="1900" y="0" on="0"/>
        <pt x="1550" y="0" on="1"/>
        <pt x="1300" y="0" on="0"/>
        <pt x="1300" y="250" on="1"/>
        <pt x="1300" y="400" on="0"/>
        <pt x="1200" y="400" on="1"/>
        <pt x="1200" y="100" on="1"/>
        <pt x="1200" y="0" on="0"/>
        <pt x="1000" y="0" on="1"/>
        <pt x="900" y="0" on="0"/>
        <pt x="800" y="190" on="0"/>
        <pt x="800" y="300" on="1"/>
        <pt x="800" y="500" on="0"/>
        <pt x="900" y="500" on="1"/>
        <pt x="900" y="1200" on="1"/>
        <pt x="900" y="1308" on="0"/>
        <pt x="855" y="1308" on="1"/>
        <pt x="809" y="1308" on="0"/>
        <pt x="700" y="1200" on="1"/>
        <pt x="592" y="1308" on="0"/>
        <pt x="546" y="1308" on="1"/>
        <pt x="500" y="1308" on="0"/>
        <pt x="500" y="1200" on="1"/>
        <pt x="500" y="600" on="1"/>
        <pt x="650" y="600" on="0"/>
        <pt x="650" y="400" on="1"/>
        <pt x="650" y="200" on="0"/>
        <pt x="525" y="0" on="0"/>
        <pt x="400" y="0" on="1"/>
        <pt x="200" y="0" on="0"/>
        <pt x="200" y="100" on="1"/>
        <pt x="200" y="1200" on="1"/>
        <pt x="200" y="1322" on="0"/>
        <pt x="430" y="1500" on="0"/>
        <pt x="489" y="1500" on="1"/>
        <pt x="539" y="1500" on="0"/>
        <pt x="700" y="1366" on="1"/>
        <pt x="862" y="1500" on="0"/>
        <pt x="912" y="1500" on="1"/>
        <pt x="971" y="1500" on="0"/>
        <pt x="1200" y="1322" on="0"/>
        <pt x="1200" y="1200" on="1"/>
        <pt x="1200" y="500" on="1"/>
        <pt x="1450" y="500" on="0"/>
        <pt x="1450" y="250" on="1"/>
        <pt x="1450" y="100" on="0"/>
        <pt x="1550" y="100" on="1"/>
        <pt x="1600" y="100" on="0"/>
        <pt x="1600" y="250" on="1"/>
        <pt x="1600" y="943" on="1"/>
        <pt x="1600" y="1049" on="0"/>
        <pt x="1450" y="1081" on="1"/>
        <pt x="1481" y="1182" on="0"/>
        <pt x="1745" y="1500" on="0"/>
        <pt x="1829" y="1500" on="1"/>
        <pt x="1952" y="1500" on="0"/>
        <pt x="2600" y="1266" on="0"/>
        <pt x="2600" y="1030" on="1"/>
        <pt x="2600" y="0" on="1"/>
        <pt x="2300" y="0" on="1"/>
        <pt x="2300" y="1030" on="1"/>
        <pt x="2300" y="1111" on="0"/>
        <pt x="2222" y="1142" on="1"/>
        <pt x="2024" y="1209" on="1"/>
        <pt x="1899" y="1258" on="0"/>
        <pt x="1811" y="1258" on="1"/>
        <pt x="1723" y="1258" on="0"/>
        <pt x="1680" y="1197" on="1"/>
        <pt x="1640" y="1138" on="1"/>
        <pt x="1900" y="1080" on="0"/>
        <pt x="1900" y="1000" on="1"/>
      </contour>
    </TTGlyph>
    <TTGlyph name="uni178D_17C5" xMin="200" yMin="0" xMax="2650" yMax="1900">
      <contour>
        <pt x="500" y="200" on="1"/>
        <pt x="550" y="200" on="0"/>
        <pt x="550" y="400" on="1"/>
        <pt x="550" y="460" on="0"/>
        <pt x="500" y="460" on="1"/>
        <pt x="450" y="460" on="0"/>
        <pt x="450" y="393" on="1"/>
        <pt x="450" y="275" on="1"/>
        <pt x="450" y="200" on="0"/>
      </contour>
      <contour>
        <pt x="2566" y="1171" on="1"/>
        <pt x="2600" y="1107" on="0"/>
        <pt x="2600" y="1030" on="1"/>
        <pt x="2600" y="0" on="1"/>
        <pt x="2300" y="0" on="1"/>
        <pt x="2300" y="1030" on="1"/>
        <pt x="2300" y="1111" on="0"/>
        <pt x="2222" y="1142" on="1"/>
        <pt x="2024" y="1209" on="1"/>
        <pt x="1899" y="1258" on="0"/>
        <pt x="1811" y="1258" on="1"/>
        <pt x="1723" y="1258" on="0"/>
        <pt x="1680" y="1197" on="1"/>
        <pt x="1640" y="1138" on="1"/>
        <pt x="1900" y="1080" on="0"/>
        <pt x="1900" y="1000" on="1"/>
        <pt x="1900" y="250" on="1"/>
        <pt x="1900" y="0" on="0"/>
        <pt x="1550" y="0" on="1"/>
        <pt x="1300" y="0" on="0"/>
        <pt x="1300" y="250" on="1"/>
        <pt x="1300" y="400" on="0"/>
        <pt x="1200" y="400" on="1"/>
        <pt x="1200" y="100" on="1"/>
        <pt x="1200" y="0" on="0"/>
        <pt x="1000" y="0" on="1"/>
        <pt x="900" y="0" on="0"/>
        <pt x="800" y="190" on="0"/>
        <pt x="800" y="300" on="1"/>
        <pt x="800" y="500" on="0"/>
        <pt x="900" y="500" on="1"/>
        <pt x="900" y="1200" on="1"/>
        <pt x="900" y="1308" on="0"/>
        <pt x="855" y="1308" on="1"/>
        <pt x="809" y="1308" on="0"/>
        <pt x="700" y="1200" on="1"/>
        <pt x="592" y="1308" on="0"/>
        <pt x="546" y="1308" on="1"/>
        <pt x="500" y="1308" on="0"/>
        <pt x="500" y="1200" on="1"/>
        <pt x="500" y="600" on="1"/>
        <pt x="650" y="600" on="0"/>
        <pt x="650" y="400" on="1"/>
        <pt x="650" y="200" on="0"/>
        <pt x="525" y="0" on="0"/>
        <pt x="400" y="0" on="1"/>
        <pt x="200" y="0" on="0"/>
        <pt x="200" y="100" on="1"/>
        <pt x="200" y="1200" on="1"/>
        <pt x="200" y="1322" on="0"/>
        <pt x="430" y="1500" on="0"/>
        <pt x="489" y="1500" on="1"/>
        <pt x="539" y="1500" on="0"/>
        <pt x="700" y="1366" on="1"/>
        <pt x="862" y="1500" on="0"/>
        <pt x="912" y="1500" on="1"/>
        <pt x="971" y="1500" on="0"/>
        <pt x="1200" y="1322" on="0"/>
        <pt x="1200" y="1200" on="1"/>
        <pt x="1200" y="500" on="1"/>
        <pt x="1450" y="500" on="0"/>
        <pt x="1450" y="250" on="1"/>
        <pt x="1450" y="100" on="0"/>
        <pt x="1550" y="100" on="1"/>
        <pt x="1600" y="100" on="0"/>
        <pt x="1600" y="250" on="1"/>
        <pt x="1600" y="943" on="1"/>
        <pt x="1600" y="1049" on="0"/>
        <pt x="1450" y="1081" on="1"/>
        <pt x="1481" y="1182" on="0"/>
        <pt x="1745" y="1500" on="0"/>
        <pt x="1829" y="1500" on="1"/>
        <pt x="1952" y="1500" on="0"/>
        <pt x="2276" y="1383" on="1"/>
        <pt x="2315" y="1369" on="0"/>
        <pt x="2350" y="1353" on="1"/>
        <pt x="2350" y="1700" on="1"/>
        <pt x="2350" y="1800" on="0"/>
        <pt x="2300" y="1800" on="1"/>
        <pt x="2300" y="1900" on="0"/>
        <pt x="2475" y="1900" on="1"/>
        <pt x="2650" y="1900" on="0"/>
        <pt x="2650" y="1700" on="1"/>
        <pt x="2650" y="1400" on="1"/>
        <pt x="2650" y="1325" on="0"/>
      </contour>
    </TTGlyph>
    <TTGlyph name="uni178E" xMin="200" yMin="0" xMax="2600" yMax="1500">
      <contour>
        <pt x="500" y="200" on="1"/>
        <pt x="550" y="200" on="0"/>
        <pt x="550" y="400" on="1"/>
        <pt x="550" y="480" on="0"/>
        <pt x="500" y="480" on="1"/>
        <pt x="450" y="480" on="0"/>
        <pt x="450" y="383" on="1"/>
        <pt x="450" y="285" on="1"/>
        <pt x="450" y="200" on="0"/>
      </contour>
      <contour>
        <pt x="900" y="1200" on="1"/>
        <pt x="900" y="1400" on="0"/>
        <pt x="700" y="1400" on="1"/>
        <pt x="500" y="1400" on="0"/>
        <pt x="500" y="1200" on="1"/>
        <pt x="500" y="600" on="1"/>
        <pt x="650" y="600" on="0"/>
        <pt x="650" y="400" on="1"/>
        <pt x="650" y="200" on="0"/>
        <pt x="525" y="0" on="0"/>
        <pt x="400" y="0" on="1"/>
        <pt x="200" y="0" on="0"/>
        <pt x="200" y="100" on="1"/>
        <pt x="200" y="1200" on="1"/>
        <pt x="200" y="1500" on="0"/>
        <pt x="700" y="1500" on="1"/>
        <pt x="1200" y="1500" on="0"/>
        <pt x="1200" y="1200" on="1"/>
        <pt x="1200" y="192" on="1"/>
        <pt x="1330" y="321" on="1"/>
        <pt x="1365" y="356" on="0"/>
        <pt x="1400" y="356" on="1"/>
        <pt x="1436" y="356" on="0"/>
        <pt x="1471" y="321" on="1"/>
        <pt x="1600" y="192" on="1"/>
        <pt x="1600" y="1200" on="1"/>
        <pt x="1600" y="1500" on="0"/>
        <pt x="2100" y="1500" on="1"/>
        <pt x="2600" y="1500" on="0"/>
        <pt x="2600" y="1200" on="1"/>
        <pt x="2600" y="0" on="1"/>
        <pt x="2300" y="0" on="1"/>
        <pt x="2300" y="1200" on="1"/>
        <pt x="2300" y="1400" on="0"/>
        <pt x="2100" y="1400" on="1"/>
        <pt x="1900" y="1400" on="0"/>
        <pt x="1900" y="1200" on="1"/>
        <pt x="1900" y="100" on="1"/>
        <pt x="1900" y="0" on="0"/>
        <pt x="1750" y="0" on="1"/>
        <pt x="1650" y="0" on="0"/>
        <pt x="1588" y="63" on="1"/>
        <pt x="1400" y="250" on="1"/>
        <pt x="1213" y="63" on="1"/>
        <pt x="1150" y="0" on="0"/>
        <pt x="1050" y="0" on="1"/>
        <pt x="900" y="0" on="0"/>
        <pt x="900" y="100" on="1"/>
      </contour>
    </TTGlyph>
</ttFont>
